<mxfile host="65bd71144e">
    <diagram id="20u1-b2coqtlTVBKbatw" name="DCMotorDisk">
        <mxGraphModel dx="885" dy="441" grid="1" gridSize="2" guides="1" tooltips="1" connect="1" arrows="0" fold="1" page="0" pageScale="1" pageWidth="827" pageHeight="1169" math="0" shadow="1">
            <root>
                <mxCell id="0"/>
                <mxCell id="1" parent="0"/>
                <object label="%name%" block="Inport" type="block" name="v_M" placeholders="1" id="2">
                    <mxCell style="ellipse;whiteSpace=wrap;html=1;fontSize=11;points=[[1,0.5,0,0,0]];metaEdit=1;snapToPoint=0;resizable=0;rotatable=0;allowArrows=0;container=1;collapsible=0;spacingTop=-5;movable=1;connectable=0;" vertex="1" parent="1">
                        <mxGeometry x="-1.1368683772161603e-13" y="114" width="50" height="30" as="geometry"/>
                    </mxCell>
                </object>
                <object label="&lt;p style=&quot;line-height: 100%;&quot;&gt;&lt;br&gt;&lt;/p&gt;" type="outport" name="out" id="3">
                    <mxCell style="whiteSpace=wrap;html=1;aspect=fixed;snapToPoint=1;resizable=0;metaEdit=1;points=[[1,0.5,0,0,0]];editable=1;movable=0;rotatable=1;deletable=1;locked=0;connectable=1;noLabel=0;overflow=visible;fillColor=#000000;" vertex="1" parent="2">
                        <mxGeometry x="45" y="10" width="10" height="10" as="geometry"/>
                    </mxCell>
                </object>
                <object label="%signs%" block="Add" signs="[:+, :-, :-]" type="block" name="" placeholders="1" id="4">
                    <mxCell style="rounded=0;whiteSpace=wrap;html=1;fontSize=11;points=[[0,0.24,0,0,0],[0,0.76,0,0,0],[1,0.5,0,0,0]];metaEdit=1;snapToPoint=0;allowArrows=0;resizable=1;container=1;collapsible=0;movable=1;connectable=0;" vertex="1" parent="1">
                        <mxGeometry x="120" y="138" width="60" height="64" as="geometry"/>
                    </mxCell>
                </object>
                <object label="&lt;p style=&quot;line-height: 100%;&quot;&gt;&lt;br&gt;&lt;/p&gt;" type="outport" name="out" id="5">
                    <mxCell style="whiteSpace=wrap;html=1;aspect=fixed;snapToPoint=1;resizable=0;metaEdit=1;points=[[1,0.5,0,0,0]];editable=1;movable=1;rotatable=1;deletable=1;locked=0;connectable=1;noLabel=0;overflow=visible;fillColor=#000000;" vertex="1" parent="4">
                        <mxGeometry x="55" y="27.285714285714285" width="10" height="10" as="geometry"/>
                    </mxCell>
                </object>
                <object label="&lt;p style=&quot;line-height: 100%;&quot;&gt;&lt;br&gt;&lt;/p&gt;" type="inport" name="in1" id="6">
                    <mxCell style="whiteSpace=wrap;html=1;aspect=fixed;snapToPoint=1;resizable=0;metaEdit=1;points=[[0,0.5,0,0,0]];editable=1;movable=0;rotatable=1;deletable=1;locked=0;connectable=1;noLabel=0;overflow=visible;direction=east;" vertex="1" parent="4">
                        <mxGeometry x="-5" y="9" width="10" height="10" as="geometry"/>
                    </mxCell>
                </object>
                <object label="&lt;p style=&quot;line-height: 100%;&quot;&gt;&lt;br&gt;&lt;/p&gt;" type="inport" name="in2" id="7">
                    <mxCell style="whiteSpace=wrap;html=1;aspect=fixed;snapToPoint=1;resizable=0;metaEdit=1;points=[[0,0.5,0,0,0]];editable=1;movable=0;rotatable=1;deletable=1;locked=0;connectable=1;noLabel=0;overflow=visible;direction=east;" vertex="1" parent="4">
                        <mxGeometry x="-5" y="26" width="10" height="10" as="geometry"/>
                    </mxCell>
                </object>
                <object label="&lt;p style=&quot;line-height: 100%;&quot;&gt;&lt;br&gt;&lt;/p&gt;" type="inport" name="in3" id="8">
                    <mxCell style="whiteSpace=wrap;html=1;aspect=fixed;snapToPoint=1;resizable=0;metaEdit=1;points=[[0,0.5,0,0,0]];editable=1;movable=0;rotatable=1;deletable=1;locked=0;connectable=1;noLabel=0;overflow=visible;direction=east;" vertex="1" parent="4">
                        <mxGeometry x="-5" y="43" width="10" height="10" as="geometry"/>
                    </mxCell>
                </object>
                <object label="%K%" block="Gain" K="1/L" type="block" name="" placeholders="1" id="10">
                    <mxCell style="triangle;html=1;points=[[0,0.5,0,0,0],[1,0.5,0,0,0]];whiteSpace=wrap;fontSize=11;align=center;spacingLeft=-7;metaEdit=1;snapToPoint=0;allowArrows=0;resizable=0;rotatable=0;container=1;collapsible=0;movable=1;connectable=0;" vertex="1" parent="1">
                        <mxGeometry x="252" y="136" width="50" height="50" as="geometry"/>
                    </mxCell>
                </object>
                <object label="&lt;p style=&quot;line-height: 100%;&quot;&gt;&lt;br&gt;&lt;/p&gt;" type="inport" name="in" id="11">
                    <mxCell style="whiteSpace=wrap;html=1;aspect=fixed;snapToPoint=1;resizable=0;metaEdit=1;points=[[0,0.5,0,0,0]];editable=1;movable=0;rotatable=1;deletable=1;locked=0;connectable=1;noLabel=0;overflow=visible;direction=east;" vertex="1" parent="10">
                        <mxGeometry x="-5" y="20" width="10" height="10" as="geometry"/>
                    </mxCell>
                </object>
                <object label="&lt;p style=&quot;line-height: 100%;&quot;&gt;&lt;br&gt;&lt;/p&gt;" type="outport" name="out" id="12">
                    <mxCell style="whiteSpace=wrap;html=1;aspect=fixed;snapToPoint=1;resizable=0;metaEdit=1;points=[[1,0.5,0,0,0]];editable=1;movable=0;rotatable=1;deletable=1;locked=0;connectable=1;noLabel=0;overflow=visible;fillColor=#000000;" vertex="1" parent="10">
                        <mxGeometry x="45" y="20" width="10" height="10" as="geometry"/>
                    </mxCell>
                </object>
                <object label="1/s" block="Integrator" initialcondition="0" type="block" name="" id="13">
                    <mxCell style="whiteSpace=wrap;html=1;aspect=fixed;fontSize=11;points=[[0,0.5,0,0,0],[1,0.5,0,0,0]];metaEdit=1;snapToPoint=0;resizable=0;rotatable=0;allowArrows=0;container=1;collapsible=0;movable=1;connectable=0;" vertex="1" parent="1">
                        <mxGeometry x="344" y="138" width="40" height="40" as="geometry"/>
                    </mxCell>
                </object>
                <object label="&lt;p style=&quot;line-height: 100%;&quot;&gt;&lt;br&gt;&lt;/p&gt;" type="outport" name="out" id="14">
                    <mxCell style="whiteSpace=wrap;html=1;aspect=fixed;snapToPoint=1;resizable=0;metaEdit=1;points=[[1,0.5,0,0,0]];editable=1;movable=0;rotatable=1;deletable=1;locked=0;connectable=1;noLabel=0;overflow=visible;fillColor=#000000;" vertex="1" parent="13">
                        <mxGeometry x="35" y="15" width="10" height="10" as="geometry"/>
                    </mxCell>
                </object>
                <object label="&lt;p style=&quot;line-height: 100%;&quot;&gt;&lt;br&gt;&lt;/p&gt;" type="inport" name="in" id="15">
                    <mxCell style="whiteSpace=wrap;html=1;aspect=fixed;snapToPoint=1;resizable=0;metaEdit=1;points=[[0,0.5,0,0,0]];editable=1;movable=0;rotatable=1;deletable=1;locked=0;connectable=1;noLabel=0;overflow=visible;direction=east;" vertex="1" parent="13">
                        <mxGeometry x="-5" y="15" width="10" height="10" as="geometry"/>
                    </mxCell>
                </object>
                <object label="%K%" block="Gain" K="K_tau" type="block" name="" placeholders="1" id="16">
                    <mxCell style="triangle;html=1;points=[[0,0.5,0,0,0],[1,0.5,0,0,0]];whiteSpace=wrap;fontSize=11;align=center;spacingLeft=-7;metaEdit=1;snapToPoint=0;allowArrows=0;resizable=0;rotatable=0;container=1;collapsible=0;movable=1;connectable=0;" vertex="1" parent="1">
                        <mxGeometry x="452" y="134" width="50" height="50" as="geometry"/>
                    </mxCell>
                </object>
                <object label="&lt;p style=&quot;line-height: 100%;&quot;&gt;&lt;br&gt;&lt;/p&gt;" type="inport" name="in" id="17">
                    <mxCell style="whiteSpace=wrap;html=1;aspect=fixed;snapToPoint=1;resizable=0;metaEdit=1;points=[[0,0.5,0,0,0]];editable=1;movable=0;rotatable=1;deletable=1;locked=0;connectable=1;noLabel=0;overflow=visible;direction=east;" vertex="1" parent="16">
                        <mxGeometry x="-5" y="20" width="10" height="10" as="geometry"/>
                    </mxCell>
                </object>
                <object label="&lt;p style=&quot;line-height: 100%;&quot;&gt;&lt;br&gt;&lt;/p&gt;" type="outport" name="out" id="18">
                    <mxCell style="whiteSpace=wrap;html=1;aspect=fixed;snapToPoint=1;resizable=0;metaEdit=1;points=[[1,0.5,0,0,0]];editable=1;movable=0;rotatable=1;deletable=1;locked=0;connectable=1;noLabel=0;overflow=visible;fillColor=#000000;" vertex="1" parent="16">
                        <mxGeometry x="45" y="20" width="10" height="10" as="geometry"/>
                    </mxCell>
                </object>
                <object label="%signs%" block="Add" signs="[:+, :-]" type="block" name="" placeholders="1" id="19">
                    <mxCell style="rounded=0;whiteSpace=wrap;html=1;fontSize=11;points=[[0,0.24,0,0,0],[0,0.76,0,0,0],[1,0.5,0,0,0]];metaEdit=1;snapToPoint=0;allowArrows=0;resizable=0;container=1;collapsible=0;movable=1;connectable=0;autosize=1;" vertex="1" parent="1">
                        <mxGeometry x="540" y="134" width="40" height="80" as="geometry"/>
                    </mxCell>
                </object>
                <object label="&lt;p style=&quot;line-height: 100%;&quot;&gt;&lt;br&gt;&lt;/p&gt;" type="outport" name="out" id="20">
                    <mxCell style="whiteSpace=wrap;html=1;aspect=fixed;snapToPoint=1;resizable=0;metaEdit=1;points=[[1,0.5,0,0,0]];editable=1;movable=0;rotatable=1;deletable=1;locked=0;connectable=1;noLabel=0;overflow=visible;fillColor=#000000;" vertex="1" parent="19">
                        <mxGeometry x="35" y="34.285714285714285" width="10" height="10" as="geometry"/>
                    </mxCell>
                </object>
                <object label="&lt;p style=&quot;line-height: 100%;&quot;&gt;&lt;br&gt;&lt;/p&gt;" type="inport" name="in1" id="21">
                    <mxCell style="whiteSpace=wrap;html=1;aspect=fixed;snapToPoint=1;resizable=0;metaEdit=1;points=[[0,0.5,0,0,0]];editable=1;movable=0;rotatable=1;deletable=1;locked=0;connectable=1;noLabel=0;overflow=visible;direction=east;" vertex="1" parent="19">
                        <mxGeometry x="-5" y="9" width="10" height="10" as="geometry"/>
                    </mxCell>
                </object>
                <object label="&lt;p style=&quot;line-height: 100%;&quot;&gt;&lt;br&gt;&lt;/p&gt;" type="inport" name="in2" id="22">
                    <mxCell style="whiteSpace=wrap;html=1;aspect=fixed;snapToPoint=1;resizable=0;metaEdit=1;points=[[0,0.5,0,0,0]];editable=1;movable=0;rotatable=1;deletable=1;locked=0;connectable=1;noLabel=0;overflow=visible;direction=east;" vertex="1" parent="19">
                        <mxGeometry x="-5" y="26" width="10" height="10" as="geometry"/>
                    </mxCell>
                </object>
                <mxCell id="25" style="edgeStyle=orthogonalEdgeStyle;html=1;exitX=1;exitY=0.5;exitDx=0;exitDy=0;exitPerimeter=0;entryX=0;entryY=0.5;entryDx=0;entryDy=0;entryPerimeter=0;" edge="1" parent="1" source="3" target="6">
                    <mxGeometry relative="1" as="geometry"/>
                </mxCell>
                <mxCell id="27" style="edgeStyle=orthogonalEdgeStyle;html=1;exitX=1;exitY=0.5;exitDx=0;exitDy=0;exitPerimeter=0;entryX=0;entryY=0.5;entryDx=0;entryDy=0;entryPerimeter=0;" edge="1" parent="1" source="5" target="11">
                    <mxGeometry relative="1" as="geometry"/>
                </mxCell>
                <mxCell id="28" style="edgeStyle=orthogonalEdgeStyle;html=1;exitX=1;exitY=0.5;exitDx=0;exitDy=0;exitPerimeter=0;entryX=0;entryY=0.5;entryDx=0;entryDy=0;entryPerimeter=0;" edge="1" parent="1" source="12" target="15">
                    <mxGeometry relative="1" as="geometry"/>
                </mxCell>
                <mxCell id="29" style="edgeStyle=orthogonalEdgeStyle;html=1;exitX=1;exitY=0.5;exitDx=0;exitDy=0;exitPerimeter=0;entryX=0;entryY=0.5;entryDx=0;entryDy=0;entryPerimeter=0;" edge="1" parent="1" source="14" target="17">
                    <mxGeometry relative="1" as="geometry"/>
                </mxCell>
                <object label="%K%" block="Gain" K="K_e" type="block" name="" placeholders="1" id="30">
                    <mxCell style="triangle;html=1;points=[[0,0.5,0,0,0],[1,0.5,0,0,0]];whiteSpace=wrap;fontSize=11;align=center;spacingLeft=-7;metaEdit=1;snapToPoint=0;allowArrows=0;resizable=0;rotatable=0;container=1;collapsible=0;movable=1;connectable=0;flipH=1;" vertex="1" parent="1">
                        <mxGeometry x="212" y="276" width="50" height="50" as="geometry"/>
                    </mxCell>
                </object>
                <object label="&lt;p style=&quot;line-height: 100%;&quot;&gt;&lt;br&gt;&lt;/p&gt;" type="inport" name="in" id="31">
                    <mxCell style="whiteSpace=wrap;html=1;aspect=fixed;snapToPoint=1;resizable=0;metaEdit=1;points=[[0,0.5,0,0,0]];editable=1;movable=0;rotatable=1;deletable=1;locked=0;connectable=1;noLabel=0;overflow=visible;direction=east;flipH=1;" vertex="1" parent="30">
                        <mxGeometry x="45" y="20" width="10" height="10" as="geometry"/>
                    </mxCell>
                </object>
                <object label="&lt;p style=&quot;line-height: 100%;&quot;&gt;&lt;br&gt;&lt;/p&gt;" type="outport" name="out" id="32">
                    <mxCell style="whiteSpace=wrap;html=1;aspect=fixed;snapToPoint=1;resizable=0;metaEdit=1;points=[[1,0.5,0,0,0]];editable=1;movable=0;rotatable=1;deletable=1;locked=0;connectable=1;noLabel=0;overflow=visible;fillColor=#000000;flipH=1;" vertex="1" parent="30">
                        <mxGeometry x="-5" y="20" width="10" height="10" as="geometry"/>
                    </mxCell>
                </object>
                <object label="%K%" block="Gain" K="R" type="block" name="" placeholders="1" id="33">
                    <mxCell style="triangle;html=1;points=[[0,0.5,0,0,0],[1,0.5,0,0,0]];whiteSpace=wrap;fontSize=11;align=center;spacingLeft=-7;metaEdit=1;snapToPoint=0;allowArrows=0;resizable=0;rotatable=0;container=1;collapsible=0;movable=1;connectable=0;flipH=1;" vertex="1" parent="1">
                        <mxGeometry x="214" y="354" width="50" height="50" as="geometry"/>
                    </mxCell>
                </object>
                <object label="&lt;p style=&quot;line-height: 100%;&quot;&gt;&lt;br&gt;&lt;/p&gt;" type="inport" name="in" id="34">
                    <mxCell style="whiteSpace=wrap;html=1;aspect=fixed;snapToPoint=1;resizable=0;metaEdit=1;points=[[0,0.5,0,0,0]];editable=1;movable=0;rotatable=1;deletable=1;locked=0;connectable=1;noLabel=0;overflow=visible;direction=east;flipH=1;" vertex="1" parent="33">
                        <mxGeometry x="45" y="20" width="10" height="10" as="geometry"/>
                    </mxCell>
                </object>
                <object label="&lt;p style=&quot;line-height: 100%;&quot;&gt;&lt;br&gt;&lt;/p&gt;" type="outport" name="out" id="35">
                    <mxCell style="whiteSpace=wrap;html=1;aspect=fixed;snapToPoint=1;resizable=0;metaEdit=1;points=[[1,0.5,0,0,0]];editable=1;movable=0;rotatable=1;deletable=1;locked=0;connectable=1;noLabel=0;overflow=visible;fillColor=#000000;flipH=1;" vertex="1" parent="33">
                        <mxGeometry x="-5" y="20" width="10" height="10" as="geometry"/>
                    </mxCell>
                </object>
                <mxCell id="38" style="edgeStyle=orthogonalEdgeStyle;html=1;exitX=1;exitY=0.5;exitDx=0;exitDy=0;exitPerimeter=0;entryX=0;entryY=0.5;entryDx=0;entryDy=0;entryPerimeter=0;" edge="1" parent="1" source="32" target="7">
                    <mxGeometry relative="1" as="geometry"/>
                </mxCell>
                <mxCell id="39" style="edgeStyle=orthogonalEdgeStyle;html=1;exitX=1;exitY=0.5;exitDx=0;exitDy=0;exitPerimeter=0;entryX=0;entryY=0.5;entryDx=0;entryDy=0;entryPerimeter=0;" edge="1" parent="1" source="35" target="8">
                    <mxGeometry relative="1" as="geometry">
                        <Array as="points">
                            <mxPoint x="86" y="379"/>
                            <mxPoint x="86" y="186"/>
                        </Array>
                    </mxGeometry>
                </mxCell>
                <mxCell id="40" style="edgeStyle=orthogonalEdgeStyle;html=1;exitX=1;exitY=0.5;exitDx=0;exitDy=0;exitPerimeter=0;entryX=0;entryY=0.5;entryDx=0;entryDy=0;entryPerimeter=0;" edge="1" parent="1" source="18" target="21">
                    <mxGeometry relative="1" as="geometry"/>
                </mxCell>
                <object label="%K%" block="Gain" K="1/(J_M+J_I)" type="block" name="" placeholders="1" id="41">
                    <mxCell style="triangle;html=1;points=[[0,0.5,0,0,0],[1,0.5,0,0,0]];whiteSpace=wrap;fontSize=11;align=center;spacingLeft=-7;metaEdit=1;snapToPoint=0;allowArrows=0;resizable=0;rotatable=0;container=1;collapsible=0;movable=1;connectable=0;movableLabel=1;" vertex="1" parent="1">
                        <mxGeometry x="614" y="145" width="50" height="50" as="geometry">
                            <mxPoint x="-3" y="37" as="offset"/>
                        </mxGeometry>
                    </mxCell>
                </object>
                <object label="&lt;p style=&quot;line-height: 100%;&quot;&gt;&lt;br&gt;&lt;/p&gt;" type="inport" name="in" id="42">
                    <mxCell style="whiteSpace=wrap;html=1;aspect=fixed;snapToPoint=1;resizable=0;metaEdit=1;points=[[0,0.5,0,0,0]];editable=1;movable=0;rotatable=1;deletable=1;locked=0;connectable=1;noLabel=0;overflow=visible;direction=east;" vertex="1" parent="41">
                        <mxGeometry x="-5" y="20" width="10" height="10" as="geometry"/>
                    </mxCell>
                </object>
                <object label="&lt;p style=&quot;line-height: 100%;&quot;&gt;&lt;br&gt;&lt;/p&gt;" type="outport" name="out" id="43">
                    <mxCell style="whiteSpace=wrap;html=1;aspect=fixed;snapToPoint=1;resizable=0;metaEdit=1;points=[[1,0.5,0,0,0]];editable=1;movable=0;rotatable=1;deletable=1;locked=0;connectable=1;noLabel=0;overflow=visible;fillColor=#000000;" vertex="1" parent="41">
                        <mxGeometry x="45" y="20" width="10" height="10" as="geometry"/>
                    </mxCell>
                </object>
                <object label="1/s" block="Integrator" initialcondition="0" type="block" name="" id="44">
                    <mxCell style="whiteSpace=wrap;html=1;aspect=fixed;fontSize=11;points=[[0,0.5,0,0,0],[1,0.5,0,0,0]];metaEdit=1;snapToPoint=0;resizable=0;rotatable=0;allowArrows=0;container=1;collapsible=0;movable=1;connectable=0;" vertex="1" parent="1">
                        <mxGeometry x="704" y="150" width="40" height="40" as="geometry"/>
                    </mxCell>
                </object>
                <object label="&lt;p style=&quot;line-height: 100%;&quot;&gt;&lt;br&gt;&lt;/p&gt;" type="outport" name="out" id="45">
                    <mxCell style="whiteSpace=wrap;html=1;aspect=fixed;snapToPoint=1;resizable=0;metaEdit=1;points=[[1,0.5,0,0,0]];editable=1;movable=0;rotatable=1;deletable=1;locked=0;connectable=1;noLabel=0;overflow=visible;fillColor=#000000;" vertex="1" parent="44">
                        <mxGeometry x="35" y="15" width="10" height="10" as="geometry"/>
                    </mxCell>
                </object>
                <object label="&lt;p style=&quot;line-height: 100%;&quot;&gt;&lt;br&gt;&lt;/p&gt;" type="inport" name="in" id="46">
                    <mxCell style="whiteSpace=wrap;html=1;aspect=fixed;snapToPoint=1;resizable=0;metaEdit=1;points=[[0,0.5,0,0,0]];editable=1;movable=0;rotatable=1;deletable=1;locked=0;connectable=1;noLabel=0;overflow=visible;direction=east;" vertex="1" parent="44">
                        <mxGeometry x="-5" y="15" width="10" height="10" as="geometry"/>
                    </mxCell>
                </object>
                <object label="%name%" block="Outport" type="block" name="omega" placeholders="1" id="47">
                    <mxCell style="ellipse;whiteSpace=wrap;html=1;fontSize=11;points=[[0.02,0.5,0,0,0]];metaEdit=1;snapToPoint=0;resizable=0;rotatable=0;allowArrows=0;container=1;collapsible=0;spacingTop=-4;movable=1;connectable=0;" vertex="1" parent="1">
                        <mxGeometry x="808" y="150" width="50" height="30" as="geometry"/>
                    </mxCell>
                </object>
                <object label="&lt;p style=&quot;line-height: 100%;&quot;&gt;&lt;br&gt;&lt;/p&gt;" type="inport" name="in" id="48">
                    <mxCell style="whiteSpace=wrap;html=1;aspect=fixed;snapToPoint=1;resizable=0;metaEdit=1;points=[[0,0.5,0,0,0]];editable=1;movable=0;rotatable=1;deletable=1;locked=0;connectable=1;noLabel=0;overflow=visible;direction=east;" vertex="1" parent="47">
                        <mxGeometry x="-4" y="10" width="10" height="10" as="geometry"/>
                    </mxCell>
                </object>
                <mxCell id="49" style="edgeStyle=orthogonalEdgeStyle;html=1;exitX=1;exitY=0.5;exitDx=0;exitDy=0;exitPerimeter=0;entryX=0;entryY=0.5;entryDx=0;entryDy=0;entryPerimeter=0;" edge="1" parent="1" source="20" target="42">
                    <mxGeometry relative="1" as="geometry"/>
                </mxCell>
                <mxCell id="50" style="edgeStyle=orthogonalEdgeStyle;html=1;exitX=1;exitY=0.5;exitDx=0;exitDy=0;exitPerimeter=0;entryX=0;entryY=0.5;entryDx=0;entryDy=0;entryPerimeter=0;" edge="1" parent="1" source="43" target="46">
                    <mxGeometry relative="1" as="geometry"/>
                </mxCell>
                <mxCell id="51" style="edgeStyle=orthogonalEdgeStyle;html=1;exitX=1;exitY=0.5;exitDx=0;exitDy=0;exitPerimeter=0;entryX=0;entryY=0.5;entryDx=0;entryDy=0;entryPerimeter=0;" edge="1" parent="1" source="45" target="48">
                    <mxGeometry relative="1" as="geometry"/>
                </mxCell>
                <object label="%K%" block="Gain" K="D" type="block" name="" placeholders="1" id="52">
                    <mxCell style="triangle;html=1;points=[[0,0.5,0,0,0],[1,0.5,0,0,0]];whiteSpace=wrap;fontSize=11;align=center;spacingLeft=-7;metaEdit=1;snapToPoint=0;allowArrows=0;resizable=0;rotatable=0;container=1;collapsible=0;movable=1;connectable=0;flipH=1;" vertex="1" parent="1">
                        <mxGeometry x="532" y="328" width="50" height="50" as="geometry"/>
                    </mxCell>
                </object>
                <object label="&lt;p style=&quot;line-height: 100%;&quot;&gt;&lt;br&gt;&lt;/p&gt;" type="inport" name="in" id="53">
                    <mxCell style="whiteSpace=wrap;html=1;aspect=fixed;snapToPoint=1;resizable=0;metaEdit=1;points=[[0,0.5,0,0,0]];editable=1;movable=0;rotatable=1;deletable=1;locked=0;connectable=1;noLabel=0;overflow=visible;direction=east;flipH=1;" vertex="1" parent="52">
                        <mxGeometry x="45" y="20" width="10" height="10" as="geometry"/>
                    </mxCell>
                </object>
                <object label="&lt;p style=&quot;line-height: 100%;&quot;&gt;&lt;br&gt;&lt;/p&gt;" type="outport" name="out" id="54">
                    <mxCell style="whiteSpace=wrap;html=1;aspect=fixed;snapToPoint=1;resizable=0;metaEdit=1;points=[[1,0.5,0,0,0]];editable=1;movable=0;rotatable=1;deletable=1;locked=0;connectable=1;noLabel=0;overflow=visible;fillColor=#000000;flipH=1;" vertex="1" parent="52">
                        <mxGeometry x="-5" y="20" width="10" height="10" as="geometry"/>
                    </mxCell>
                </object>
                <mxCell id="55" style="edgeStyle=orthogonalEdgeStyle;html=1;exitX=1;exitY=0.5;exitDx=0;exitDy=0;exitPerimeter=0;entryX=0;entryY=0.5;entryDx=0;entryDy=0;entryPerimeter=0;" edge="1" parent="1" source="45" target="53">
                    <mxGeometry relative="1" as="geometry"/>
                </mxCell>
                <mxCell id="56" style="edgeStyle=orthogonalEdgeStyle;html=1;exitX=1;exitY=0.5;exitDx=0;exitDy=0;exitPerimeter=0;entryX=0;entryY=0.5;entryDx=0;entryDy=0;entryPerimeter=0;" edge="1" parent="1" source="54" target="22">
                    <mxGeometry relative="1" as="geometry"/>
                </mxCell>
                <mxCell id="57" style="edgeStyle=orthogonalEdgeStyle;html=1;exitX=1;exitY=0.5;exitDx=0;exitDy=0;exitPerimeter=0;entryX=0;entryY=0.5;entryDx=0;entryDy=0;entryPerimeter=0;" edge="1" parent="1" source="14" target="34">
                    <mxGeometry relative="1" as="geometry"/>
                </mxCell>
                <mxCell id="58" style="edgeStyle=orthogonalEdgeStyle;html=1;exitX=1;exitY=0.5;exitDx=0;exitDy=0;exitPerimeter=0;entryX=0;entryY=0.5;entryDx=0;entryDy=0;entryPerimeter=0;" edge="1" parent="1" source="45" target="31">
                    <mxGeometry relative="1" as="geometry"/>
                </mxCell>
                <object label="%name%" block="Outport" type="block" name="i_M" placeholders="1" id="59">
                    <mxCell style="ellipse;whiteSpace=wrap;html=1;fontSize=11;points=[[0.02,0.5,0,0,0]];metaEdit=1;snapToPoint=0;resizable=0;rotatable=0;allowArrows=0;container=1;collapsible=0;spacingTop=-4;movable=1;connectable=0;" vertex="1" parent="1">
                        <mxGeometry x="478" y="408" width="50" height="30" as="geometry"/>
                    </mxCell>
                </object>
                <object label="&lt;p style=&quot;line-height: 100%;&quot;&gt;&lt;br&gt;&lt;/p&gt;" type="inport" name="in" id="60">
                    <mxCell style="whiteSpace=wrap;html=1;aspect=fixed;snapToPoint=1;resizable=0;metaEdit=1;points=[[0,0.5,0,0,0]];editable=1;movable=0;rotatable=1;deletable=1;locked=0;connectable=1;noLabel=0;overflow=visible;direction=east;" vertex="1" parent="59">
                        <mxGeometry x="-4" y="10" width="10" height="10" as="geometry"/>
                    </mxCell>
                </object>
                <mxCell id="61" style="edgeStyle=orthogonalEdgeStyle;html=1;exitX=1;exitY=0.5;exitDx=0;exitDy=0;exitPerimeter=0;entryX=0.1;entryY=1.2;entryDx=0;entryDy=0;entryPerimeter=0;" edge="1" parent="1" source="14" target="60">
                    <mxGeometry relative="1" as="geometry"/>
                </mxCell>
            </root>
        </mxGraphModel>
    </diagram>
    <diagram id="U3Uy3ABwT-g5PZvX5N0S" name="Tachogenerator">
        <mxGraphModel dx="1064" dy="331" grid="1" gridSize="2" guides="1" tooltips="1" connect="1" arrows="1" fold="1" page="0" pageScale="1" pageWidth="827" pageHeight="1169" math="0" shadow="0">
            <root>
                <mxCell id="0"/>
                <mxCell id="1" parent="0"/>
                <object label="%name%" block="Inport" type="block" name="omega" placeholders="1" id="mKsr1948RztRCfiG42xa-1">
                    <mxCell style="ellipse;whiteSpace=wrap;html=1;fontSize=11;points=[[1,0.5,0,0,0]];metaEdit=1;snapToPoint=0;resizable=0;rotatable=0;allowArrows=0;container=1;collapsible=0;spacingTop=-5;movable=1;connectable=0;" vertex="1" parent="1">
                        <mxGeometry x="-80.00000000000011" y="160" width="50" height="30" as="geometry"/>
                    </mxCell>
                </object>
                <object label="&lt;p style=&quot;line-height: 100%;&quot;&gt;&lt;br&gt;&lt;/p&gt;" type="outport" name="out" id="mKsr1948RztRCfiG42xa-2">
                    <mxCell style="whiteSpace=wrap;html=1;aspect=fixed;snapToPoint=1;resizable=0;metaEdit=1;points=[[1,0.5,0,0,0]];editable=1;movable=0;rotatable=1;deletable=1;locked=0;connectable=1;noLabel=0;overflow=visible;fillColor=#000000;" vertex="1" parent="mKsr1948RztRCfiG42xa-1">
                        <mxGeometry x="45" y="10" width="10" height="10" as="geometry"/>
                    </mxCell>
                </object>
                <object label="%K%" block="Gain" K="60/(2*pi)" type="block" name="" placeholders="1" id="mKsr1948RztRCfiG42xa-3">
                    <mxCell style="triangle;html=1;points=[[0,0.5,0,0,0],[1,0.5,0,0,0]];whiteSpace=wrap;fontSize=11;align=center;spacingLeft=-7;metaEdit=1;snapToPoint=0;allowArrows=0;resizable=0;rotatable=0;container=1;collapsible=0;movable=1;connectable=0;movableLabel=1;" vertex="1" parent="1">
                        <mxGeometry x="24" y="148" width="50" height="50" as="geometry">
                            <mxPoint x="-2" y="36" as="offset"/>
                        </mxGeometry>
                    </mxCell>
                </object>
                <object label="&lt;p style=&quot;line-height: 100%;&quot;&gt;&lt;br&gt;&lt;/p&gt;" type="inport" name="in" id="mKsr1948RztRCfiG42xa-4">
                    <mxCell style="whiteSpace=wrap;html=1;aspect=fixed;snapToPoint=1;resizable=0;metaEdit=1;points=[[0,0.5,0,0,0]];editable=1;movable=0;rotatable=1;deletable=1;locked=0;connectable=1;noLabel=0;overflow=visible;direction=east;" vertex="1" parent="mKsr1948RztRCfiG42xa-3">
                        <mxGeometry x="-5" y="20" width="10" height="10" as="geometry"/>
                    </mxCell>
                </object>
                <object label="&lt;p style=&quot;line-height: 100%;&quot;&gt;&lt;br&gt;&lt;/p&gt;" type="outport" name="out" id="mKsr1948RztRCfiG42xa-5">
                    <mxCell style="whiteSpace=wrap;html=1;aspect=fixed;snapToPoint=1;resizable=0;metaEdit=1;points=[[1,0.5,0,0,0]];editable=1;movable=0;rotatable=1;deletable=1;locked=0;connectable=1;noLabel=0;overflow=visible;fillColor=#000000;" vertex="1" parent="mKsr1948RztRCfiG42xa-3">
                        <mxGeometry x="45" y="20" width="10" height="10" as="geometry"/>
                    </mxCell>
                </object>
                <object label="%K%" block="Gain" K="alpha_T" type="block" name="" placeholders="1" id="mKsr1948RztRCfiG42xa-6">
                    <mxCell style="triangle;html=1;points=[[0,0.5,0,0,0],[1,0.5,0,0,0]];whiteSpace=wrap;fontSize=11;align=center;spacingLeft=-7;metaEdit=1;snapToPoint=0;allowArrows=0;resizable=0;rotatable=0;container=1;collapsible=0;movable=1;connectable=0;" vertex="1" parent="1">
                        <mxGeometry x="122" y="148" width="50" height="50" as="geometry"/>
                    </mxCell>
                </object>
                <object label="&lt;p style=&quot;line-height: 100%;&quot;&gt;&lt;br&gt;&lt;/p&gt;" type="inport" name="in" id="mKsr1948RztRCfiG42xa-7">
                    <mxCell style="whiteSpace=wrap;html=1;aspect=fixed;snapToPoint=1;resizable=0;metaEdit=1;points=[[0,0.5,0,0,0]];editable=1;movable=0;rotatable=1;deletable=1;locked=0;connectable=1;noLabel=0;overflow=visible;direction=east;" vertex="1" parent="mKsr1948RztRCfiG42xa-6">
                        <mxGeometry x="-5" y="20" width="10" height="10" as="geometry"/>
                    </mxCell>
                </object>
                <object label="&lt;p style=&quot;line-height: 100%;&quot;&gt;&lt;br&gt;&lt;/p&gt;" type="outport" name="out" id="mKsr1948RztRCfiG42xa-8">
                    <mxCell style="whiteSpace=wrap;html=1;aspect=fixed;snapToPoint=1;resizable=0;metaEdit=1;points=[[1,0.5,0,0,0]];editable=1;movable=0;rotatable=1;deletable=1;locked=0;connectable=1;noLabel=0;overflow=visible;fillColor=#000000;" vertex="1" parent="mKsr1948RztRCfiG42xa-6">
                        <mxGeometry x="45" y="20" width="10" height="10" as="geometry"/>
                    </mxCell>
                </object>
                <object label="%name%" block="Outport" type="block" name="v_N" placeholders="1" id="mKsr1948RztRCfiG42xa-9">
                    <mxCell style="ellipse;whiteSpace=wrap;html=1;fontSize=11;points=[[0.02,0.5,0,0,0]];metaEdit=1;snapToPoint=0;resizable=0;rotatable=0;allowArrows=0;container=1;collapsible=0;spacingTop=-4;movable=1;connectable=0;" vertex="1" parent="1">
                        <mxGeometry x="234" y="160" width="50" height="30" as="geometry"/>
                    </mxCell>
                </object>
                <object label="&lt;p style=&quot;line-height: 100%;&quot;&gt;&lt;br&gt;&lt;/p&gt;" type="inport" name="in" id="mKsr1948RztRCfiG42xa-10">
                    <mxCell style="whiteSpace=wrap;html=1;aspect=fixed;snapToPoint=1;resizable=0;metaEdit=1;points=[[0,0.5,0,0,0]];editable=1;movable=0;rotatable=1;deletable=1;locked=0;connectable=1;noLabel=0;overflow=visible;direction=east;" vertex="1" parent="mKsr1948RztRCfiG42xa-9">
                        <mxGeometry x="-4" y="10" width="10" height="10" as="geometry"/>
                    </mxCell>
                </object>
                <mxCell id="mKsr1948RztRCfiG42xa-11" style="edgeStyle=orthogonalEdgeStyle;html=1;exitX=1;exitY=0.5;exitDx=0;exitDy=0;exitPerimeter=0;entryX=0;entryY=0.5;entryDx=0;entryDy=0;entryPerimeter=0;" edge="1" parent="1" source="mKsr1948RztRCfiG42xa-2" target="mKsr1948RztRCfiG42xa-4">
                    <mxGeometry relative="1" as="geometry"/>
                </mxCell>
                <mxCell id="mKsr1948RztRCfiG42xa-12" style="edgeStyle=orthogonalEdgeStyle;html=1;exitX=1;exitY=0.5;exitDx=0;exitDy=0;exitPerimeter=0;entryX=0;entryY=0.5;entryDx=0;entryDy=0;entryPerimeter=0;" edge="1" parent="1" source="mKsr1948RztRCfiG42xa-5" target="mKsr1948RztRCfiG42xa-7">
                    <mxGeometry relative="1" as="geometry"/>
                </mxCell>
                <mxCell id="mKsr1948RztRCfiG42xa-13" style="edgeStyle=orthogonalEdgeStyle;html=1;exitX=1;exitY=0.5;exitDx=0;exitDy=0;exitPerimeter=0;entryX=0;entryY=0.5;entryDx=0;entryDy=0;entryPerimeter=0;" edge="1" parent="1" source="mKsr1948RztRCfiG42xa-8" target="mKsr1948RztRCfiG42xa-10">
                    <mxGeometry relative="1" as="geometry"/>
                </mxCell>
            </root>
        </mxGraphModel>
    </diagram>
    <diagram id="hL2jOj8i1iL7Ms1LAvqU" name="MotorDriver">
        <mxGraphModel dx="1064" dy="331" grid="1" gridSize="2" guides="1" tooltips="1" connect="1" arrows="1" fold="1" page="0" pageScale="1" pageWidth="827" pageHeight="1169" math="0" shadow="0">
            <root>
                <mxCell id="0"/>
                <mxCell id="1" parent="0"/>
                <object label="%name%" block="Inport" type="block" name="i_M" placeholders="1" id="H280dy-ToOup5UlUX61F-1">
                    <mxCell style="ellipse;whiteSpace=wrap;html=1;fontSize=11;points=[[1,0.5,0,0,0]];metaEdit=1;snapToPoint=0;resizable=0;rotatable=0;allowArrows=0;container=1;collapsible=0;spacingTop=-5;movable=1;connectable=0;" vertex="1" parent="1">
                        <mxGeometry x="-1.1368683772161603e-13" y="254" width="50" height="30" as="geometry"/>
                    </mxCell>
                </object>
                <object label="&lt;p style=&quot;line-height: 100%;&quot;&gt;&lt;br&gt;&lt;/p&gt;" type="outport" name="out" id="H280dy-ToOup5UlUX61F-2">
                    <mxCell style="whiteSpace=wrap;html=1;aspect=fixed;snapToPoint=1;resizable=0;metaEdit=1;points=[[1,0.5,0,0,0]];editable=1;movable=0;rotatable=1;deletable=1;locked=0;connectable=1;noLabel=0;overflow=visible;fillColor=#000000;" vertex="1" parent="H280dy-ToOup5UlUX61F-1">
                        <mxGeometry x="45" y="10" width="10" height="10" as="geometry"/>
                    </mxCell>
                </object>
                <object label="%name%" block="Inport" type="block" name="u_M" placeholders="1" id="H280dy-ToOup5UlUX61F-3">
                    <mxCell style="ellipse;whiteSpace=wrap;html=1;fontSize=11;points=[[1,0.5,0,0,0]];metaEdit=1;snapToPoint=0;resizable=0;rotatable=0;allowArrows=0;container=1;collapsible=0;spacingTop=-5;movable=1;connectable=0;" vertex="1" parent="1">
                        <mxGeometry x="-4.000000000000114" y="186" width="50" height="30" as="geometry"/>
                    </mxCell>
                </object>
                <object label="&lt;p style=&quot;line-height: 100%;&quot;&gt;&lt;br&gt;&lt;/p&gt;" type="outport" name="out" id="H280dy-ToOup5UlUX61F-4">
                    <mxCell style="whiteSpace=wrap;html=1;aspect=fixed;snapToPoint=1;resizable=0;metaEdit=1;points=[[1,0.5,0,0,0]];editable=1;movable=0;rotatable=1;deletable=1;locked=0;connectable=1;noLabel=0;overflow=visible;fillColor=#000000;" vertex="1" parent="H280dy-ToOup5UlUX61F-3">
                        <mxGeometry x="45" y="10" width="10" height="10" as="geometry"/>
                    </mxCell>
                </object>
                <object label="%name%" block="Inport" type="block" name="Vs" placeholders="1" id="H280dy-ToOup5UlUX61F-5">
                    <mxCell style="ellipse;whiteSpace=wrap;html=1;fontSize=11;points=[[1,0.5,0,0,0]];metaEdit=1;snapToPoint=0;resizable=0;rotatable=0;allowArrows=0;container=1;collapsible=0;spacingTop=-5;movable=1;connectable=0;" vertex="1" parent="1">
                        <mxGeometry x="-6.000000000000114" y="120" width="50" height="30" as="geometry"/>
                    </mxCell>
                </object>
                <object label="&lt;p style=&quot;line-height: 100%;&quot;&gt;&lt;br&gt;&lt;/p&gt;" type="outport" name="out" id="H280dy-ToOup5UlUX61F-6">
                    <mxCell style="whiteSpace=wrap;html=1;aspect=fixed;snapToPoint=1;resizable=0;metaEdit=1;points=[[1,0.5,0,0,0]];editable=1;movable=0;rotatable=1;deletable=1;locked=0;connectable=1;noLabel=0;overflow=visible;fillColor=#000000;" vertex="1" parent="H280dy-ToOup5UlUX61F-5">
                        <mxGeometry x="45" y="10" width="10" height="10" as="geometry"/>
                    </mxCell>
                </object>
                <object label="%K%" block="Gain" K="1/100" type="block" name="" placeholders="1" id="H280dy-ToOup5UlUX61F-7">
                    <mxCell style="triangle;html=1;points=[[0,0.5,0,0,0],[1,0.5,0,0,0]];whiteSpace=wrap;fontSize=11;align=center;spacingLeft=-7;metaEdit=1;snapToPoint=0;allowArrows=0;resizable=0;rotatable=0;container=1;collapsible=0;movable=1;connectable=0;" vertex="1" parent="1">
                        <mxGeometry x="96" y="174" width="50" height="50" as="geometry"/>
                    </mxCell>
                </object>
                <object label="&lt;p style=&quot;line-height: 100%;&quot;&gt;&lt;br&gt;&lt;/p&gt;" type="inport" name="in" id="H280dy-ToOup5UlUX61F-8">
                    <mxCell style="whiteSpace=wrap;html=1;aspect=fixed;snapToPoint=1;resizable=0;metaEdit=1;points=[[0,0.5,0,0,0]];editable=1;movable=0;rotatable=1;deletable=1;locked=0;connectable=1;noLabel=0;overflow=visible;direction=east;" vertex="1" parent="H280dy-ToOup5UlUX61F-7">
                        <mxGeometry x="-5" y="20" width="10" height="10" as="geometry"/>
                    </mxCell>
                </object>
                <object label="&lt;p style=&quot;line-height: 100%;&quot;&gt;&lt;br&gt;&lt;/p&gt;" type="outport" name="out" id="H280dy-ToOup5UlUX61F-9">
                    <mxCell style="whiteSpace=wrap;html=1;aspect=fixed;snapToPoint=1;resizable=0;metaEdit=1;points=[[1,0.5,0,0,0]];editable=1;movable=0;rotatable=1;deletable=1;locked=0;connectable=1;noLabel=0;overflow=visible;fillColor=#000000;" vertex="1" parent="H280dy-ToOup5UlUX61F-7">
                        <mxGeometry x="45" y="20" width="10" height="10" as="geometry"/>
                    </mxCell>
                </object>
                <object label="*" block="Product" type="block" name="" id="H280dy-ToOup5UlUX61F-10">
                    <mxCell style="whiteSpace=wrap;html=1;aspect=fixed;fontSize=22;points=[[0,0.25,0,0,0],[0,0.75,0,0,0],[1,0.5,0,0,0]];metaEdit=1;snapToPoint=0;resizable=0;rotatable=0;allowArrows=0;container=1;collapsible=0;spacingBottom=-7;movable=1;connectable=0;" vertex="1" parent="1">
                        <mxGeometry x="210" y="156" width="40" height="40" as="geometry"/>
                    </mxCell>
                </object>
                <object label="&lt;p style=&quot;line-height: 100%;&quot;&gt;&lt;br&gt;&lt;/p&gt;" type="outport" name="out" id="H280dy-ToOup5UlUX61F-11">
                    <mxCell style="whiteSpace=wrap;html=1;aspect=fixed;snapToPoint=1;resizable=0;metaEdit=1;points=[[1,0.5,0,0,0]];editable=1;movable=0;rotatable=1;deletable=1;locked=0;connectable=1;noLabel=0;overflow=visible;fillColor=#000000;" vertex="1" parent="H280dy-ToOup5UlUX61F-10">
                        <mxGeometry x="35" y="15" width="10" height="10" as="geometry"/>
                    </mxCell>
                </object>
                <object label="&lt;p style=&quot;line-height: 100%;&quot;&gt;&lt;br&gt;&lt;/p&gt;" type="inport" name="in1" id="H280dy-ToOup5UlUX61F-12">
                    <mxCell style="whiteSpace=wrap;html=1;aspect=fixed;snapToPoint=1;resizable=0;metaEdit=1;points=[[0,0.5,0,0,0]];editable=1;movable=0;rotatable=1;deletable=1;locked=0;connectable=1;noLabel=0;overflow=visible;direction=east;" vertex="1" parent="H280dy-ToOup5UlUX61F-10">
                        <mxGeometry x="-5" y="5" width="10" height="10" as="geometry"/>
                    </mxCell>
                </object>
                <object label="&lt;p style=&quot;line-height: 100%;&quot;&gt;&lt;br&gt;&lt;/p&gt;" type="inport" name="in2" id="H280dy-ToOup5UlUX61F-13">
                    <mxCell style="whiteSpace=wrap;html=1;aspect=fixed;snapToPoint=1;resizable=0;metaEdit=1;points=[[0,0.5,0,0,0]];editable=1;movable=0;rotatable=1;deletable=1;locked=0;connectable=1;noLabel=0;overflow=visible;direction=east;" vertex="1" parent="H280dy-ToOup5UlUX61F-10">
                        <mxGeometry x="-5" y="25" width="10" height="10" as="geometry"/>
                    </mxCell>
                </object>
                <object label="%name%" block="Outport" type="block" name="v_A" placeholders="1" id="H280dy-ToOup5UlUX61F-14">
                    <mxCell style="ellipse;whiteSpace=wrap;html=1;fontSize=11;points=[[0.02,0.5,0,0,0]];metaEdit=1;snapToPoint=0;resizable=0;rotatable=0;allowArrows=0;container=1;collapsible=0;spacingTop=-4;movable=1;connectable=0;" vertex="1" parent="1">
                        <mxGeometry x="282" y="160" width="50" height="30" as="geometry"/>
                    </mxCell>
                </object>
                <object label="&lt;p style=&quot;line-height: 100%;&quot;&gt;&lt;br&gt;&lt;/p&gt;" type="inport" name="in" id="H280dy-ToOup5UlUX61F-15">
                    <mxCell style="whiteSpace=wrap;html=1;aspect=fixed;snapToPoint=1;resizable=0;metaEdit=1;points=[[0,0.5,0,0,0]];editable=1;movable=0;rotatable=1;deletable=1;locked=0;connectable=1;noLabel=0;overflow=visible;direction=east;" vertex="1" parent="H280dy-ToOup5UlUX61F-14">
                        <mxGeometry x="-4" y="10" width="10" height="10" as="geometry"/>
                    </mxCell>
                </object>
                <mxCell id="H280dy-ToOup5UlUX61F-16" style="edgeStyle=orthogonalEdgeStyle;html=1;exitX=1;exitY=0.5;exitDx=0;exitDy=0;exitPerimeter=0;entryX=0;entryY=0.5;entryDx=0;entryDy=0;entryPerimeter=0;" edge="1" parent="1" source="H280dy-ToOup5UlUX61F-6" target="H280dy-ToOup5UlUX61F-12">
                    <mxGeometry relative="1" as="geometry"/>
                </mxCell>
                <mxCell id="H280dy-ToOup5UlUX61F-17" style="edgeStyle=orthogonalEdgeStyle;html=1;exitX=1;exitY=0.5;exitDx=0;exitDy=0;exitPerimeter=0;entryX=0;entryY=0.5;entryDx=0;entryDy=0;entryPerimeter=0;" edge="1" parent="1" source="H280dy-ToOup5UlUX61F-4" target="H280dy-ToOup5UlUX61F-8">
                    <mxGeometry relative="1" as="geometry"/>
                </mxCell>
                <mxCell id="H280dy-ToOup5UlUX61F-18" style="edgeStyle=orthogonalEdgeStyle;html=1;exitX=1;exitY=0.5;exitDx=0;exitDy=0;exitPerimeter=0;entryX=0;entryY=0.5;entryDx=0;entryDy=0;entryPerimeter=0;" edge="1" parent="1" source="H280dy-ToOup5UlUX61F-9" target="H280dy-ToOup5UlUX61F-13">
                    <mxGeometry relative="1" as="geometry"/>
                </mxCell>
                <mxCell id="H280dy-ToOup5UlUX61F-19" style="edgeStyle=orthogonalEdgeStyle;html=1;exitX=1;exitY=0.5;exitDx=0;exitDy=0;exitPerimeter=0;entryX=0;entryY=0.5;entryDx=0;entryDy=0;entryPerimeter=0;" edge="1" parent="1" source="H280dy-ToOup5UlUX61F-11" target="H280dy-ToOup5UlUX61F-15">
                    <mxGeometry relative="1" as="geometry"/>
                </mxCell>
                <object label="%K%" block="Gain" K="alpha_i" type="block" name="" placeholders="1" id="H280dy-ToOup5UlUX61F-20">
                    <mxCell style="triangle;html=1;points=[[0,0.5,0,0,0],[1,0.5,0,0,0]];whiteSpace=wrap;fontSize=11;align=center;spacingLeft=-7;metaEdit=1;snapToPoint=0;allowArrows=0;resizable=0;rotatable=0;container=1;collapsible=0;movable=1;connectable=0;" vertex="1" parent="1">
                        <mxGeometry x="104" y="246" width="50" height="50" as="geometry"/>
                    </mxCell>
                </object>
                <object label="&lt;p style=&quot;line-height: 100%;&quot;&gt;&lt;br&gt;&lt;/p&gt;" type="inport" name="in" id="H280dy-ToOup5UlUX61F-21">
                    <mxCell style="whiteSpace=wrap;html=1;aspect=fixed;snapToPoint=1;resizable=0;metaEdit=1;points=[[0,0.5,0,0,0]];editable=1;movable=0;rotatable=1;deletable=1;locked=0;connectable=1;noLabel=0;overflow=visible;direction=east;" vertex="1" parent="H280dy-ToOup5UlUX61F-20">
                        <mxGeometry x="-5" y="20" width="10" height="10" as="geometry"/>
                    </mxCell>
                </object>
                <object label="&lt;p style=&quot;line-height: 100%;&quot;&gt;&lt;br&gt;&lt;/p&gt;" type="outport" name="out" id="H280dy-ToOup5UlUX61F-22">
                    <mxCell style="whiteSpace=wrap;html=1;aspect=fixed;snapToPoint=1;resizable=0;metaEdit=1;points=[[1,0.5,0,0,0]];editable=1;movable=0;rotatable=1;deletable=1;locked=0;connectable=1;noLabel=0;overflow=visible;fillColor=#000000;" vertex="1" parent="H280dy-ToOup5UlUX61F-20">
                        <mxGeometry x="45" y="20" width="10" height="10" as="geometry"/>
                    </mxCell>
                </object>
                <object label="%name%" block="Outport" type="block" name="v_i" placeholders="1" id="H280dy-ToOup5UlUX61F-23">
                    <mxCell style="ellipse;whiteSpace=wrap;html=1;fontSize=11;points=[[0.02,0.5,0,0,0]];metaEdit=1;snapToPoint=0;resizable=0;rotatable=0;allowArrows=0;container=1;collapsible=0;spacingTop=-4;movable=1;connectable=0;" vertex="1" parent="1">
                        <mxGeometry x="236" y="256" width="50" height="30" as="geometry"/>
                    </mxCell>
                </object>
                <object label="&lt;p style=&quot;line-height: 100%;&quot;&gt;&lt;br&gt;&lt;/p&gt;" type="inport" name="in" id="H280dy-ToOup5UlUX61F-24">
                    <mxCell style="whiteSpace=wrap;html=1;aspect=fixed;snapToPoint=1;resizable=0;metaEdit=1;points=[[0,0.5,0,0,0]];editable=1;movable=0;rotatable=1;deletable=1;locked=0;connectable=1;noLabel=0;overflow=visible;direction=east;" vertex="1" parent="H280dy-ToOup5UlUX61F-23">
                        <mxGeometry x="-4" y="10" width="10" height="10" as="geometry"/>
                    </mxCell>
                </object>
                <mxCell id="H280dy-ToOup5UlUX61F-25" style="edgeStyle=orthogonalEdgeStyle;html=1;exitX=1;exitY=0.5;exitDx=0;exitDy=0;exitPerimeter=0;" edge="1" parent="1" source="H280dy-ToOup5UlUX61F-2" target="H280dy-ToOup5UlUX61F-21">
                    <mxGeometry relative="1" as="geometry"/>
                </mxCell>
                <mxCell id="H280dy-ToOup5UlUX61F-26" style="edgeStyle=orthogonalEdgeStyle;html=1;exitX=1;exitY=0.5;exitDx=0;exitDy=0;exitPerimeter=0;entryX=0;entryY=0.5;entryDx=0;entryDy=0;entryPerimeter=0;" edge="1" parent="1" source="H280dy-ToOup5UlUX61F-22" target="H280dy-ToOup5UlUX61F-24">
                    <mxGeometry relative="1" as="geometry"/>
                </mxCell>
            </root>
        </mxGraphModel>
    </diagram>
    <diagram id="XZVTWyTPcCPMVrhB6Onv" name="PlantModel">
        <mxGraphModel dx="1064" dy="331" grid="1" gridSize="2" guides="1" tooltips="1" connect="1" arrows="0" fold="1" page="0" pageScale="1" pageWidth="827" pageHeight="1169" math="0" shadow="0">
            <root>
                <mxCell id="0"/>
                <mxCell id="1" parent="0"/>
                <object label="%value%" block="Constant" value="Vs" type="block" name="" placeholders="1" id="C7zZ0ejdPpzs5SDrDHCA-1">
                    <mxCell style="whiteSpace=wrap;html=1;fontSize=11;points=[[1,0.5,0,0,0]];metaEdit=1;snapToPoint=0;resizable=0;rotatable=0;allowArrows=0;container=1;resizeWidth=0;connectable=0;collapsible=0;movable=1;" vertex="1" parent="1">
                        <mxGeometry x="-40" y="92" width="70" height="40" as="geometry"/>
                    </mxCell>
                </object>
                <object label="&lt;p style=&quot;line-height: 100%;&quot;&gt;&lt;br&gt;&lt;/p&gt;" type="outport" name="out" id="C7zZ0ejdPpzs5SDrDHCA-2">
                    <mxCell style="whiteSpace=wrap;html=1;aspect=fixed;snapToPoint=1;resizable=0;metaEdit=1;points=[[1,0.5,0,0,0]];editable=1;movable=0;rotatable=1;deletable=1;locked=0;connectable=1;noLabel=0;overflow=visible;fillColor=#000000;" vertex="1" parent="C7zZ0ejdPpzs5SDrDHCA-1">
                        <mxGeometry x="65.25" y="15" width="10" height="10" as="geometry"/>
                    </mxCell>
                </object>
                <object label="%name%" block="Inport" type="block" name="u_M" placeholders="1" id="C7zZ0ejdPpzs5SDrDHCA-3">
                    <mxCell style="ellipse;whiteSpace=wrap;html=1;fontSize=11;points=[[1,0.5,0,0,0]];metaEdit=1;snapToPoint=0;resizable=0;rotatable=0;allowArrows=0;container=1;collapsible=0;spacingTop=-5;movable=1;connectable=0;" vertex="1" parent="1">
                        <mxGeometry x="-28.000000000000114" y="172" width="50" height="30" as="geometry"/>
                    </mxCell>
                </object>
                <object label="&lt;p style=&quot;line-height: 100%;&quot;&gt;&lt;br&gt;&lt;/p&gt;" type="outport" name="out" id="C7zZ0ejdPpzs5SDrDHCA-4">
                    <mxCell style="whiteSpace=wrap;html=1;aspect=fixed;snapToPoint=1;resizable=0;metaEdit=1;points=[[1,0.5,0,0,0]];editable=1;movable=0;rotatable=1;deletable=1;locked=0;connectable=1;noLabel=0;overflow=visible;fillColor=#000000;" vertex="1" parent="C7zZ0ejdPpzs5SDrDHCA-3">
                        <mxGeometry x="45" y="10" width="10" height="10" as="geometry"/>
                    </mxCell>
                </object>
                <object label="%block%" block="MotorDriver" type="block" name="" placeholders="1" id="C7zZ0ejdPpzs5SDrDHCA-5">
                    <mxCell style="rounded=0;whiteSpace=wrap;html=1;fontSize=11;points=[[0,0.5,0,0,0],[1,0.5,0,0,0]];metaEdit=1;snapToPoint=0;resizable=1;rotatable=0;allowArrows=0;container=1;resizeHeight=0;connectable=0;collapsible=0;movable=1;" vertex="1" parent="1">
                        <mxGeometry x="92" y="120" width="90" height="60" as="geometry"/>
                    </mxCell>
                </object>
                <object label="&lt;p style=&quot;line-height: 100%;&quot;&gt;&lt;br&gt;&lt;/p&gt;" type="inport" name="Vs" id="C7zZ0ejdPpzs5SDrDHCA-6">
                    <mxCell style="whiteSpace=wrap;html=1;aspect=fixed;snapToPoint=1;resizable=0;metaEdit=1;points=[[0,0.5,0,0,0]];editable=1;movable=1;rotatable=1;deletable=1;locked=0;connectable=1;noLabel=0;overflow=visible;direction=east;" vertex="1" parent="C7zZ0ejdPpzs5SDrDHCA-5">
                        <mxGeometry x="-5.42857142857143" y="11" width="10" height="10" as="geometry"/>
                    </mxCell>
                </object>
                <object label="&lt;p style=&quot;line-height: 100%;&quot;&gt;&lt;br&gt;&lt;/p&gt;" type="outport" name="v_A" id="C7zZ0ejdPpzs5SDrDHCA-7">
                    <mxCell style="whiteSpace=wrap;html=1;aspect=fixed;snapToPoint=1;resizable=0;metaEdit=1;points=[[1,0.5,0,0,0]];editable=1;movable=1;rotatable=1;deletable=1;locked=0;connectable=1;noLabel=0;overflow=visible;fillColor=#000000;" vertex="1" parent="C7zZ0ejdPpzs5SDrDHCA-5">
                        <mxGeometry x="84.57142857142858" y="25" width="10" height="10" as="geometry"/>
                    </mxCell>
                </object>
                <object label="&lt;p style=&quot;line-height: 100%;&quot;&gt;&lt;br&gt;&lt;/p&gt;" type="inport" name="u_M" id="C7zZ0ejdPpzs5SDrDHCA-9">
                    <mxCell style="whiteSpace=wrap;html=1;aspect=fixed;snapToPoint=1;resizable=0;metaEdit=1;points=[[0,0.5,0,0,0]];editable=1;movable=1;rotatable=1;deletable=1;locked=0;connectable=1;noLabel=0;overflow=visible;direction=east;" vertex="1" parent="C7zZ0ejdPpzs5SDrDHCA-5">
                        <mxGeometry x="-5.000000000000114" y="30.000000000000057" width="10" height="10" as="geometry"/>
                    </mxCell>
                </object>
                <object label="&lt;p style=&quot;line-height: 100%;&quot;&gt;&lt;br&gt;&lt;/p&gt;" type="inport" name="i_M" id="C7zZ0ejdPpzs5SDrDHCA-8">
                    <mxCell style="whiteSpace=wrap;html=1;aspect=fixed;snapToPoint=1;resizable=0;metaEdit=1;points=[[0,0.5,0,0,0]];editable=1;movable=1;rotatable=1;deletable=1;locked=0;connectable=1;noLabel=0;overflow=visible;direction=east;" vertex="1" parent="C7zZ0ejdPpzs5SDrDHCA-5">
                        <mxGeometry x="-5.000000000000114" y="48.00000000000006" width="10" height="10" as="geometry"/>
                    </mxCell>
                </object>
                <object label="&lt;p style=&quot;line-height: 100%;&quot;&gt;&lt;br&gt;&lt;/p&gt;" type="outport" name="v_i" id="C7zZ0ejdPpzs5SDrDHCA-11">
                    <mxCell style="whiteSpace=wrap;html=1;aspect=fixed;snapToPoint=1;resizable=0;metaEdit=1;points=[[1,0.5,0,0,0]];editable=1;movable=1;rotatable=1;deletable=1;locked=0;connectable=1;noLabel=0;overflow=visible;fillColor=#000000;" vertex="1" parent="C7zZ0ejdPpzs5SDrDHCA-5">
                        <mxGeometry x="85.00000000000011" y="42.00000000000006" width="10" height="10" as="geometry"/>
                    </mxCell>
                </object>
                <object label="%block%" block="DCMotorDisk" type="block" name="" placeholders="1" id="C7zZ0ejdPpzs5SDrDHCA-13">
                    <mxCell style="rounded=0;whiteSpace=wrap;html=1;fontSize=11;points=[[0,0.5,0,0,0],[1,0.5,0,0,0]];metaEdit=1;snapToPoint=0;resizable=1;rotatable=0;allowArrows=0;container=1;resizeHeight=0;connectable=0;collapsible=0;movable=1;" vertex="1" parent="1">
                        <mxGeometry x="224" y="100" width="90.00000000000011" height="60" as="geometry"/>
                    </mxCell>
                </object>
                <object label="&lt;p style=&quot;line-height: 100%;&quot;&gt;&lt;br&gt;&lt;/p&gt;" type="inport" name="v_M" id="C7zZ0ejdPpzs5SDrDHCA-16">
                    <mxCell style="whiteSpace=wrap;html=1;aspect=fixed;snapToPoint=1;resizable=0;metaEdit=1;points=[[0,0.5,0,0,0]];editable=1;movable=1;rotatable=1;deletable=1;locked=0;connectable=1;noLabel=0;overflow=visible;direction=east;" vertex="1" parent="C7zZ0ejdPpzs5SDrDHCA-13">
                        <mxGeometry x="-5.000000000000114" y="24.000000000000057" width="10" height="10" as="geometry"/>
                    </mxCell>
                </object>
                <object label="&lt;p style=&quot;line-height: 100%;&quot;&gt;&lt;br&gt;&lt;/p&gt;" type="outport" name="omega" id="C7zZ0ejdPpzs5SDrDHCA-17">
                    <mxCell style="whiteSpace=wrap;html=1;aspect=fixed;snapToPoint=1;resizable=0;metaEdit=1;points=[[1,0.5,0,0,0]];editable=1;movable=1;rotatable=1;deletable=1;locked=0;connectable=1;noLabel=0;overflow=visible;fillColor=#000000;" vertex="1" parent="C7zZ0ejdPpzs5SDrDHCA-13">
                        <mxGeometry x="85.00000000000011" y="8.000000000000057" width="10" height="10" as="geometry"/>
                    </mxCell>
                </object>
                <object label="&lt;p style=&quot;line-height: 100%;&quot;&gt;&lt;br&gt;&lt;/p&gt;" type="outport" name="i_M" id="C7zZ0ejdPpzs5SDrDHCA-18">
                    <mxCell style="whiteSpace=wrap;html=1;aspect=fixed;snapToPoint=1;resizable=0;metaEdit=1;points=[[1,0.5,0,0,0]];editable=1;movable=1;rotatable=1;deletable=1;locked=0;connectable=1;noLabel=0;overflow=visible;fillColor=#000000;" vertex="1" parent="C7zZ0ejdPpzs5SDrDHCA-13">
                        <mxGeometry x="86.00000000000011" y="42.00000000000006" width="10" height="10" as="geometry"/>
                    </mxCell>
                </object>
                <object label="%block%" block="Tachogenerator" type="block" name="" placeholders="1" id="C7zZ0ejdPpzs5SDrDHCA-19">
                    <mxCell style="rounded=0;whiteSpace=wrap;html=1;fontSize=11;points=[[0,0.5,0,0,0],[1,0.5,0,0,0]];metaEdit=1;snapToPoint=0;resizable=1;rotatable=0;allowArrows=0;container=1;resizeHeight=0;connectable=0;collapsible=0;movable=1;" vertex="1" parent="1">
                        <mxGeometry x="364" y="86" width="90" height="60" as="geometry"/>
                    </mxCell>
                </object>
                <object label="&lt;p style=&quot;line-height: 100%;&quot;&gt;&lt;br&gt;&lt;/p&gt;" type="inport" name="omega" id="C7zZ0ejdPpzs5SDrDHCA-22">
                    <mxCell style="whiteSpace=wrap;html=1;aspect=fixed;snapToPoint=1;resizable=0;metaEdit=1;points=[[0,0.5,0,0,0]];editable=1;movable=1;rotatable=1;deletable=1;locked=0;connectable=1;noLabel=0;overflow=visible;direction=east;" vertex="1" parent="C7zZ0ejdPpzs5SDrDHCA-19">
                        <mxGeometry x="-5.000000000000114" y="22.000000000000057" width="10" height="10" as="geometry"/>
                    </mxCell>
                </object>
                <object label="&lt;p style=&quot;line-height: 100%;&quot;&gt;&lt;br&gt;&lt;/p&gt;" type="outport" name="v_N" id="C7zZ0ejdPpzs5SDrDHCA-23">
                    <mxCell style="whiteSpace=wrap;html=1;aspect=fixed;snapToPoint=1;resizable=0;metaEdit=1;points=[[1,0.5,0,0,0]];editable=1;movable=1;rotatable=1;deletable=1;locked=0;connectable=1;noLabel=0;overflow=visible;fillColor=#000000;" vertex="1" parent="C7zZ0ejdPpzs5SDrDHCA-19">
                        <mxGeometry x="86.00000000000011" y="25.000000000000057" width="10" height="10" as="geometry"/>
                    </mxCell>
                </object>
                <object label="%name%" block="Outport" type="block" name="v_N" placeholders="1" id="C7zZ0ejdPpzs5SDrDHCA-25">
                    <mxCell style="ellipse;whiteSpace=wrap;html=1;fontSize=11;points=[[0.02,0.5,0,0,0]];metaEdit=1;snapToPoint=0;resizable=0;rotatable=0;allowArrows=0;container=1;collapsible=0;spacingTop=-4;movable=1;connectable=0;" vertex="1" parent="1">
                        <mxGeometry x="484" y="97" width="50" height="30" as="geometry"/>
                    </mxCell>
                </object>
                <object label="&lt;p style=&quot;line-height: 100%;&quot;&gt;&lt;br&gt;&lt;/p&gt;" type="inport" name="in" id="C7zZ0ejdPpzs5SDrDHCA-26">
                    <mxCell style="whiteSpace=wrap;html=1;aspect=fixed;snapToPoint=1;resizable=0;metaEdit=1;points=[[0,0.5,0,0,0]];editable=1;movable=0;rotatable=1;deletable=1;locked=0;connectable=1;noLabel=0;overflow=visible;direction=east;" vertex="1" parent="C7zZ0ejdPpzs5SDrDHCA-25">
                        <mxGeometry x="-4" y="10" width="10" height="10" as="geometry"/>
                    </mxCell>
                </object>
                <object label="%name%" block="Outport" type="block" name="v_i" placeholders="1" id="C7zZ0ejdPpzs5SDrDHCA-27">
                    <mxCell style="ellipse;whiteSpace=wrap;html=1;fontSize=11;points=[[0.02,0.5,0,0,0]];metaEdit=1;snapToPoint=0;resizable=0;rotatable=0;allowArrows=0;container=1;collapsible=0;spacingTop=-4;movable=1;connectable=0;" vertex="1" parent="1">
                        <mxGeometry x="490" y="186" width="50" height="30" as="geometry"/>
                    </mxCell>
                </object>
                <object label="&lt;p style=&quot;line-height: 100%;&quot;&gt;&lt;br&gt;&lt;/p&gt;" type="inport" name="in" id="C7zZ0ejdPpzs5SDrDHCA-28">
                    <mxCell style="whiteSpace=wrap;html=1;aspect=fixed;snapToPoint=1;resizable=0;metaEdit=1;points=[[0,0.5,0,0,0]];editable=1;movable=0;rotatable=1;deletable=1;locked=0;connectable=1;noLabel=0;overflow=visible;direction=east;" vertex="1" parent="C7zZ0ejdPpzs5SDrDHCA-27">
                        <mxGeometry x="-4" y="10" width="10" height="10" as="geometry"/>
                    </mxCell>
                </object>
                <mxCell id="C7zZ0ejdPpzs5SDrDHCA-29" style="edgeStyle=orthogonalEdgeStyle;html=1;exitX=1;exitY=0.5;exitDx=0;exitDy=0;exitPerimeter=0;entryX=0;entryY=0.5;entryDx=0;entryDy=0;entryPerimeter=0;" edge="1" parent="1" source="C7zZ0ejdPpzs5SDrDHCA-2" target="C7zZ0ejdPpzs5SDrDHCA-6">
                    <mxGeometry relative="1" as="geometry"/>
                </mxCell>
                <mxCell id="C7zZ0ejdPpzs5SDrDHCA-30" style="edgeStyle=orthogonalEdgeStyle;html=1;exitX=1;exitY=0.5;exitDx=0;exitDy=0;exitPerimeter=0;entryX=0;entryY=0.5;entryDx=0;entryDy=0;entryPerimeter=0;" edge="1" parent="1" source="C7zZ0ejdPpzs5SDrDHCA-4" target="C7zZ0ejdPpzs5SDrDHCA-9">
                    <mxGeometry relative="1" as="geometry"/>
                </mxCell>
                <mxCell id="C7zZ0ejdPpzs5SDrDHCA-31" style="edgeStyle=orthogonalEdgeStyle;html=1;exitX=1;exitY=0.5;exitDx=0;exitDy=0;exitPerimeter=0;entryX=0;entryY=0.5;entryDx=0;entryDy=0;entryPerimeter=0;" edge="1" parent="1" source="C7zZ0ejdPpzs5SDrDHCA-7" target="C7zZ0ejdPpzs5SDrDHCA-16">
                    <mxGeometry relative="1" as="geometry">
                        <mxPoint x="208" y="140" as="targetPoint"/>
                    </mxGeometry>
                </mxCell>
                <mxCell id="C7zZ0ejdPpzs5SDrDHCA-32" style="edgeStyle=orthogonalEdgeStyle;html=1;exitX=1;exitY=0.5;exitDx=0;exitDy=0;exitPerimeter=0;entryX=0;entryY=0.5;entryDx=0;entryDy=0;entryPerimeter=0;" edge="1" parent="1" source="C7zZ0ejdPpzs5SDrDHCA-17" target="C7zZ0ejdPpzs5SDrDHCA-22">
                    <mxGeometry relative="1" as="geometry"/>
                </mxCell>
                <mxCell id="C7zZ0ejdPpzs5SDrDHCA-34" style="edgeStyle=orthogonalEdgeStyle;html=1;exitX=1;exitY=0.5;exitDx=0;exitDy=0;exitPerimeter=0;entryX=0;entryY=0.5;entryDx=0;entryDy=0;entryPerimeter=0;" edge="1" parent="1" source="C7zZ0ejdPpzs5SDrDHCA-23" target="C7zZ0ejdPpzs5SDrDHCA-26">
                    <mxGeometry relative="1" as="geometry"/>
                </mxCell>
                <mxCell id="C7zZ0ejdPpzs5SDrDHCA-35" style="edgeStyle=orthogonalEdgeStyle;html=1;exitX=1;exitY=0.5;exitDx=0;exitDy=0;exitPerimeter=0;entryX=0;entryY=0.5;entryDx=0;entryDy=0;entryPerimeter=0;" edge="1" parent="1" source="C7zZ0ejdPpzs5SDrDHCA-11" target="C7zZ0ejdPpzs5SDrDHCA-28">
                    <mxGeometry relative="1" as="geometry"/>
                </mxCell>
                <mxCell id="C7zZ0ejdPpzs5SDrDHCA-36" style="edgeStyle=orthogonalEdgeStyle;html=1;exitX=1;exitY=0.5;exitDx=0;exitDy=0;exitPerimeter=0;entryX=0;entryY=0.5;entryDx=0;entryDy=0;entryPerimeter=0;" edge="1" parent="1" source="C7zZ0ejdPpzs5SDrDHCA-18" target="C7zZ0ejdPpzs5SDrDHCA-8">
                    <mxGeometry relative="1" as="geometry">
                        <Array as="points">
                            <mxPoint x="330" y="147"/>
                            <mxPoint x="330" y="248"/>
                            <mxPoint x="77" y="248"/>
                            <mxPoint x="77" y="173"/>
                        </Array>
                    </mxGeometry>
                </mxCell>
            </root>
        </mxGraphModel>
    </diagram>
    <diagram id="4bR3j9a77TubtkRJvVrd" name="ADConverter">
        <mxGraphModel dx="1064" dy="331" grid="1" gridSize="2" guides="1" tooltips="1" connect="1" arrows="1" fold="1" page="0" pageScale="1" pageWidth="827" pageHeight="1169" math="0" shadow="0">
            <root>
                <mxCell id="0"/>
                <mxCell id="1" parent="0"/>
                <object label="%name%" block="Inport" type="block" name="v_A" placeholders="1" id="76V6u-i-tu0U1GrjRFSD-1">
                    <mxCell style="ellipse;whiteSpace=wrap;html=1;fontSize=11;points=[[1,0.5,0,0,0]];metaEdit=1;snapToPoint=0;resizable=0;rotatable=0;allowArrows=0;container=1;collapsible=0;spacingTop=-5;movable=1;connectable=0;" vertex="1" parent="1">
                        <mxGeometry x="-42.000000000000114" y="148" width="50" height="30" as="geometry"/>
                    </mxCell>
                </object>
                <object label="&lt;p style=&quot;line-height: 100%;&quot;&gt;&lt;br&gt;&lt;/p&gt;" type="outport" name="out" id="76V6u-i-tu0U1GrjRFSD-2">
                    <mxCell style="whiteSpace=wrap;html=1;aspect=fixed;snapToPoint=1;resizable=0;metaEdit=1;points=[[1,0.5,0,0,0]];editable=1;movable=0;rotatable=1;deletable=1;locked=0;connectable=1;noLabel=0;overflow=visible;fillColor=#000000;" vertex="1" parent="76V6u-i-tu0U1GrjRFSD-1">
                        <mxGeometry x="45" y="10" width="10" height="10" as="geometry"/>
                    </mxCell>
                </object>
                <object label="Saturation" block="Saturation" upperlimit="V_A_max" lowerlimit="V_A_min" type="block" name="" id="76V6u-i-tu0U1GrjRFSD-3">
                    <mxCell style="rounded=0;whiteSpace=wrap;html=1;fontSize=11;points=[[0,0.5,0,0,0],[1,0.5,0,0,0]];metaEdit=1;snapToPoint=0;resizable=0;rotatable=0;allowArrows=0;container=1;connectable=0;collapsible=0;movable=1;" vertex="1" parent="1">
                        <mxGeometry x="46" y="142" width="70" height="40" as="geometry"/>
                    </mxCell>
                </object>
                <object label="&lt;p style=&quot;line-height: 100%;&quot;&gt;&lt;br&gt;&lt;/p&gt;" type="inport" name="in" id="76V6u-i-tu0U1GrjRFSD-4">
                    <mxCell style="whiteSpace=wrap;html=1;aspect=fixed;snapToPoint=1;resizable=0;metaEdit=1;points=[[0,0.5,0,0,0]];editable=1;movable=0;rotatable=1;deletable=1;locked=0;connectable=1;noLabel=0;overflow=visible;direction=east;" vertex="1" parent="76V6u-i-tu0U1GrjRFSD-3">
                        <mxGeometry x="-5" y="15" width="10" height="10" as="geometry"/>
                    </mxCell>
                </object>
                <object label="&lt;p style=&quot;line-height: 100%;&quot;&gt;&lt;br&gt;&lt;/p&gt;" type="outport" name="out" id="76V6u-i-tu0U1GrjRFSD-5">
                    <mxCell style="whiteSpace=wrap;html=1;aspect=fixed;snapToPoint=1;resizable=0;metaEdit=1;points=[[1,0.5,0,0,0]];editable=1;movable=0;rotatable=1;deletable=1;locked=0;connectable=1;noLabel=0;overflow=visible;fillColor=#000000;" vertex="1" parent="76V6u-i-tu0U1GrjRFSD-3">
                        <mxGeometry x="65" y="15" width="10" height="10" as="geometry"/>
                    </mxCell>
                </object>
                <object label="%signs%" block="Add" signs="[:+, :-]" type="block" name="" placeholders="1" id="76V6u-i-tu0U1GrjRFSD-6">
                    <mxCell style="rounded=0;whiteSpace=wrap;html=1;fontSize=11;points=[[0,0.24,0,0,0],[0,0.76,0,0,0],[1,0.5,0,0,0]];metaEdit=1;snapToPoint=0;allowArrows=0;resizable=0;container=1;collapsible=0;movable=1;connectable=0;" vertex="1" parent="1">
                        <mxGeometry x="164" y="144" width="40" height="80" as="geometry"/>
                    </mxCell>
                </object>
                <object label="&lt;p style=&quot;line-height: 100%;&quot;&gt;&lt;br&gt;&lt;/p&gt;" type="outport" name="out" id="76V6u-i-tu0U1GrjRFSD-7">
                    <mxCell style="whiteSpace=wrap;html=1;aspect=fixed;snapToPoint=1;resizable=0;metaEdit=1;points=[[1,0.5,0,0,0]];editable=1;movable=0;rotatable=1;deletable=1;locked=0;connectable=1;noLabel=0;overflow=visible;fillColor=#000000;" vertex="1" parent="76V6u-i-tu0U1GrjRFSD-6">
                        <mxGeometry x="35" y="34.285714285714285" width="10" height="10" as="geometry"/>
                    </mxCell>
                </object>
                <object label="&lt;p style=&quot;line-height: 100%;&quot;&gt;&lt;br&gt;&lt;/p&gt;" type="inport" name="in1" id="76V6u-i-tu0U1GrjRFSD-8">
                    <mxCell style="whiteSpace=wrap;html=1;aspect=fixed;snapToPoint=1;resizable=0;metaEdit=1;points=[[0,0.5,0,0,0]];editable=1;movable=0;rotatable=1;deletable=1;locked=0;connectable=1;noLabel=0;overflow=visible;direction=east;" vertex="1" parent="76V6u-i-tu0U1GrjRFSD-6">
                        <mxGeometry x="-5" y="9" width="10" height="10" as="geometry"/>
                    </mxCell>
                </object>
                <object label="&lt;p style=&quot;line-height: 100%;&quot;&gt;&lt;br&gt;&lt;/p&gt;" type="inport" name="in2" id="76V6u-i-tu0U1GrjRFSD-9">
                    <mxCell style="whiteSpace=wrap;html=1;aspect=fixed;snapToPoint=1;resizable=0;metaEdit=1;points=[[0,0.5,0,0,0]];editable=1;movable=0;rotatable=1;deletable=1;locked=0;connectable=1;noLabel=0;overflow=visible;direction=east;" vertex="1" parent="76V6u-i-tu0U1GrjRFSD-6">
                        <mxGeometry x="-5" y="26" width="10" height="10" as="geometry"/>
                    </mxCell>
                </object>
                <object label="%value%" block="Constant" value="V_A_min" type="block" name="" placeholders="1" id="76V6u-i-tu0U1GrjRFSD-12">
                    <mxCell style="whiteSpace=wrap;html=1;fontSize=11;points=[[1,0.5,0,0,0]];metaEdit=1;snapToPoint=0;resizable=0;rotatable=0;allowArrows=0;container=1;resizeWidth=0;connectable=0;collapsible=0;movable=1;" vertex="1" parent="1">
                        <mxGeometry x="54" y="236" width="70" height="40" as="geometry"/>
                    </mxCell>
                </object>
                <object label="&lt;p style=&quot;line-height: 100%;&quot;&gt;&lt;br&gt;&lt;/p&gt;" type="outport" name="out" id="76V6u-i-tu0U1GrjRFSD-13">
                    <mxCell style="whiteSpace=wrap;html=1;aspect=fixed;snapToPoint=1;resizable=0;metaEdit=1;points=[[1,0.5,0,0,0]];editable=1;movable=0;rotatable=1;deletable=1;locked=0;connectable=1;noLabel=0;overflow=visible;fillColor=#000000;" vertex="1" parent="76V6u-i-tu0U1GrjRFSD-12">
                        <mxGeometry x="65.25" y="15" width="10" height="10" as="geometry"/>
                    </mxCell>
                </object>
                <object label="%K%" block="Gain" K="alpha_A" type="block" name="" placeholders="1" id="76V6u-i-tu0U1GrjRFSD-14">
                    <mxCell style="triangle;html=1;points=[[0,0.5,0,0,0],[1,0.5,0,0,0]];whiteSpace=wrap;fontSize=11;align=center;spacingLeft=-7;metaEdit=1;snapToPoint=0;allowArrows=0;resizable=0;rotatable=0;container=1;collapsible=0;movable=1;connectable=0;movableLabel=1;" vertex="1" parent="1">
                        <mxGeometry x="248" y="159" width="50" height="50" as="geometry">
                            <mxPoint y="55" as="offset"/>
                        </mxGeometry>
                    </mxCell>
                </object>
                <object label="&lt;p style=&quot;line-height: 100%;&quot;&gt;&lt;br&gt;&lt;/p&gt;" type="inport" name="in" id="76V6u-i-tu0U1GrjRFSD-15">
                    <mxCell style="whiteSpace=wrap;html=1;aspect=fixed;snapToPoint=1;resizable=0;metaEdit=1;points=[[0,0.5,0,0,0]];editable=1;movable=0;rotatable=1;deletable=1;locked=0;connectable=1;noLabel=0;overflow=visible;direction=east;" vertex="1" parent="76V6u-i-tu0U1GrjRFSD-14">
                        <mxGeometry x="-5" y="20" width="10" height="10" as="geometry"/>
                    </mxCell>
                </object>
                <object label="&lt;p style=&quot;line-height: 100%;&quot;&gt;&lt;br&gt;&lt;/p&gt;" type="outport" name="out" id="76V6u-i-tu0U1GrjRFSD-16">
                    <mxCell style="whiteSpace=wrap;html=1;aspect=fixed;snapToPoint=1;resizable=0;metaEdit=1;points=[[1,0.5,0,0,0]];editable=1;movable=0;rotatable=1;deletable=1;locked=0;connectable=1;noLabel=0;overflow=visible;fillColor=#000000;" vertex="1" parent="76V6u-i-tu0U1GrjRFSD-14">
                        <mxGeometry x="45" y="20" width="10" height="10" as="geometry"/>
                    </mxCell>
                </object>
                <object label="Quantizer" qinterval="1" block="Quantizer" type="block" name="" id="76V6u-i-tu0U1GrjRFSD-17">
                    <mxCell style="rounded=0;whiteSpace=wrap;html=1;fontSize=11;points=[[0,0.5,0,0,0],[1,0.5,0,0,0]];metaEdit=1;snapToPoint=0;resizable=0;rotatable=0;allowArrows=0;container=1;connectable=0;flipH=0;collapsible=0;movable=1;" vertex="1" parent="1">
                        <mxGeometry x="340" y="164" width="75" height="40" as="geometry"/>
                    </mxCell>
                </object>
                <object label="&lt;p style=&quot;line-height: 100%;&quot;&gt;&lt;br&gt;&lt;/p&gt;" type="inport" name="in" id="76V6u-i-tu0U1GrjRFSD-18">
                    <mxCell style="whiteSpace=wrap;html=1;aspect=fixed;snapToPoint=1;resizable=0;metaEdit=1;points=[[0,0.5,0,0,0]];editable=1;movable=0;rotatable=1;deletable=1;locked=0;connectable=1;noLabel=0;overflow=visible;allowArrows=1;" vertex="1" parent="76V6u-i-tu0U1GrjRFSD-17">
                        <mxGeometry x="-5" y="15" width="10" height="10" as="geometry"/>
                    </mxCell>
                </object>
                <object label="&lt;p style=&quot;line-height: 100%;&quot;&gt;&lt;br&gt;&lt;/p&gt;" type="outport" name="out" id="76V6u-i-tu0U1GrjRFSD-19">
                    <mxCell style="whiteSpace=wrap;html=1;aspect=fixed;snapToPoint=1;resizable=0;metaEdit=1;points=[[1,0.5,0,0,0]];editable=1;movable=0;rotatable=1;deletable=1;locked=0;connectable=1;noLabel=0;overflow=visible;fillColor=#000000;" vertex="1" parent="76V6u-i-tu0U1GrjRFSD-17">
                        <mxGeometry x="70" y="15" width="10" height="10" as="geometry"/>
                    </mxCell>
                </object>
                <object label="%name%" block="Outport" type="block" name="d_A" placeholders="1" id="76V6u-i-tu0U1GrjRFSD-20">
                    <mxCell style="ellipse;whiteSpace=wrap;html=1;fontSize=11;points=[[0.02,0.5,0,0,0]];metaEdit=1;snapToPoint=0;resizable=0;rotatable=0;allowArrows=0;container=1;collapsible=0;spacingTop=-4;movable=1;connectable=0;" vertex="1" parent="1">
                        <mxGeometry x="460" y="166" width="50" height="30" as="geometry"/>
                    </mxCell>
                </object>
                <object label="&lt;p style=&quot;line-height: 100%;&quot;&gt;&lt;br&gt;&lt;/p&gt;" type="inport" name="in" id="76V6u-i-tu0U1GrjRFSD-21">
                    <mxCell style="whiteSpace=wrap;html=1;aspect=fixed;snapToPoint=1;resizable=0;metaEdit=1;points=[[0,0.5,0,0,0]];editable=1;movable=0;rotatable=1;deletable=1;locked=0;connectable=1;noLabel=0;overflow=visible;direction=east;" vertex="1" parent="76V6u-i-tu0U1GrjRFSD-20">
                        <mxGeometry x="-4" y="10" width="10" height="10" as="geometry"/>
                    </mxCell>
                </object>
                <mxCell id="76V6u-i-tu0U1GrjRFSD-22" style="edgeStyle=orthogonalEdgeStyle;html=1;exitX=1;exitY=0.5;exitDx=0;exitDy=0;exitPerimeter=0;entryX=0;entryY=0.5;entryDx=0;entryDy=0;entryPerimeter=0;" edge="1" parent="1" source="76V6u-i-tu0U1GrjRFSD-2" target="76V6u-i-tu0U1GrjRFSD-4">
                    <mxGeometry relative="1" as="geometry"/>
                </mxCell>
                <mxCell id="76V6u-i-tu0U1GrjRFSD-23" style="edgeStyle=orthogonalEdgeStyle;html=1;exitX=1;exitY=0.5;exitDx=0;exitDy=0;exitPerimeter=0;entryX=0;entryY=0.5;entryDx=0;entryDy=0;entryPerimeter=0;" edge="1" parent="1" source="76V6u-i-tu0U1GrjRFSD-5" target="76V6u-i-tu0U1GrjRFSD-8">
                    <mxGeometry relative="1" as="geometry"/>
                </mxCell>
                <mxCell id="76V6u-i-tu0U1GrjRFSD-24" style="edgeStyle=orthogonalEdgeStyle;html=1;exitX=1;exitY=0.5;exitDx=0;exitDy=0;exitPerimeter=0;entryX=0;entryY=0.5;entryDx=0;entryDy=0;entryPerimeter=0;" edge="1" parent="1" source="76V6u-i-tu0U1GrjRFSD-13" target="76V6u-i-tu0U1GrjRFSD-9">
                    <mxGeometry relative="1" as="geometry"/>
                </mxCell>
                <mxCell id="76V6u-i-tu0U1GrjRFSD-25" style="edgeStyle=orthogonalEdgeStyle;html=1;exitX=1;exitY=0.5;exitDx=0;exitDy=0;exitPerimeter=0;entryX=0;entryY=0.5;entryDx=0;entryDy=0;entryPerimeter=0;" edge="1" parent="1" source="76V6u-i-tu0U1GrjRFSD-7" target="76V6u-i-tu0U1GrjRFSD-15">
                    <mxGeometry relative="1" as="geometry"/>
                </mxCell>
                <mxCell id="76V6u-i-tu0U1GrjRFSD-26" style="edgeStyle=orthogonalEdgeStyle;html=1;exitX=1;exitY=0.5;exitDx=0;exitDy=0;exitPerimeter=0;entryX=0;entryY=0.5;entryDx=0;entryDy=0;entryPerimeter=0;" edge="1" parent="1" source="76V6u-i-tu0U1GrjRFSD-16" target="76V6u-i-tu0U1GrjRFSD-18">
                    <mxGeometry relative="1" as="geometry"/>
                </mxCell>
                <mxCell id="76V6u-i-tu0U1GrjRFSD-27" style="edgeStyle=orthogonalEdgeStyle;html=1;exitX=1;exitY=0.5;exitDx=0;exitDy=0;exitPerimeter=0;entryX=0;entryY=0.5;entryDx=0;entryDy=0;entryPerimeter=0;" edge="1" parent="1" source="76V6u-i-tu0U1GrjRFSD-19" target="76V6u-i-tu0U1GrjRFSD-21">
                    <mxGeometry relative="1" as="geometry"/>
                </mxCell>
            </root>
        </mxGraphModel>
    </diagram>
    <diagram id="0BsnKrismJ7VlB3kw1RH" name="PulseGenerator">
        <mxGraphModel dx="1064" dy="331" grid="1" gridSize="2" guides="1" tooltips="1" connect="1" arrows="1" fold="1" page="0" pageScale="1" pageWidth="827" pageHeight="1169" math="0" shadow="0">
            <root>
                <mxCell id="0"/>
                <mxCell id="1" parent="0"/>
                <object label="%name%" block="Inport" type="block" name="d_P" placeholders="1" id="OnZczfawtuSLeFZFDQxz-1">
                    <mxCell style="ellipse;whiteSpace=wrap;html=1;fontSize=11;points=[[1,0.5,0,0,0]];metaEdit=1;snapToPoint=0;resizable=0;rotatable=0;allowArrows=0;container=1;collapsible=0;spacingTop=-5;movable=1;connectable=0;" vertex="1" parent="1">
                        <mxGeometry x="-54.000000000000114" y="122" width="50" height="30" as="geometry"/>
                    </mxCell>
                </object>
                <object label="&lt;p style=&quot;line-height: 100%;&quot;&gt;&lt;br&gt;&lt;/p&gt;" type="outport" name="out" id="OnZczfawtuSLeFZFDQxz-2">
                    <mxCell style="whiteSpace=wrap;html=1;aspect=fixed;snapToPoint=1;resizable=0;metaEdit=1;points=[[1,0.5,0,0,0]];editable=1;movable=0;rotatable=1;deletable=1;locked=0;connectable=1;noLabel=0;overflow=visible;fillColor=#000000;" vertex="1" parent="OnZczfawtuSLeFZFDQxz-1">
                        <mxGeometry x="45" y="10" width="10" height="10" as="geometry"/>
                    </mxCell>
                </object>
                <object label="Quantizer" qinterval="1" block="Quantizer" type="block" name="" id="OnZczfawtuSLeFZFDQxz-3">
                    <mxCell style="rounded=0;whiteSpace=wrap;html=1;fontSize=11;points=[[0,0.5,0,0,0],[1,0.5,0,0,0]];metaEdit=1;snapToPoint=0;resizable=0;rotatable=0;allowArrows=0;container=1;connectable=0;flipH=0;collapsible=0;movable=1;" vertex="1" parent="1">
                        <mxGeometry x="50" y="116" width="75" height="40" as="geometry"/>
                    </mxCell>
                </object>
                <object label="&lt;p style=&quot;line-height: 100%;&quot;&gt;&lt;br&gt;&lt;/p&gt;" type="inport" name="in" id="OnZczfawtuSLeFZFDQxz-4">
                    <mxCell style="whiteSpace=wrap;html=1;aspect=fixed;snapToPoint=1;resizable=0;metaEdit=1;points=[[0,0.5,0,0,0]];editable=1;movable=0;rotatable=1;deletable=1;locked=0;connectable=1;noLabel=0;overflow=visible;allowArrows=1;" vertex="1" parent="OnZczfawtuSLeFZFDQxz-3">
                        <mxGeometry x="-5" y="15" width="10" height="10" as="geometry"/>
                    </mxCell>
                </object>
                <object label="&lt;p style=&quot;line-height: 100%;&quot;&gt;&lt;br&gt;&lt;/p&gt;" type="outport" name="out" id="OnZczfawtuSLeFZFDQxz-5">
                    <mxCell style="whiteSpace=wrap;html=1;aspect=fixed;snapToPoint=1;resizable=0;metaEdit=1;points=[[1,0.5,0,0,0]];editable=1;movable=0;rotatable=1;deletable=1;locked=0;connectable=1;noLabel=0;overflow=visible;fillColor=#000000;" vertex="1" parent="OnZczfawtuSLeFZFDQxz-3">
                        <mxGeometry x="70" y="15" width="10" height="10" as="geometry"/>
                    </mxCell>
                </object>
                <object label="Mod" block="Mod" type="block" name="" id="OnZczfawtuSLeFZFDQxz-6">
                    <mxCell style="whiteSpace=wrap;html=1;aspect=fixed;fontSize=11;points=[[0,0.25,0,0,0],[0,0.75,0,0,0],[1,0.5,0,0,0]];metaEdit=1;snapToPoint=0;resizable=0;rotatable=0;allowArrows=0;container=1;collapsible=0;movable=1;connectable=0;" vertex="1" parent="1">
                        <mxGeometry x="158" y="164" width="40" height="40" as="geometry"/>
                    </mxCell>
                </object>
                <object label="&lt;p style=&quot;line-height: 100%;&quot;&gt;&lt;br&gt;&lt;/p&gt;" type="outport" name="out" id="OnZczfawtuSLeFZFDQxz-7">
                    <mxCell style="whiteSpace=wrap;html=1;aspect=fixed;snapToPoint=1;resizable=0;metaEdit=1;points=[[1,0.5,0,0,0]];editable=1;movable=0;rotatable=1;deletable=1;locked=0;connectable=1;noLabel=0;overflow=visible;fillColor=#000000;" vertex="1" parent="OnZczfawtuSLeFZFDQxz-6">
                        <mxGeometry x="35" y="15" width="10" height="10" as="geometry"/>
                    </mxCell>
                </object>
                <object label="&lt;p style=&quot;line-height: 100%;&quot;&gt;&lt;br&gt;&lt;/p&gt;" type="inport" name="in1" id="OnZczfawtuSLeFZFDQxz-8">
                    <mxCell style="whiteSpace=wrap;html=1;aspect=fixed;snapToPoint=1;resizable=0;metaEdit=1;points=[[0,0.5,0,0,0]];editable=1;movable=0;rotatable=1;deletable=1;locked=0;connectable=1;noLabel=0;overflow=visible;direction=east;" vertex="1" parent="OnZczfawtuSLeFZFDQxz-6">
                        <mxGeometry x="-5" y="5" width="10" height="10" as="geometry"/>
                    </mxCell>
                </object>
                <object label="&lt;p style=&quot;line-height: 100%;&quot;&gt;&lt;br&gt;&lt;/p&gt;" type="inport" name="in2" id="OnZczfawtuSLeFZFDQxz-9">
                    <mxCell style="whiteSpace=wrap;html=1;aspect=fixed;snapToPoint=1;resizable=0;metaEdit=1;points=[[0,0.5,0,0,0]];editable=1;movable=0;rotatable=1;deletable=1;locked=0;connectable=1;noLabel=0;overflow=visible;direction=east;" vertex="1" parent="OnZczfawtuSLeFZFDQxz-6">
                        <mxGeometry x="-5" y="25" width="10" height="10" as="geometry"/>
                    </mxCell>
                </object>
                <object label="%K%" block="Gain" K="alpha_P" type="block" name="" placeholders="1" id="OnZczfawtuSLeFZFDQxz-10">
                    <mxCell style="triangle;html=1;points=[[0,0.5,0,0,0],[1,0.5,0,0,0]];whiteSpace=wrap;fontSize=11;align=center;spacingLeft=-7;metaEdit=1;snapToPoint=0;allowArrows=0;resizable=0;rotatable=0;container=1;collapsible=0;movable=1;connectable=0;movableLabel=1;" vertex="1" parent="1">
                        <mxGeometry x="222" y="159" width="50" height="50" as="geometry">
                            <mxPoint x="1" y="43" as="offset"/>
                        </mxGeometry>
                    </mxCell>
                </object>
                <object label="&lt;p style=&quot;line-height: 100%;&quot;&gt;&lt;br&gt;&lt;/p&gt;" type="inport" name="in" id="OnZczfawtuSLeFZFDQxz-11">
                    <mxCell style="whiteSpace=wrap;html=1;aspect=fixed;snapToPoint=1;resizable=0;metaEdit=1;points=[[0,0.5,0,0,0]];editable=1;movable=0;rotatable=1;deletable=1;locked=0;connectable=1;noLabel=0;overflow=visible;direction=east;" vertex="1" parent="OnZczfawtuSLeFZFDQxz-10">
                        <mxGeometry x="-5" y="20" width="10" height="10" as="geometry"/>
                    </mxCell>
                </object>
                <object label="&lt;p style=&quot;line-height: 100%;&quot;&gt;&lt;br&gt;&lt;/p&gt;" type="outport" name="out" id="OnZczfawtuSLeFZFDQxz-12">
                    <mxCell style="whiteSpace=wrap;html=1;aspect=fixed;snapToPoint=1;resizable=0;metaEdit=1;points=[[1,0.5,0,0,0]];editable=1;movable=0;rotatable=1;deletable=1;locked=0;connectable=1;noLabel=0;overflow=visible;fillColor=#000000;" vertex="1" parent="OnZczfawtuSLeFZFDQxz-10">
                        <mxGeometry x="45" y="20" width="10" height="10" as="geometry"/>
                    </mxCell>
                </object>
                <object label="%name%" block="Outport" type="block" name="u_P" placeholders="1" id="OnZczfawtuSLeFZFDQxz-13">
                    <mxCell style="ellipse;whiteSpace=wrap;html=1;fontSize=11;points=[[0.02,0.5,0,0,0]];metaEdit=1;snapToPoint=0;resizable=0;rotatable=0;allowArrows=0;container=1;collapsible=0;spacingTop=-4;movable=1;connectable=0;" vertex="1" parent="1">
                        <mxGeometry x="320" y="169" width="50" height="30" as="geometry"/>
                    </mxCell>
                </object>
                <object label="&lt;p style=&quot;line-height: 100%;&quot;&gt;&lt;br&gt;&lt;/p&gt;" type="inport" name="in" id="OnZczfawtuSLeFZFDQxz-14">
                    <mxCell style="whiteSpace=wrap;html=1;aspect=fixed;snapToPoint=1;resizable=0;metaEdit=1;points=[[0,0.5,0,0,0]];editable=1;movable=0;rotatable=1;deletable=1;locked=0;connectable=1;noLabel=0;overflow=visible;direction=east;" vertex="1" parent="OnZczfawtuSLeFZFDQxz-13">
                        <mxGeometry x="-4" y="10" width="10" height="10" as="geometry"/>
                    </mxCell>
                </object>
                <object label="%value%" block="Constant" value="2^m" type="block" name="" placeholders="1" id="OnZczfawtuSLeFZFDQxz-15">
                    <mxCell style="whiteSpace=wrap;html=1;fontSize=11;points=[[1,0.5,0,0,0]];metaEdit=1;snapToPoint=0;resizable=0;rotatable=0;allowArrows=0;container=1;resizeWidth=0;connectable=0;collapsible=0;movable=1;" vertex="1" parent="1">
                        <mxGeometry x="36" y="244" width="70" height="40" as="geometry"/>
                    </mxCell>
                </object>
                <object label="&lt;p style=&quot;line-height: 100%;&quot;&gt;&lt;br&gt;&lt;/p&gt;" type="outport" name="out" id="OnZczfawtuSLeFZFDQxz-16">
                    <mxCell style="whiteSpace=wrap;html=1;aspect=fixed;snapToPoint=1;resizable=0;metaEdit=1;points=[[1,0.5,0,0,0]];editable=1;movable=0;rotatable=1;deletable=1;locked=0;connectable=1;noLabel=0;overflow=visible;fillColor=#000000;" vertex="1" parent="OnZczfawtuSLeFZFDQxz-15">
                        <mxGeometry x="65.25" y="15" width="10" height="10" as="geometry"/>
                    </mxCell>
                </object>
                <mxCell id="OnZczfawtuSLeFZFDQxz-17" style="edgeStyle=orthogonalEdgeStyle;html=1;exitX=1;exitY=0.5;exitDx=0;exitDy=0;exitPerimeter=0;entryX=0;entryY=0.5;entryDx=0;entryDy=0;entryPerimeter=0;" edge="1" parent="1" source="OnZczfawtuSLeFZFDQxz-2" target="OnZczfawtuSLeFZFDQxz-4">
                    <mxGeometry relative="1" as="geometry"/>
                </mxCell>
                <mxCell id="OnZczfawtuSLeFZFDQxz-18" style="edgeStyle=orthogonalEdgeStyle;html=1;exitX=1;exitY=0.5;exitDx=0;exitDy=0;exitPerimeter=0;entryX=0;entryY=0.5;entryDx=0;entryDy=0;entryPerimeter=0;" edge="1" parent="1" source="OnZczfawtuSLeFZFDQxz-5" target="OnZczfawtuSLeFZFDQxz-8">
                    <mxGeometry relative="1" as="geometry"/>
                </mxCell>
                <mxCell id="OnZczfawtuSLeFZFDQxz-19" style="edgeStyle=orthogonalEdgeStyle;html=1;exitX=1;exitY=0.5;exitDx=0;exitDy=0;exitPerimeter=0;entryX=0;entryY=0.5;entryDx=0;entryDy=0;entryPerimeter=0;" edge="1" parent="1" source="OnZczfawtuSLeFZFDQxz-16" target="OnZczfawtuSLeFZFDQxz-9">
                    <mxGeometry relative="1" as="geometry"/>
                </mxCell>
                <mxCell id="OnZczfawtuSLeFZFDQxz-20" style="edgeStyle=orthogonalEdgeStyle;html=1;exitX=1;exitY=0.5;exitDx=0;exitDy=0;exitPerimeter=0;entryX=0;entryY=0.5;entryDx=0;entryDy=0;entryPerimeter=0;" edge="1" parent="1" source="OnZczfawtuSLeFZFDQxz-7" target="OnZczfawtuSLeFZFDQxz-11">
                    <mxGeometry relative="1" as="geometry"/>
                </mxCell>
                <mxCell id="OnZczfawtuSLeFZFDQxz-21" style="edgeStyle=orthogonalEdgeStyle;html=1;exitX=1;exitY=0.5;exitDx=0;exitDy=0;exitPerimeter=0;entryX=0;entryY=0.5;entryDx=0;entryDy=0;entryPerimeter=0;" edge="1" parent="1" source="OnZczfawtuSLeFZFDQxz-12" target="OnZczfawtuSLeFZFDQxz-14">
                    <mxGeometry relative="1" as="geometry"/>
                </mxCell>
            </root>
        </mxGraphModel>
    </diagram>
    <diagram id="xDrfbfX1Uj3UEtQUvtf9" name="Decoder">
        <mxGraphModel dx="1064" dy="331" grid="1" gridSize="2" guides="1" tooltips="1" connect="1" arrows="1" fold="1" page="0" pageScale="1" pageWidth="827" pageHeight="1169" math="0" shadow="0">
            <root>
                <mxCell id="0"/>
                <mxCell id="1" parent="0"/>
                <object label="%name%" block="Inport" type="block" name="d_N" placeholders="1" id="bx6P4MaRMG0EpHnPDTfZ-1">
                    <mxCell style="ellipse;whiteSpace=wrap;html=1;fontSize=11;points=[[1,0.5,0,0,0]];metaEdit=1;snapToPoint=0;resizable=0;rotatable=0;allowArrows=0;container=1;collapsible=0;spacingTop=-5;movable=1;connectable=0;" vertex="1" parent="1">
                        <mxGeometry x="-34.000000000000114" y="90" width="50" height="30" as="geometry"/>
                    </mxCell>
                </object>
                <object label="&lt;p style=&quot;line-height: 100%;&quot;&gt;&lt;br&gt;&lt;/p&gt;" type="outport" name="out" id="bx6P4MaRMG0EpHnPDTfZ-2">
                    <mxCell style="whiteSpace=wrap;html=1;aspect=fixed;snapToPoint=1;resizable=0;metaEdit=1;points=[[1,0.5,0,0,0]];editable=1;movable=0;rotatable=1;deletable=1;locked=0;connectable=1;noLabel=0;overflow=visible;fillColor=#000000;" vertex="1" parent="bx6P4MaRMG0EpHnPDTfZ-1">
                        <mxGeometry x="45" y="10" width="10" height="10" as="geometry"/>
                    </mxCell>
                </object>
                <object label="%K%" block="Gain" K="1/alpha_A" type="block" name="" placeholders="1" id="bx6P4MaRMG0EpHnPDTfZ-5">
                    <mxCell style="triangle;html=1;points=[[0,0.5,0,0,0],[1,0.5,0,0,0]];whiteSpace=wrap;fontSize=11;align=center;spacingLeft=-7;metaEdit=1;snapToPoint=0;allowArrows=0;resizable=0;rotatable=0;container=1;collapsible=0;movable=1;connectable=0;" vertex="1" parent="1">
                        <mxGeometry x="68" y="78" width="50" height="50" as="geometry"/>
                    </mxCell>
                </object>
                <object label="&lt;p style=&quot;line-height: 100%;&quot;&gt;&lt;br&gt;&lt;/p&gt;" type="inport" name="in" id="bx6P4MaRMG0EpHnPDTfZ-6">
                    <mxCell style="whiteSpace=wrap;html=1;aspect=fixed;snapToPoint=1;resizable=0;metaEdit=1;points=[[0,0.5,0,0,0]];editable=1;movable=0;rotatable=1;deletable=1;locked=0;connectable=1;noLabel=0;overflow=visible;direction=east;" vertex="1" parent="bx6P4MaRMG0EpHnPDTfZ-5">
                        <mxGeometry x="-5" y="20" width="10" height="10" as="geometry"/>
                    </mxCell>
                </object>
                <object label="&lt;p style=&quot;line-height: 100%;&quot;&gt;&lt;br&gt;&lt;/p&gt;" type="outport" name="out" id="bx6P4MaRMG0EpHnPDTfZ-7">
                    <mxCell style="whiteSpace=wrap;html=1;aspect=fixed;snapToPoint=1;resizable=0;metaEdit=1;points=[[1,0.5,0,0,0]];editable=1;movable=0;rotatable=1;deletable=1;locked=0;connectable=1;noLabel=0;overflow=visible;fillColor=#000000;" vertex="1" parent="bx6P4MaRMG0EpHnPDTfZ-5">
                        <mxGeometry x="45" y="20" width="10" height="10" as="geometry"/>
                    </mxCell>
                </object>
                <object label="%signs%" block="Add" signs="[:+, :+]" type="block" name="" placeholders="1" id="bx6P4MaRMG0EpHnPDTfZ-8">
                    <mxCell style="rounded=0;whiteSpace=wrap;html=1;fontSize=11;points=[[0,0.24,0,0,0],[0,0.76,0,0,0],[1,0.5,0,0,0]];metaEdit=1;snapToPoint=0;allowArrows=0;resizable=0;container=1;collapsible=0;movable=1;connectable=0;" vertex="1" parent="1">
                        <mxGeometry x="164" y="72" width="40" height="80" as="geometry"/>
                    </mxCell>
                </object>
                <object label="&lt;p style=&quot;line-height: 100%;&quot;&gt;&lt;br&gt;&lt;/p&gt;" type="outport" name="out" id="bx6P4MaRMG0EpHnPDTfZ-9">
                    <mxCell style="whiteSpace=wrap;html=1;aspect=fixed;snapToPoint=1;resizable=0;metaEdit=1;points=[[1,0.5,0,0,0]];editable=1;movable=0;rotatable=1;deletable=1;locked=0;connectable=1;noLabel=0;overflow=visible;fillColor=#000000;" vertex="1" parent="bx6P4MaRMG0EpHnPDTfZ-8">
                        <mxGeometry x="35" y="34.285714285714285" width="10" height="10" as="geometry"/>
                    </mxCell>
                </object>
                <object label="&lt;p style=&quot;line-height: 100%;&quot;&gt;&lt;br&gt;&lt;/p&gt;" type="inport" name="in1" id="bx6P4MaRMG0EpHnPDTfZ-10">
                    <mxCell style="whiteSpace=wrap;html=1;aspect=fixed;snapToPoint=1;resizable=0;metaEdit=1;points=[[0,0.5,0,0,0]];editable=1;movable=0;rotatable=1;deletable=1;locked=0;connectable=1;noLabel=0;overflow=visible;direction=east;" vertex="1" parent="bx6P4MaRMG0EpHnPDTfZ-8">
                        <mxGeometry x="-5" y="9" width="10" height="10" as="geometry"/>
                    </mxCell>
                </object>
                <object label="&lt;p style=&quot;line-height: 100%;&quot;&gt;&lt;br&gt;&lt;/p&gt;" type="inport" name="in2" id="bx6P4MaRMG0EpHnPDTfZ-11">
                    <mxCell style="whiteSpace=wrap;html=1;aspect=fixed;snapToPoint=1;resizable=0;metaEdit=1;points=[[0,0.5,0,0,0]];editable=1;movable=0;rotatable=1;deletable=1;locked=0;connectable=1;noLabel=0;overflow=visible;direction=east;" vertex="1" parent="bx6P4MaRMG0EpHnPDTfZ-8">
                        <mxGeometry x="-5" y="26" width="10" height="10" as="geometry"/>
                    </mxCell>
                </object>
                <object label="%K%" block="Gain" K="1/alpha_T" type="block" name="" placeholders="1" id="bx6P4MaRMG0EpHnPDTfZ-14">
                    <mxCell style="triangle;html=1;points=[[0,0.5,0,0,0],[1,0.5,0,0,0]];whiteSpace=wrap;fontSize=11;align=center;spacingLeft=-7;metaEdit=1;snapToPoint=0;allowArrows=0;resizable=0;rotatable=0;container=1;collapsible=0;movable=1;connectable=0;" vertex="1" parent="1">
                        <mxGeometry x="248" y="87" width="50" height="50" as="geometry"/>
                    </mxCell>
                </object>
                <object label="&lt;p style=&quot;line-height: 100%;&quot;&gt;&lt;br&gt;&lt;/p&gt;" type="inport" name="in" id="bx6P4MaRMG0EpHnPDTfZ-15">
                    <mxCell style="whiteSpace=wrap;html=1;aspect=fixed;snapToPoint=1;resizable=0;metaEdit=1;points=[[0,0.5,0,0,0]];editable=1;movable=0;rotatable=1;deletable=1;locked=0;connectable=1;noLabel=0;overflow=visible;direction=east;" vertex="1" parent="bx6P4MaRMG0EpHnPDTfZ-14">
                        <mxGeometry x="-5" y="20" width="10" height="10" as="geometry"/>
                    </mxCell>
                </object>
                <object label="&lt;p style=&quot;line-height: 100%;&quot;&gt;&lt;br&gt;&lt;/p&gt;" type="outport" name="out" id="bx6P4MaRMG0EpHnPDTfZ-16">
                    <mxCell style="whiteSpace=wrap;html=1;aspect=fixed;snapToPoint=1;resizable=0;metaEdit=1;points=[[1,0.5,0,0,0]];editable=1;movable=0;rotatable=1;deletable=1;locked=0;connectable=1;noLabel=0;overflow=visible;fillColor=#000000;" vertex="1" parent="bx6P4MaRMG0EpHnPDTfZ-14">
                        <mxGeometry x="45" y="20" width="10" height="10" as="geometry"/>
                    </mxCell>
                </object>
                <object label="%name%" block="Outport" type="block" name="Nstar" placeholders="1" id="bx6P4MaRMG0EpHnPDTfZ-17">
                    <mxCell style="ellipse;whiteSpace=wrap;html=1;fontSize=11;points=[[0.02,0.5,0,0,0]];metaEdit=1;snapToPoint=0;resizable=0;rotatable=0;allowArrows=0;container=1;collapsible=0;spacingTop=-4;movable=1;connectable=0;" vertex="1" parent="1">
                        <mxGeometry x="334" y="96" width="50" height="30" as="geometry"/>
                    </mxCell>
                </object>
                <object label="&lt;p style=&quot;line-height: 100%;&quot;&gt;&lt;br&gt;&lt;/p&gt;" type="inport" name="in" id="bx6P4MaRMG0EpHnPDTfZ-18">
                    <mxCell style="whiteSpace=wrap;html=1;aspect=fixed;snapToPoint=1;resizable=0;metaEdit=1;points=[[0,0.5,0,0,0]];editable=1;movable=0;rotatable=1;deletable=1;locked=0;connectable=1;noLabel=0;overflow=visible;direction=east;" vertex="1" parent="bx6P4MaRMG0EpHnPDTfZ-17">
                        <mxGeometry x="-4" y="10" width="10" height="10" as="geometry"/>
                    </mxCell>
                </object>
                <object label="%value%" block="Constant" value="V_A_min" type="block" name="" placeholders="1" id="bx6P4MaRMG0EpHnPDTfZ-19">
                    <mxCell style="whiteSpace=wrap;html=1;fontSize=11;points=[[1,0.5,0,0,0]];metaEdit=1;snapToPoint=0;resizable=0;rotatable=0;allowArrows=0;container=1;resizeWidth=0;connectable=0;collapsible=0;movable=1;" vertex="1" parent="1">
                        <mxGeometry x="50" y="188" width="70" height="40" as="geometry"/>
                    </mxCell>
                </object>
                <object label="&lt;p style=&quot;line-height: 100%;&quot;&gt;&lt;br&gt;&lt;/p&gt;" type="outport" name="out" id="bx6P4MaRMG0EpHnPDTfZ-20">
                    <mxCell style="whiteSpace=wrap;html=1;aspect=fixed;snapToPoint=1;resizable=0;metaEdit=1;points=[[1,0.5,0,0,0]];editable=1;movable=0;rotatable=1;deletable=1;locked=0;connectable=1;noLabel=0;overflow=visible;fillColor=#000000;" vertex="1" parent="bx6P4MaRMG0EpHnPDTfZ-19">
                        <mxGeometry x="65.25" y="15" width="10" height="10" as="geometry"/>
                    </mxCell>
                </object>
                <mxCell id="bx6P4MaRMG0EpHnPDTfZ-21" style="edgeStyle=orthogonalEdgeStyle;html=1;exitX=1;exitY=0.5;exitDx=0;exitDy=0;exitPerimeter=0;entryX=0;entryY=0.5;entryDx=0;entryDy=0;entryPerimeter=0;" edge="1" parent="1" source="bx6P4MaRMG0EpHnPDTfZ-20" target="bx6P4MaRMG0EpHnPDTfZ-11">
                    <mxGeometry relative="1" as="geometry"/>
                </mxCell>
                <mxCell id="bx6P4MaRMG0EpHnPDTfZ-22" style="edgeStyle=orthogonalEdgeStyle;html=1;exitX=1;exitY=0.5;exitDx=0;exitDy=0;exitPerimeter=0;entryX=0;entryY=0.5;entryDx=0;entryDy=0;entryPerimeter=0;" edge="1" parent="1" source="bx6P4MaRMG0EpHnPDTfZ-7" target="bx6P4MaRMG0EpHnPDTfZ-10">
                    <mxGeometry relative="1" as="geometry"/>
                </mxCell>
                <mxCell id="bx6P4MaRMG0EpHnPDTfZ-23" style="edgeStyle=orthogonalEdgeStyle;html=1;exitX=1;exitY=0.5;exitDx=0;exitDy=0;exitPerimeter=0;entryX=0;entryY=0.5;entryDx=0;entryDy=0;entryPerimeter=0;" edge="1" parent="1" source="bx6P4MaRMG0EpHnPDTfZ-2" target="bx6P4MaRMG0EpHnPDTfZ-6">
                    <mxGeometry relative="1" as="geometry"/>
                </mxCell>
                <mxCell id="bx6P4MaRMG0EpHnPDTfZ-24" style="edgeStyle=orthogonalEdgeStyle;html=1;exitX=1;exitY=0.5;exitDx=0;exitDy=0;exitPerimeter=0;entryX=0;entryY=0.5;entryDx=0;entryDy=0;entryPerimeter=0;" edge="1" parent="1" source="bx6P4MaRMG0EpHnPDTfZ-9" target="bx6P4MaRMG0EpHnPDTfZ-15">
                    <mxGeometry relative="1" as="geometry"/>
                </mxCell>
                <mxCell id="bx6P4MaRMG0EpHnPDTfZ-25" style="edgeStyle=orthogonalEdgeStyle;html=1;exitX=1;exitY=0.5;exitDx=0;exitDy=0;exitPerimeter=0;entryX=0;entryY=0.5;entryDx=0;entryDy=0;entryPerimeter=0;" edge="1" parent="1" source="bx6P4MaRMG0EpHnPDTfZ-16" target="bx6P4MaRMG0EpHnPDTfZ-18">
                    <mxGeometry relative="1" as="geometry"/>
                </mxCell>
                <object label="%name%" block="Inport" type="block" name="d_i" placeholders="1" id="bx6P4MaRMG0EpHnPDTfZ-26">
                    <mxCell style="ellipse;whiteSpace=wrap;html=1;fontSize=11;points=[[1,0.5,0,0,0]];metaEdit=1;snapToPoint=0;resizable=0;rotatable=0;allowArrows=0;container=1;collapsible=0;spacingTop=-5;movable=1;connectable=0;" vertex="1" parent="1">
                        <mxGeometry x="-34.000000000000114" y="262" width="50" height="30" as="geometry"/>
                    </mxCell>
                </object>
                <object label="&lt;p style=&quot;line-height: 100%;&quot;&gt;&lt;br&gt;&lt;/p&gt;" type="outport" name="out" id="bx6P4MaRMG0EpHnPDTfZ-27">
                    <mxCell style="whiteSpace=wrap;html=1;aspect=fixed;snapToPoint=1;resizable=0;metaEdit=1;points=[[1,0.5,0,0,0]];editable=1;movable=0;rotatable=1;deletable=1;locked=0;connectable=1;noLabel=0;overflow=visible;fillColor=#000000;" vertex="1" parent="bx6P4MaRMG0EpHnPDTfZ-26">
                        <mxGeometry x="45" y="10" width="10" height="10" as="geometry"/>
                    </mxCell>
                </object>
                <object label="%K%" block="Gain" K="1/alpha_A" type="block" name="" placeholders="1" id="bx6P4MaRMG0EpHnPDTfZ-28">
                    <mxCell style="triangle;html=1;points=[[0,0.5,0,0,0],[1,0.5,0,0,0]];whiteSpace=wrap;fontSize=11;align=center;spacingLeft=-7;metaEdit=1;snapToPoint=0;allowArrows=0;resizable=0;rotatable=0;container=1;collapsible=0;movable=1;connectable=0;" vertex="1" parent="1">
                        <mxGeometry x="68" y="250" width="50" height="50" as="geometry"/>
                    </mxCell>
                </object>
                <object label="&lt;p style=&quot;line-height: 100%;&quot;&gt;&lt;br&gt;&lt;/p&gt;" type="inport" name="in" id="bx6P4MaRMG0EpHnPDTfZ-29">
                    <mxCell style="whiteSpace=wrap;html=1;aspect=fixed;snapToPoint=1;resizable=0;metaEdit=1;points=[[0,0.5,0,0,0]];editable=1;movable=0;rotatable=1;deletable=1;locked=0;connectable=1;noLabel=0;overflow=visible;direction=east;" vertex="1" parent="bx6P4MaRMG0EpHnPDTfZ-28">
                        <mxGeometry x="-5" y="20" width="10" height="10" as="geometry"/>
                    </mxCell>
                </object>
                <object label="&lt;p style=&quot;line-height: 100%;&quot;&gt;&lt;br&gt;&lt;/p&gt;" type="outport" name="out" id="bx6P4MaRMG0EpHnPDTfZ-30">
                    <mxCell style="whiteSpace=wrap;html=1;aspect=fixed;snapToPoint=1;resizable=0;metaEdit=1;points=[[1,0.5,0,0,0]];editable=1;movable=0;rotatable=1;deletable=1;locked=0;connectable=1;noLabel=0;overflow=visible;fillColor=#000000;" vertex="1" parent="bx6P4MaRMG0EpHnPDTfZ-28">
                        <mxGeometry x="45" y="20" width="10" height="10" as="geometry"/>
                    </mxCell>
                </object>
                <object label="%signs%" block="Add" signs="[:+, :+]" type="block" name="" placeholders="1" id="bx6P4MaRMG0EpHnPDTfZ-31">
                    <mxCell style="rounded=0;whiteSpace=wrap;html=1;fontSize=11;points=[[0,0.24,0,0,0],[0,0.76,0,0,0],[1,0.5,0,0,0]];metaEdit=1;snapToPoint=0;allowArrows=0;resizable=0;container=1;collapsible=0;movable=1;connectable=0;" vertex="1" parent="1">
                        <mxGeometry x="164" y="244" width="40" height="80" as="geometry"/>
                    </mxCell>
                </object>
                <object label="&lt;p style=&quot;line-height: 100%;&quot;&gt;&lt;br&gt;&lt;/p&gt;" type="outport" name="out" id="bx6P4MaRMG0EpHnPDTfZ-32">
                    <mxCell style="whiteSpace=wrap;html=1;aspect=fixed;snapToPoint=1;resizable=0;metaEdit=1;points=[[1,0.5,0,0,0]];editable=1;movable=0;rotatable=1;deletable=1;locked=0;connectable=1;noLabel=0;overflow=visible;fillColor=#000000;" vertex="1" parent="bx6P4MaRMG0EpHnPDTfZ-31">
                        <mxGeometry x="35" y="34.285714285714285" width="10" height="10" as="geometry"/>
                    </mxCell>
                </object>
                <object label="&lt;p style=&quot;line-height: 100%;&quot;&gt;&lt;br&gt;&lt;/p&gt;" type="inport" name="in1" id="bx6P4MaRMG0EpHnPDTfZ-33">
                    <mxCell style="whiteSpace=wrap;html=1;aspect=fixed;snapToPoint=1;resizable=0;metaEdit=1;points=[[0,0.5,0,0,0]];editable=1;movable=0;rotatable=1;deletable=1;locked=0;connectable=1;noLabel=0;overflow=visible;direction=east;" vertex="1" parent="bx6P4MaRMG0EpHnPDTfZ-31">
                        <mxGeometry x="-5" y="9" width="10" height="10" as="geometry"/>
                    </mxCell>
                </object>
                <object label="&lt;p style=&quot;line-height: 100%;&quot;&gt;&lt;br&gt;&lt;/p&gt;" type="inport" name="in2" id="bx6P4MaRMG0EpHnPDTfZ-34">
                    <mxCell style="whiteSpace=wrap;html=1;aspect=fixed;snapToPoint=1;resizable=0;metaEdit=1;points=[[0,0.5,0,0,0]];editable=1;movable=0;rotatable=1;deletable=1;locked=0;connectable=1;noLabel=0;overflow=visible;direction=east;" vertex="1" parent="bx6P4MaRMG0EpHnPDTfZ-31">
                        <mxGeometry x="-5" y="26" width="10" height="10" as="geometry"/>
                    </mxCell>
                </object>
                <object label="%K%" block="Gain" K="1/alpha_i" type="block" name="" placeholders="1" id="bx6P4MaRMG0EpHnPDTfZ-35">
                    <mxCell style="triangle;html=1;points=[[0,0.5,0,0,0],[1,0.5,0,0,0]];whiteSpace=wrap;fontSize=11;align=center;spacingLeft=-7;metaEdit=1;snapToPoint=0;allowArrows=0;resizable=0;rotatable=0;container=1;collapsible=0;movable=1;connectable=0;" vertex="1" parent="1">
                        <mxGeometry x="248" y="259" width="50" height="50" as="geometry"/>
                    </mxCell>
                </object>
                <object label="&lt;p style=&quot;line-height: 100%;&quot;&gt;&lt;br&gt;&lt;/p&gt;" type="inport" name="in" id="bx6P4MaRMG0EpHnPDTfZ-36">
                    <mxCell style="whiteSpace=wrap;html=1;aspect=fixed;snapToPoint=1;resizable=0;metaEdit=1;points=[[0,0.5,0,0,0]];editable=1;movable=0;rotatable=1;deletable=1;locked=0;connectable=1;noLabel=0;overflow=visible;direction=east;" vertex="1" parent="bx6P4MaRMG0EpHnPDTfZ-35">
                        <mxGeometry x="-5" y="20" width="10" height="10" as="geometry"/>
                    </mxCell>
                </object>
                <object label="&lt;p style=&quot;line-height: 100%;&quot;&gt;&lt;br&gt;&lt;/p&gt;" type="outport" name="out" id="bx6P4MaRMG0EpHnPDTfZ-37">
                    <mxCell style="whiteSpace=wrap;html=1;aspect=fixed;snapToPoint=1;resizable=0;metaEdit=1;points=[[1,0.5,0,0,0]];editable=1;movable=0;rotatable=1;deletable=1;locked=0;connectable=1;noLabel=0;overflow=visible;fillColor=#000000;" vertex="1" parent="bx6P4MaRMG0EpHnPDTfZ-35">
                        <mxGeometry x="45" y="20" width="10" height="10" as="geometry"/>
                    </mxCell>
                </object>
                <object label="%name%" block="Outport" type="block" name="istar" placeholders="1" id="bx6P4MaRMG0EpHnPDTfZ-38">
                    <mxCell style="ellipse;whiteSpace=wrap;html=1;fontSize=11;points=[[0.02,0.5,0,0,0]];metaEdit=1;snapToPoint=0;resizable=0;rotatable=0;allowArrows=0;container=1;collapsible=0;spacingTop=-4;movable=1;connectable=0;" vertex="1" parent="1">
                        <mxGeometry x="334" y="268" width="50" height="30" as="geometry"/>
                    </mxCell>
                </object>
                <object label="&lt;p style=&quot;line-height: 100%;&quot;&gt;&lt;br&gt;&lt;/p&gt;" type="inport" name="in" id="bx6P4MaRMG0EpHnPDTfZ-39">
                    <mxCell style="whiteSpace=wrap;html=1;aspect=fixed;snapToPoint=1;resizable=0;metaEdit=1;points=[[0,0.5,0,0,0]];editable=1;movable=0;rotatable=1;deletable=1;locked=0;connectable=1;noLabel=0;overflow=visible;direction=east;" vertex="1" parent="bx6P4MaRMG0EpHnPDTfZ-38">
                        <mxGeometry x="-4" y="10" width="10" height="10" as="geometry"/>
                    </mxCell>
                </object>
                <object label="%value%" block="Constant" value="V_A_min" type="block" name="" placeholders="1" id="bx6P4MaRMG0EpHnPDTfZ-40">
                    <mxCell style="whiteSpace=wrap;html=1;fontSize=11;points=[[1,0.5,0,0,0]];metaEdit=1;snapToPoint=0;resizable=0;rotatable=0;allowArrows=0;container=1;resizeWidth=0;connectable=0;collapsible=0;movable=1;" vertex="1" parent="1">
                        <mxGeometry x="50" y="360" width="70" height="40" as="geometry"/>
                    </mxCell>
                </object>
                <object label="&lt;p style=&quot;line-height: 100%;&quot;&gt;&lt;br&gt;&lt;/p&gt;" type="outport" name="out" id="bx6P4MaRMG0EpHnPDTfZ-41">
                    <mxCell style="whiteSpace=wrap;html=1;aspect=fixed;snapToPoint=1;resizable=0;metaEdit=1;points=[[1,0.5,0,0,0]];editable=1;movable=0;rotatable=1;deletable=1;locked=0;connectable=1;noLabel=0;overflow=visible;fillColor=#000000;" vertex="1" parent="bx6P4MaRMG0EpHnPDTfZ-40">
                        <mxGeometry x="65.25" y="15" width="10" height="10" as="geometry"/>
                    </mxCell>
                </object>
                <mxCell id="bx6P4MaRMG0EpHnPDTfZ-42" style="edgeStyle=orthogonalEdgeStyle;html=1;exitX=1;exitY=0.5;exitDx=0;exitDy=0;exitPerimeter=0;entryX=0;entryY=0.5;entryDx=0;entryDy=0;entryPerimeter=0;" edge="1" parent="1" source="bx6P4MaRMG0EpHnPDTfZ-41" target="bx6P4MaRMG0EpHnPDTfZ-34">
                    <mxGeometry relative="1" as="geometry"/>
                </mxCell>
                <mxCell id="bx6P4MaRMG0EpHnPDTfZ-43" style="edgeStyle=orthogonalEdgeStyle;html=1;exitX=1;exitY=0.5;exitDx=0;exitDy=0;exitPerimeter=0;entryX=0;entryY=0.5;entryDx=0;entryDy=0;entryPerimeter=0;" edge="1" parent="1" source="bx6P4MaRMG0EpHnPDTfZ-30" target="bx6P4MaRMG0EpHnPDTfZ-33">
                    <mxGeometry relative="1" as="geometry"/>
                </mxCell>
                <mxCell id="bx6P4MaRMG0EpHnPDTfZ-44" style="edgeStyle=orthogonalEdgeStyle;html=1;exitX=1;exitY=0.5;exitDx=0;exitDy=0;exitPerimeter=0;entryX=0;entryY=0.5;entryDx=0;entryDy=0;entryPerimeter=0;" edge="1" parent="1" source="bx6P4MaRMG0EpHnPDTfZ-27" target="bx6P4MaRMG0EpHnPDTfZ-29">
                    <mxGeometry relative="1" as="geometry"/>
                </mxCell>
                <mxCell id="bx6P4MaRMG0EpHnPDTfZ-45" style="edgeStyle=orthogonalEdgeStyle;html=1;exitX=1;exitY=0.5;exitDx=0;exitDy=0;exitPerimeter=0;entryX=0;entryY=0.5;entryDx=0;entryDy=0;entryPerimeter=0;" edge="1" parent="1" source="bx6P4MaRMG0EpHnPDTfZ-32" target="bx6P4MaRMG0EpHnPDTfZ-36">
                    <mxGeometry relative="1" as="geometry"/>
                </mxCell>
                <mxCell id="bx6P4MaRMG0EpHnPDTfZ-46" style="edgeStyle=orthogonalEdgeStyle;html=1;exitX=1;exitY=0.5;exitDx=0;exitDy=0;exitPerimeter=0;entryX=0;entryY=0.5;entryDx=0;entryDy=0;entryPerimeter=0;" edge="1" parent="1" source="bx6P4MaRMG0EpHnPDTfZ-37" target="bx6P4MaRMG0EpHnPDTfZ-39">
                    <mxGeometry relative="1" as="geometry"/>
                </mxCell>
            </root>
        </mxGraphModel>
    </diagram>
    <diagram id="oID8cQmkN7QEepEmGTYd" name="Encoder">
        <mxGraphModel dx="664" dy="331" grid="1" gridSize="2" guides="1" tooltips="1" connect="1" arrows="1" fold="1" page="0" pageScale="1" pageWidth="827" pageHeight="1169" math="0" shadow="0">
            <root>
                <mxCell id="0"/>
                <mxCell id="1" parent="0"/>
                <object label="%name%" block="Inport" type="block" name="u" placeholders="1" id="jiudQcIriw3dF1sGCBhK-1">
                    <mxCell style="ellipse;whiteSpace=wrap;html=1;fontSize=11;points=[[1,0.5,0,0,0]];metaEdit=1;snapToPoint=0;resizable=0;rotatable=0;allowArrows=0;container=1;collapsible=0;spacingTop=-5;movable=1;connectable=0;" vertex="1" parent="1">
                        <mxGeometry x="75.99999999999989" y="172" width="50" height="30" as="geometry"/>
                    </mxCell>
                </object>
                <object label="&lt;p style=&quot;line-height: 100%;&quot;&gt;&lt;br&gt;&lt;/p&gt;" type="outport" name="out" id="jiudQcIriw3dF1sGCBhK-2">
                    <mxCell style="whiteSpace=wrap;html=1;aspect=fixed;snapToPoint=1;resizable=0;metaEdit=1;points=[[1,0.5,0,0,0]];editable=1;movable=0;rotatable=1;deletable=1;locked=0;connectable=1;noLabel=0;overflow=visible;fillColor=#000000;" vertex="1" parent="jiudQcIriw3dF1sGCBhK-1">
                        <mxGeometry x="45" y="10" width="10" height="10" as="geometry"/>
                    </mxCell>
                </object>
                <object label="%value%" block="Constant" value="u_min" type="block" name="" placeholders="1" id="jiudQcIriw3dF1sGCBhK-3">
                    <mxCell style="whiteSpace=wrap;html=1;fontSize=11;points=[[1,0.5,0,0,0]];metaEdit=1;snapToPoint=0;resizable=0;rotatable=0;allowArrows=0;container=1;resizeWidth=0;connectable=0;collapsible=0;movable=1;" vertex="1" parent="1">
                        <mxGeometry x="78" y="242" width="70" height="40" as="geometry"/>
                    </mxCell>
                </object>
                <object label="&lt;p style=&quot;line-height: 100%;&quot;&gt;&lt;br&gt;&lt;/p&gt;" type="outport" name="out" id="jiudQcIriw3dF1sGCBhK-4">
                    <mxCell style="whiteSpace=wrap;html=1;aspect=fixed;snapToPoint=1;resizable=0;metaEdit=1;points=[[1,0.5,0,0,0]];editable=1;movable=0;rotatable=1;deletable=1;locked=0;connectable=1;noLabel=0;overflow=visible;fillColor=#000000;" vertex="1" parent="jiudQcIriw3dF1sGCBhK-3">
                        <mxGeometry x="65.25" y="15" width="10" height="10" as="geometry"/>
                    </mxCell>
                </object>
                <object label="%signs%" block="Add" signs="[:+, :+]" type="block" name="" placeholders="1" id="jiudQcIriw3dF1sGCBhK-5">
                    <mxCell style="rounded=0;whiteSpace=wrap;html=1;fontSize=11;points=[[0,0.24,0,0,0],[0,0.76,0,0,0],[1,0.5,0,0,0]];metaEdit=1;snapToPoint=0;allowArrows=0;resizable=0;container=1;collapsible=0;movable=1;connectable=0;" vertex="1" parent="1">
                        <mxGeometry x="218" y="160" width="40" height="80" as="geometry"/>
                    </mxCell>
                </object>
                <object label="&lt;p style=&quot;line-height: 100%;&quot;&gt;&lt;br&gt;&lt;/p&gt;" type="outport" name="out" id="jiudQcIriw3dF1sGCBhK-6">
                    <mxCell style="whiteSpace=wrap;html=1;aspect=fixed;snapToPoint=1;resizable=0;metaEdit=1;points=[[1,0.5,0,0,0]];editable=1;movable=0;rotatable=1;deletable=1;locked=0;connectable=1;noLabel=0;overflow=visible;fillColor=#000000;" vertex="1" parent="jiudQcIriw3dF1sGCBhK-5">
                        <mxGeometry x="35" y="34.285714285714285" width="10" height="10" as="geometry"/>
                    </mxCell>
                </object>
                <object label="&lt;p style=&quot;line-height: 100%;&quot;&gt;&lt;br&gt;&lt;/p&gt;" type="inport" name="in1" id="jiudQcIriw3dF1sGCBhK-7">
                    <mxCell style="whiteSpace=wrap;html=1;aspect=fixed;snapToPoint=1;resizable=0;metaEdit=1;points=[[0,0.5,0,0,0]];editable=1;movable=0;rotatable=1;deletable=1;locked=0;connectable=1;noLabel=0;overflow=visible;direction=east;" vertex="1" parent="jiudQcIriw3dF1sGCBhK-5">
                        <mxGeometry x="-5" y="9" width="10" height="10" as="geometry"/>
                    </mxCell>
                </object>
                <object label="&lt;p style=&quot;line-height: 100%;&quot;&gt;&lt;br&gt;&lt;/p&gt;" type="inport" name="in2" id="jiudQcIriw3dF1sGCBhK-8">
                    <mxCell style="whiteSpace=wrap;html=1;aspect=fixed;snapToPoint=1;resizable=0;metaEdit=1;points=[[0,0.5,0,0,0]];editable=1;movable=0;rotatable=1;deletable=1;locked=0;connectable=1;noLabel=0;overflow=visible;direction=east;" vertex="1" parent="jiudQcIriw3dF1sGCBhK-5">
                        <mxGeometry x="-5" y="26" width="10" height="10" as="geometry"/>
                    </mxCell>
                </object>
                <mxCell id="jiudQcIriw3dF1sGCBhK-11" style="edgeStyle=orthogonalEdgeStyle;html=1;exitX=1;exitY=0.5;exitDx=0;exitDy=0;exitPerimeter=0;entryX=0;entryY=0.5;entryDx=0;entryDy=0;entryPerimeter=0;" edge="1" parent="1" source="jiudQcIriw3dF1sGCBhK-2" target="jiudQcIriw3dF1sGCBhK-7">
                    <mxGeometry relative="1" as="geometry"/>
                </mxCell>
                <mxCell id="jiudQcIriw3dF1sGCBhK-12" style="edgeStyle=orthogonalEdgeStyle;html=1;exitX=1;exitY=0.5;exitDx=0;exitDy=0;exitPerimeter=0;entryX=0;entryY=0.5;entryDx=0;entryDy=0;entryPerimeter=0;" edge="1" parent="1" source="jiudQcIriw3dF1sGCBhK-4" target="jiudQcIriw3dF1sGCBhK-8">
                    <mxGeometry relative="1" as="geometry"/>
                </mxCell>
                <object label="%K%" block="Gain" K="(2^m-1)/(u_max-u_min)" type="block" name="" placeholders="1" id="jiudQcIriw3dF1sGCBhK-13">
                    <mxCell style="triangle;html=1;points=[[0,0.5,0,0,0],[1,0.5,0,0,0]];whiteSpace=wrap;fontSize=11;align=center;spacingLeft=-7;metaEdit=1;snapToPoint=0;allowArrows=0;resizable=0;rotatable=0;container=1;collapsible=0;movable=1;connectable=0;movableLabel=1;" vertex="1" parent="1">
                        <mxGeometry x="294" y="174" width="50" height="50" as="geometry">
                            <mxPoint x="-3" y="43" as="offset"/>
                        </mxGeometry>
                    </mxCell>
                </object>
                <object label="&lt;p style=&quot;line-height: 100%;&quot;&gt;&lt;br&gt;&lt;/p&gt;" type="inport" name="in" id="jiudQcIriw3dF1sGCBhK-14">
                    <mxCell style="whiteSpace=wrap;html=1;aspect=fixed;snapToPoint=1;resizable=0;metaEdit=1;points=[[0,0.5,0,0,0]];editable=1;movable=0;rotatable=1;deletable=1;locked=0;connectable=1;noLabel=0;overflow=visible;direction=east;" vertex="1" parent="jiudQcIriw3dF1sGCBhK-13">
                        <mxGeometry x="-5" y="20" width="10" height="10" as="geometry"/>
                    </mxCell>
                </object>
                <object label="&lt;p style=&quot;line-height: 100%;&quot;&gt;&lt;br&gt;&lt;/p&gt;" type="outport" name="out" id="jiudQcIriw3dF1sGCBhK-15">
                    <mxCell style="whiteSpace=wrap;html=1;aspect=fixed;snapToPoint=1;resizable=0;metaEdit=1;points=[[1,0.5,0,0,0]];editable=1;movable=0;rotatable=1;deletable=1;locked=0;connectable=1;noLabel=0;overflow=visible;fillColor=#000000;" vertex="1" parent="jiudQcIriw3dF1sGCBhK-13">
                        <mxGeometry x="45" y="20" width="10" height="10" as="geometry"/>
                    </mxCell>
                </object>
                <mxCell id="jiudQcIriw3dF1sGCBhK-16" style="edgeStyle=orthogonalEdgeStyle;html=1;exitX=1;exitY=0.5;exitDx=0;exitDy=0;exitPerimeter=0;entryX=0;entryY=0.5;entryDx=0;entryDy=0;entryPerimeter=0;" edge="1" parent="1" source="jiudQcIriw3dF1sGCBhK-6" target="jiudQcIriw3dF1sGCBhK-14">
                    <mxGeometry relative="1" as="geometry"/>
                </mxCell>
                <object label="%name%" block="Outport" type="block" name="d_P" placeholders="1" id="jiudQcIriw3dF1sGCBhK-17">
                    <mxCell style="ellipse;whiteSpace=wrap;html=1;fontSize=11;points=[[0.02,0.5,0,0,0]];metaEdit=1;snapToPoint=0;resizable=0;rotatable=0;allowArrows=0;container=1;collapsible=0;spacingTop=-4;movable=1;connectable=0;" vertex="1" parent="1">
                        <mxGeometry x="380" y="182" width="50" height="30" as="geometry"/>
                    </mxCell>
                </object>
                <object label="&lt;p style=&quot;line-height: 100%;&quot;&gt;&lt;br&gt;&lt;/p&gt;" type="inport" name="in" id="jiudQcIriw3dF1sGCBhK-18">
                    <mxCell style="whiteSpace=wrap;html=1;aspect=fixed;snapToPoint=1;resizable=0;metaEdit=1;points=[[0,0.5,0,0,0]];editable=1;movable=0;rotatable=1;deletable=1;locked=0;connectable=1;noLabel=0;overflow=visible;direction=east;" vertex="1" parent="jiudQcIriw3dF1sGCBhK-17">
                        <mxGeometry x="-4" y="10" width="10" height="10" as="geometry"/>
                    </mxCell>
                </object>
                <mxCell id="jiudQcIriw3dF1sGCBhK-19" style="edgeStyle=orthogonalEdgeStyle;html=1;exitX=1;exitY=0.5;exitDx=0;exitDy=0;exitPerimeter=0;entryX=0;entryY=0.5;entryDx=0;entryDy=0;entryPerimeter=0;" edge="1" parent="1" source="jiudQcIriw3dF1sGCBhK-15" target="jiudQcIriw3dF1sGCBhK-18">
                    <mxGeometry relative="1" as="geometry"/>
                </mxCell>
            </root>
        </mxGraphModel>
    </diagram>
    <diagram id="E29qn8jYIGJ8ruUEHXyy" name="ADConverters">
        <mxGraphModel dx="1064" dy="331" grid="1" gridSize="2" guides="1" tooltips="1" connect="1" arrows="1" fold="1" page="0" pageScale="1" pageWidth="827" pageHeight="1169" math="0" shadow="0">
            <root>
                <mxCell id="0"/>
                <mxCell id="1" parent="0"/>
                <object label="%name%" block="Inport" type="block" name="v_N" placeholders="1" id="Sv8jjVJnhY3cJulqWYff-1">
                    <mxCell style="ellipse;whiteSpace=wrap;html=1;fontSize=11;points=[[1,0.5,0,0,0]];metaEdit=1;snapToPoint=0;resizable=0;rotatable=0;allowArrows=0;container=1;collapsible=0;spacingTop=-5;movable=1;connectable=0;" vertex="1" parent="1">
                        <mxGeometry x="-26.000000000000114" y="118" width="50" height="30" as="geometry"/>
                    </mxCell>
                </object>
                <object label="&lt;p style=&quot;line-height: 100%;&quot;&gt;&lt;br&gt;&lt;/p&gt;" type="outport" name="out" id="Sv8jjVJnhY3cJulqWYff-2">
                    <mxCell style="whiteSpace=wrap;html=1;aspect=fixed;snapToPoint=1;resizable=0;metaEdit=1;points=[[1,0.5,0,0,0]];editable=1;movable=0;rotatable=1;deletable=1;locked=0;connectable=1;noLabel=0;overflow=visible;fillColor=#000000;" vertex="1" parent="Sv8jjVJnhY3cJulqWYff-1">
                        <mxGeometry x="45" y="10" width="10" height="10" as="geometry"/>
                    </mxCell>
                </object>
                <object label="%name%" block="Inport" type="block" name="v_i" placeholders="1" id="Sv8jjVJnhY3cJulqWYff-3">
                    <mxCell style="ellipse;whiteSpace=wrap;html=1;fontSize=11;points=[[1,0.5,0,0,0]];metaEdit=1;snapToPoint=0;resizable=0;rotatable=0;allowArrows=0;container=1;collapsible=0;spacingTop=-5;movable=1;connectable=0;" vertex="1" parent="1">
                        <mxGeometry x="-28.000000000000114" y="198" width="50" height="30" as="geometry"/>
                    </mxCell>
                </object>
                <object label="&lt;p style=&quot;line-height: 100%;&quot;&gt;&lt;br&gt;&lt;/p&gt;" type="outport" name="out" id="Sv8jjVJnhY3cJulqWYff-4">
                    <mxCell style="whiteSpace=wrap;html=1;aspect=fixed;snapToPoint=1;resizable=0;metaEdit=1;points=[[1,0.5,0,0,0]];editable=1;movable=0;rotatable=1;deletable=1;locked=0;connectable=1;noLabel=0;overflow=visible;fillColor=#000000;" vertex="1" parent="Sv8jjVJnhY3cJulqWYff-3">
                        <mxGeometry x="45" y="10" width="10" height="10" as="geometry"/>
                    </mxCell>
                </object>
                <object label="%block%" block="ADConverter" type="block" name="" placeholders="1" id="Sv8jjVJnhY3cJulqWYff-5">
                    <mxCell style="rounded=0;whiteSpace=wrap;html=1;fontSize=11;points=[[0,0.5,0,0,0],[1,0.5,0,0,0]];metaEdit=1;snapToPoint=0;resizable=1;rotatable=0;allowArrows=0;container=1;resizeHeight=0;connectable=0;collapsible=0;movable=1;" vertex="1" parent="1">
                        <mxGeometry x="90" y="100" width="90" height="60" as="geometry"/>
                    </mxCell>
                </object>
                <object label="&lt;p style=&quot;line-height: 100%;&quot;&gt;&lt;br&gt;&lt;/p&gt;" type="inport" name="v_A" id="Sv8jjVJnhY3cJulqWYff-8">
                    <mxCell style="whiteSpace=wrap;html=1;aspect=fixed;snapToPoint=1;resizable=0;metaEdit=1;points=[[0,0.5,0,0,0]];editable=1;movable=1;rotatable=1;deletable=1;locked=0;connectable=1;noLabel=0;overflow=visible;direction=east;" vertex="1" parent="Sv8jjVJnhY3cJulqWYff-5">
                        <mxGeometry x="-6.000000000000114" y="25.000000000000057" width="10" height="10" as="geometry"/>
                    </mxCell>
                </object>
                <object label="&lt;p style=&quot;line-height: 100%;&quot;&gt;&lt;br&gt;&lt;/p&gt;" type="outport" name="d_A" id="Sv8jjVJnhY3cJulqWYff-9">
                    <mxCell style="whiteSpace=wrap;html=1;aspect=fixed;snapToPoint=1;resizable=0;metaEdit=1;points=[[1,0.5,0,0,0]];editable=1;movable=1;rotatable=1;deletable=1;locked=0;connectable=1;noLabel=0;overflow=visible;fillColor=#000000;" vertex="1" parent="Sv8jjVJnhY3cJulqWYff-5">
                        <mxGeometry x="86.00000000000011" y="25.000000000000057" width="10" height="10" as="geometry"/>
                    </mxCell>
                </object>
                <object label="%block%" block="ADConverter" type="block" name="" placeholders="1" id="Sv8jjVJnhY3cJulqWYff-12">
                    <mxCell style="rounded=0;whiteSpace=wrap;html=1;fontSize=11;points=[[0,0.5,0,0,0],[1,0.5,0,0,0]];metaEdit=1;snapToPoint=0;resizable=1;rotatable=0;allowArrows=0;container=1;resizeHeight=0;connectable=0;collapsible=0;movable=1;" vertex="1" parent="1">
                        <mxGeometry x="92" y="183" width="90" height="60" as="geometry"/>
                    </mxCell>
                </object>
                <object label="&lt;p style=&quot;line-height: 100%;&quot;&gt;&lt;br&gt;&lt;/p&gt;" type="inport" name="v_A" id="Sv8jjVJnhY3cJulqWYff-13">
                    <mxCell style="whiteSpace=wrap;html=1;aspect=fixed;snapToPoint=1;resizable=0;metaEdit=1;points=[[0,0.5,0,0,0]];editable=1;movable=1;rotatable=1;deletable=1;locked=0;connectable=1;noLabel=0;overflow=visible;direction=east;" vertex="1" parent="Sv8jjVJnhY3cJulqWYff-12">
                        <mxGeometry x="-6.000000000000114" y="25.000000000000057" width="10" height="10" as="geometry"/>
                    </mxCell>
                </object>
                <object label="&lt;p style=&quot;line-height: 100%;&quot;&gt;&lt;br&gt;&lt;/p&gt;" type="outport" name="d_A" id="Sv8jjVJnhY3cJulqWYff-14">
                    <mxCell style="whiteSpace=wrap;html=1;aspect=fixed;snapToPoint=1;resizable=0;metaEdit=1;points=[[1,0.5,0,0,0]];editable=1;movable=1;rotatable=1;deletable=1;locked=0;connectable=1;noLabel=0;overflow=visible;fillColor=#000000;" vertex="1" parent="Sv8jjVJnhY3cJulqWYff-12">
                        <mxGeometry x="86.00000000000011" y="25.000000000000057" width="10" height="10" as="geometry"/>
                    </mxCell>
                </object>
                <object label="%name%" block="Outport" type="block" name="d_i" placeholders="1" id="Sv8jjVJnhY3cJulqWYff-15">
                    <mxCell style="ellipse;whiteSpace=wrap;html=1;fontSize=11;points=[[0.02,0.5,0,0,0]];metaEdit=1;snapToPoint=0;resizable=0;rotatable=0;allowArrows=0;container=1;collapsible=0;spacingTop=-4;movable=1;connectable=0;" vertex="1" parent="1">
                        <mxGeometry x="226" y="198" width="50" height="30" as="geometry"/>
                    </mxCell>
                </object>
                <object label="&lt;p style=&quot;line-height: 100%;&quot;&gt;&lt;br&gt;&lt;/p&gt;" type="inport" name="in" id="Sv8jjVJnhY3cJulqWYff-16">
                    <mxCell style="whiteSpace=wrap;html=1;aspect=fixed;snapToPoint=1;resizable=0;metaEdit=1;points=[[0,0.5,0,0,0]];editable=1;movable=0;rotatable=1;deletable=1;locked=0;connectable=1;noLabel=0;overflow=visible;direction=east;" vertex="1" parent="Sv8jjVJnhY3cJulqWYff-15">
                        <mxGeometry x="-4" y="10" width="10" height="10" as="geometry"/>
                    </mxCell>
                </object>
                <object label="%name%" block="Outport" type="block" name="d_N" placeholders="1" id="Sv8jjVJnhY3cJulqWYff-17">
                    <mxCell style="ellipse;whiteSpace=wrap;html=1;fontSize=11;points=[[0.02,0.5,0,0,0]];metaEdit=1;snapToPoint=0;resizable=0;rotatable=0;allowArrows=0;container=1;collapsible=0;spacingTop=-4;movable=1;connectable=0;" vertex="1" parent="1">
                        <mxGeometry x="224" y="115" width="50" height="30" as="geometry"/>
                    </mxCell>
                </object>
                <object label="&lt;p style=&quot;line-height: 100%;&quot;&gt;&lt;br&gt;&lt;/p&gt;" type="inport" name="in" id="Sv8jjVJnhY3cJulqWYff-18">
                    <mxCell style="whiteSpace=wrap;html=1;aspect=fixed;snapToPoint=1;resizable=0;metaEdit=1;points=[[0,0.5,0,0,0]];editable=1;movable=0;rotatable=1;deletable=1;locked=0;connectable=1;noLabel=0;overflow=visible;direction=east;" vertex="1" parent="Sv8jjVJnhY3cJulqWYff-17">
                        <mxGeometry x="-4" y="10" width="10" height="10" as="geometry"/>
                    </mxCell>
                </object>
                <mxCell id="Sv8jjVJnhY3cJulqWYff-19" style="edgeStyle=orthogonalEdgeStyle;html=1;exitX=1;exitY=0.5;exitDx=0;exitDy=0;exitPerimeter=0;entryX=0;entryY=0.5;entryDx=0;entryDy=0;entryPerimeter=0;" edge="1" parent="1" source="Sv8jjVJnhY3cJulqWYff-2" target="Sv8jjVJnhY3cJulqWYff-8">
                    <mxGeometry relative="1" as="geometry"/>
                </mxCell>
                <mxCell id="Sv8jjVJnhY3cJulqWYff-20" style="edgeStyle=orthogonalEdgeStyle;html=1;exitX=1;exitY=0.5;exitDx=0;exitDy=0;exitPerimeter=0;entryX=0;entryY=0.5;entryDx=0;entryDy=0;entryPerimeter=0;" edge="1" parent="1" source="Sv8jjVJnhY3cJulqWYff-9" target="Sv8jjVJnhY3cJulqWYff-18">
                    <mxGeometry relative="1" as="geometry"/>
                </mxCell>
                <mxCell id="Sv8jjVJnhY3cJulqWYff-21" style="edgeStyle=orthogonalEdgeStyle;html=1;exitX=1;exitY=0.5;exitDx=0;exitDy=0;exitPerimeter=0;entryX=0;entryY=0.5;entryDx=0;entryDy=0;entryPerimeter=0;" edge="1" parent="1" source="Sv8jjVJnhY3cJulqWYff-4" target="Sv8jjVJnhY3cJulqWYff-13">
                    <mxGeometry relative="1" as="geometry"/>
                </mxCell>
                <mxCell id="Sv8jjVJnhY3cJulqWYff-22" style="edgeStyle=orthogonalEdgeStyle;html=1;exitX=1;exitY=0.5;exitDx=0;exitDy=0;exitPerimeter=0;entryX=0;entryY=0.5;entryDx=0;entryDy=0;entryPerimeter=0;" edge="1" parent="1" source="Sv8jjVJnhY3cJulqWYff-14" target="Sv8jjVJnhY3cJulqWYff-16">
                    <mxGeometry relative="1" as="geometry"/>
                </mxCell>
            </root>
        </mxGraphModel>
    </diagram>
    <diagram id="iefTzzO6sCu_Qd_LzLqu" name="PlantModel2">
        <mxGraphModel dx="1064" dy="331" grid="1" gridSize="2" guides="1" tooltips="1" connect="1" arrows="1" fold="1" page="0" pageScale="1" pageWidth="827" pageHeight="1169" math="0" shadow="0">
            <root>
                <mxCell id="0"/>
                <mxCell id="1" parent="0"/>
                <object label="%value%" block="Constant" value="Vs" type="block" name="" placeholders="1" id="nQfDzwbNITL3hgrU2a9h-1">
                    <mxCell style="whiteSpace=wrap;html=1;fontSize=11;points=[[1,0.5,0,0,0]];metaEdit=1;snapToPoint=0;resizable=0;rotatable=0;allowArrows=0;container=1;resizeWidth=0;connectable=0;collapsible=0;movable=1;" vertex="1" parent="1">
                        <mxGeometry x="-40" y="92" width="70" height="40" as="geometry"/>
                    </mxCell>
                </object>
                <object label="&lt;p style=&quot;line-height: 100%;&quot;&gt;&lt;br&gt;&lt;/p&gt;" type="outport" name="out" id="nQfDzwbNITL3hgrU2a9h-2">
                    <mxCell style="whiteSpace=wrap;html=1;aspect=fixed;snapToPoint=1;resizable=0;metaEdit=1;points=[[1,0.5,0,0,0]];editable=1;movable=0;rotatable=1;deletable=1;locked=0;connectable=1;noLabel=0;overflow=visible;fillColor=#000000;" vertex="1" parent="nQfDzwbNITL3hgrU2a9h-1">
                        <mxGeometry x="65.25" y="15" width="10" height="10" as="geometry"/>
                    </mxCell>
                </object>
                <object label="%name%" block="Inport" type="block" name="u_M" placeholders="1" id="nQfDzwbNITL3hgrU2a9h-3">
                    <mxCell style="ellipse;whiteSpace=wrap;html=1;fontSize=11;points=[[1,0.5,0,0,0]];metaEdit=1;snapToPoint=0;resizable=0;rotatable=0;allowArrows=0;container=1;collapsible=0;spacingTop=-5;movable=1;connectable=0;" vertex="1" parent="1">
                        <mxGeometry x="-28.000000000000114" y="172" width="50" height="30" as="geometry"/>
                    </mxCell>
                </object>
                <object label="&lt;p style=&quot;line-height: 100%;&quot;&gt;&lt;br&gt;&lt;/p&gt;" type="outport" name="out" id="nQfDzwbNITL3hgrU2a9h-4">
                    <mxCell style="whiteSpace=wrap;html=1;aspect=fixed;snapToPoint=1;resizable=0;metaEdit=1;points=[[1,0.5,0,0,0]];editable=1;movable=0;rotatable=1;deletable=1;locked=0;connectable=1;noLabel=0;overflow=visible;fillColor=#000000;" vertex="1" parent="nQfDzwbNITL3hgrU2a9h-3">
                        <mxGeometry x="45" y="10" width="10" height="10" as="geometry"/>
                    </mxCell>
                </object>
                <object label="%block%" block="MotorDriver" type="block" name="" placeholders="1" id="nQfDzwbNITL3hgrU2a9h-5">
                    <mxCell style="rounded=0;whiteSpace=wrap;html=1;fontSize=11;points=[[0,0.5,0,0,0],[1,0.5,0,0,0]];metaEdit=1;snapToPoint=0;resizable=1;rotatable=0;allowArrows=0;container=1;resizeHeight=0;connectable=0;collapsible=0;movable=1;" vertex="1" parent="1">
                        <mxGeometry x="92" y="120" width="90" height="60" as="geometry"/>
                    </mxCell>
                </object>
                <object label="&lt;p style=&quot;line-height: 100%;&quot;&gt;&lt;br&gt;&lt;/p&gt;" type="inport" name="Vs" id="nQfDzwbNITL3hgrU2a9h-6">
                    <mxCell style="whiteSpace=wrap;html=1;aspect=fixed;snapToPoint=1;resizable=0;metaEdit=1;points=[[0,0.5,0,0,0]];editable=1;movable=1;rotatable=1;deletable=1;locked=0;connectable=1;noLabel=0;overflow=visible;direction=east;" vertex="1" parent="nQfDzwbNITL3hgrU2a9h-5">
                        <mxGeometry x="-5.42857142857143" y="11" width="10" height="10" as="geometry"/>
                    </mxCell>
                </object>
                <object label="&lt;p style=&quot;line-height: 100%;&quot;&gt;&lt;br&gt;&lt;/p&gt;" type="outport" name="v_A" id="nQfDzwbNITL3hgrU2a9h-7">
                    <mxCell style="whiteSpace=wrap;html=1;aspect=fixed;snapToPoint=1;resizable=0;metaEdit=1;points=[[1,0.5,0,0,0]];editable=1;movable=1;rotatable=1;deletable=1;locked=0;connectable=1;noLabel=0;overflow=visible;fillColor=#000000;" vertex="1" parent="nQfDzwbNITL3hgrU2a9h-5">
                        <mxGeometry x="84.57142857142858" y="25" width="10" height="10" as="geometry"/>
                    </mxCell>
                </object>
                <object label="&lt;p style=&quot;line-height: 100%;&quot;&gt;&lt;br&gt;&lt;/p&gt;" type="inport" name="u_M" id="nQfDzwbNITL3hgrU2a9h-8">
                    <mxCell style="whiteSpace=wrap;html=1;aspect=fixed;snapToPoint=1;resizable=0;metaEdit=1;points=[[0,0.5,0,0,0]];editable=1;movable=1;rotatable=1;deletable=1;locked=0;connectable=1;noLabel=0;overflow=visible;direction=east;" vertex="1" parent="nQfDzwbNITL3hgrU2a9h-5">
                        <mxGeometry x="-5.000000000000114" y="30.000000000000057" width="10" height="10" as="geometry"/>
                    </mxCell>
                </object>
                <object label="&lt;p style=&quot;line-height: 100%;&quot;&gt;&lt;br&gt;&lt;/p&gt;" type="inport" name="i_M" id="nQfDzwbNITL3hgrU2a9h-9">
                    <mxCell style="whiteSpace=wrap;html=1;aspect=fixed;snapToPoint=1;resizable=0;metaEdit=1;points=[[0,0.5,0,0,0]];editable=1;movable=1;rotatable=1;deletable=1;locked=0;connectable=1;noLabel=0;overflow=visible;direction=east;" vertex="1" parent="nQfDzwbNITL3hgrU2a9h-5">
                        <mxGeometry x="-5.000000000000114" y="48.00000000000006" width="10" height="10" as="geometry"/>
                    </mxCell>
                </object>
                <object label="&lt;p style=&quot;line-height: 100%;&quot;&gt;&lt;br&gt;&lt;/p&gt;" type="outport" name="v_i" id="nQfDzwbNITL3hgrU2a9h-10">
                    <mxCell style="whiteSpace=wrap;html=1;aspect=fixed;snapToPoint=1;resizable=0;metaEdit=1;points=[[1,0.5,0,0,0]];editable=1;movable=1;rotatable=1;deletable=1;locked=0;connectable=1;noLabel=0;overflow=visible;fillColor=#000000;" vertex="1" parent="nQfDzwbNITL3hgrU2a9h-5">
                        <mxGeometry x="85.00000000000011" y="42.00000000000006" width="10" height="10" as="geometry"/>
                    </mxCell>
                </object>
                <object label="%block%" block="DCMotorDisk" type="block" name="" placeholders="1" id="nQfDzwbNITL3hgrU2a9h-11">
                    <mxCell style="rounded=0;whiteSpace=wrap;html=1;fontSize=11;points=[[0,0.5,0,0,0],[1,0.5,0,0,0]];metaEdit=1;snapToPoint=0;resizable=1;rotatable=0;allowArrows=0;container=1;resizeHeight=0;connectable=0;collapsible=0;movable=1;" vertex="1" parent="1">
                        <mxGeometry x="224" y="100" width="90.00000000000011" height="60" as="geometry"/>
                    </mxCell>
                </object>
                <object label="&lt;p style=&quot;line-height: 100%;&quot;&gt;&lt;br&gt;&lt;/p&gt;" type="inport" name="v_M" id="nQfDzwbNITL3hgrU2a9h-12">
                    <mxCell style="whiteSpace=wrap;html=1;aspect=fixed;snapToPoint=1;resizable=0;metaEdit=1;points=[[0,0.5,0,0,0]];editable=1;movable=1;rotatable=1;deletable=1;locked=0;connectable=1;noLabel=0;overflow=visible;direction=east;" vertex="1" parent="nQfDzwbNITL3hgrU2a9h-11">
                        <mxGeometry x="-5.000000000000114" y="24.000000000000057" width="10" height="10" as="geometry"/>
                    </mxCell>
                </object>
                <object label="&lt;p style=&quot;line-height: 100%;&quot;&gt;&lt;br&gt;&lt;/p&gt;" type="outport" name="omega" id="nQfDzwbNITL3hgrU2a9h-13">
                    <mxCell style="whiteSpace=wrap;html=1;aspect=fixed;snapToPoint=1;resizable=0;metaEdit=1;points=[[1,0.5,0,0,0]];editable=1;movable=1;rotatable=1;deletable=1;locked=0;connectable=1;noLabel=0;overflow=visible;fillColor=#000000;" vertex="1" parent="nQfDzwbNITL3hgrU2a9h-11">
                        <mxGeometry x="85.00000000000011" y="8.000000000000057" width="10" height="10" as="geometry"/>
                    </mxCell>
                </object>
                <object label="&lt;p style=&quot;line-height: 100%;&quot;&gt;&lt;br&gt;&lt;/p&gt;" type="outport" name="i_M" id="nQfDzwbNITL3hgrU2a9h-14">
                    <mxCell style="whiteSpace=wrap;html=1;aspect=fixed;snapToPoint=1;resizable=0;metaEdit=1;points=[[1,0.5,0,0,0]];editable=1;movable=1;rotatable=1;deletable=1;locked=0;connectable=1;noLabel=0;overflow=visible;fillColor=#000000;" vertex="1" parent="nQfDzwbNITL3hgrU2a9h-11">
                        <mxGeometry x="86.00000000000011" y="42.00000000000006" width="10" height="10" as="geometry"/>
                    </mxCell>
                </object>
                <object label="%block%" block="Tachogenerator" type="block" name="" placeholders="1" id="nQfDzwbNITL3hgrU2a9h-15">
                    <mxCell style="rounded=0;whiteSpace=wrap;html=1;fontSize=11;points=[[0,0.5,0,0,0],[1,0.5,0,0,0]];metaEdit=1;snapToPoint=0;resizable=1;rotatable=0;allowArrows=0;container=1;resizeHeight=0;connectable=0;collapsible=0;movable=1;" vertex="1" parent="1">
                        <mxGeometry x="364" y="86" width="90" height="60" as="geometry"/>
                    </mxCell>
                </object>
                <object label="&lt;p style=&quot;line-height: 100%;&quot;&gt;&lt;br&gt;&lt;/p&gt;" type="inport" name="omega" id="nQfDzwbNITL3hgrU2a9h-16">
                    <mxCell style="whiteSpace=wrap;html=1;aspect=fixed;snapToPoint=1;resizable=0;metaEdit=1;points=[[0,0.5,0,0,0]];editable=1;movable=1;rotatable=1;deletable=1;locked=0;connectable=1;noLabel=0;overflow=visible;direction=east;" vertex="1" parent="nQfDzwbNITL3hgrU2a9h-15">
                        <mxGeometry x="-5.000000000000114" y="22.000000000000057" width="10" height="10" as="geometry"/>
                    </mxCell>
                </object>
                <object label="&lt;p style=&quot;line-height: 100%;&quot;&gt;&lt;br&gt;&lt;/p&gt;" type="outport" name="v_N" id="nQfDzwbNITL3hgrU2a9h-17">
                    <mxCell style="whiteSpace=wrap;html=1;aspect=fixed;snapToPoint=1;resizable=0;metaEdit=1;points=[[1,0.5,0,0,0]];editable=1;movable=1;rotatable=1;deletable=1;locked=0;connectable=1;noLabel=0;overflow=visible;fillColor=#000000;" vertex="1" parent="nQfDzwbNITL3hgrU2a9h-15">
                        <mxGeometry x="86.00000000000011" y="25.000000000000057" width="10" height="10" as="geometry"/>
                    </mxCell>
                </object>
                <object label="%name%" block="Outport" type="block" name="v_N" placeholders="1" id="nQfDzwbNITL3hgrU2a9h-18">
                    <mxCell style="ellipse;whiteSpace=wrap;html=1;fontSize=11;points=[[0.02,0.5,0,0,0]];metaEdit=1;snapToPoint=0;resizable=0;rotatable=0;allowArrows=0;container=1;collapsible=0;spacingTop=-4;movable=1;connectable=0;" vertex="1" parent="1">
                        <mxGeometry x="484" y="97" width="50" height="30" as="geometry"/>
                    </mxCell>
                </object>
                <object label="&lt;p style=&quot;line-height: 100%;&quot;&gt;&lt;br&gt;&lt;/p&gt;" type="inport" name="in" id="nQfDzwbNITL3hgrU2a9h-19">
                    <mxCell style="whiteSpace=wrap;html=1;aspect=fixed;snapToPoint=1;resizable=0;metaEdit=1;points=[[0,0.5,0,0,0]];editable=1;movable=0;rotatable=1;deletable=1;locked=0;connectable=1;noLabel=0;overflow=visible;direction=east;" vertex="1" parent="nQfDzwbNITL3hgrU2a9h-18">
                        <mxGeometry x="-4" y="10" width="10" height="10" as="geometry"/>
                    </mxCell>
                </object>
                <object label="%name%" block="Outport" type="block" name="v_i" placeholders="1" id="nQfDzwbNITL3hgrU2a9h-20">
                    <mxCell style="ellipse;whiteSpace=wrap;html=1;fontSize=11;points=[[0.02,0.5,0,0,0]];metaEdit=1;snapToPoint=0;resizable=0;rotatable=0;allowArrows=0;container=1;collapsible=0;spacingTop=-4;movable=1;connectable=0;" vertex="1" parent="1">
                        <mxGeometry x="490" y="186" width="50" height="30" as="geometry"/>
                    </mxCell>
                </object>
                <object label="&lt;p style=&quot;line-height: 100%;&quot;&gt;&lt;br&gt;&lt;/p&gt;" type="inport" name="in" id="nQfDzwbNITL3hgrU2a9h-21">
                    <mxCell style="whiteSpace=wrap;html=1;aspect=fixed;snapToPoint=1;resizable=0;metaEdit=1;points=[[0,0.5,0,0,0]];editable=1;movable=0;rotatable=1;deletable=1;locked=0;connectable=1;noLabel=0;overflow=visible;direction=east;" vertex="1" parent="nQfDzwbNITL3hgrU2a9h-20">
                        <mxGeometry x="-4" y="10" width="10" height="10" as="geometry"/>
                    </mxCell>
                </object>
                <mxCell id="nQfDzwbNITL3hgrU2a9h-22" style="edgeStyle=orthogonalEdgeStyle;html=1;exitX=1;exitY=0.5;exitDx=0;exitDy=0;exitPerimeter=0;entryX=0;entryY=0.5;entryDx=0;entryDy=0;entryPerimeter=0;" edge="1" parent="1" source="nQfDzwbNITL3hgrU2a9h-2" target="nQfDzwbNITL3hgrU2a9h-6">
                    <mxGeometry relative="1" as="geometry"/>
                </mxCell>
                <mxCell id="nQfDzwbNITL3hgrU2a9h-23" style="edgeStyle=orthogonalEdgeStyle;html=1;exitX=1;exitY=0.5;exitDx=0;exitDy=0;exitPerimeter=0;entryX=0;entryY=0.5;entryDx=0;entryDy=0;entryPerimeter=0;" edge="1" parent="1" source="nQfDzwbNITL3hgrU2a9h-4" target="nQfDzwbNITL3hgrU2a9h-8">
                    <mxGeometry relative="1" as="geometry"/>
                </mxCell>
                <mxCell id="nQfDzwbNITL3hgrU2a9h-24" style="edgeStyle=orthogonalEdgeStyle;html=1;exitX=1;exitY=0.5;exitDx=0;exitDy=0;exitPerimeter=0;entryX=0;entryY=0.5;entryDx=0;entryDy=0;entryPerimeter=0;" edge="1" parent="1" source="nQfDzwbNITL3hgrU2a9h-7" target="nQfDzwbNITL3hgrU2a9h-12">
                    <mxGeometry relative="1" as="geometry">
                        <mxPoint x="208" y="140" as="targetPoint"/>
                    </mxGeometry>
                </mxCell>
                <mxCell id="nQfDzwbNITL3hgrU2a9h-25" style="edgeStyle=orthogonalEdgeStyle;html=1;exitX=1;exitY=0.5;exitDx=0;exitDy=0;exitPerimeter=0;entryX=0;entryY=0.5;entryDx=0;entryDy=0;entryPerimeter=0;" edge="1" parent="1" source="nQfDzwbNITL3hgrU2a9h-13" target="nQfDzwbNITL3hgrU2a9h-16">
                    <mxGeometry relative="1" as="geometry"/>
                </mxCell>
                <mxCell id="nQfDzwbNITL3hgrU2a9h-26" style="edgeStyle=orthogonalEdgeStyle;html=1;exitX=1;exitY=0.5;exitDx=0;exitDy=0;exitPerimeter=0;entryX=0;entryY=0.5;entryDx=0;entryDy=0;entryPerimeter=0;" edge="1" parent="1" source="nQfDzwbNITL3hgrU2a9h-17" target="nQfDzwbNITL3hgrU2a9h-19">
                    <mxGeometry relative="1" as="geometry"/>
                </mxCell>
                <mxCell id="nQfDzwbNITL3hgrU2a9h-27" style="edgeStyle=orthogonalEdgeStyle;html=1;exitX=1;exitY=0.5;exitDx=0;exitDy=0;exitPerimeter=0;entryX=0;entryY=0.5;entryDx=0;entryDy=0;entryPerimeter=0;" edge="1" parent="1" source="nQfDzwbNITL3hgrU2a9h-10" target="nQfDzwbNITL3hgrU2a9h-30">
                    <mxGeometry relative="1" as="geometry"/>
                </mxCell>
                <mxCell id="nQfDzwbNITL3hgrU2a9h-28" style="edgeStyle=orthogonalEdgeStyle;html=1;exitX=1;exitY=0.5;exitDx=0;exitDy=0;exitPerimeter=0;entryX=0;entryY=0.5;entryDx=0;entryDy=0;entryPerimeter=0;" edge="1" parent="1" source="nQfDzwbNITL3hgrU2a9h-14" target="nQfDzwbNITL3hgrU2a9h-9">
                    <mxGeometry relative="1" as="geometry">
                        <Array as="points">
                            <mxPoint x="330" y="147"/>
                            <mxPoint x="330" y="248"/>
                            <mxPoint x="77" y="248"/>
                            <mxPoint x="77" y="173"/>
                        </Array>
                    </mxGeometry>
                </mxCell>
                <object label="Saturation" block="Saturation" upperlimit="5" lowerlimit="0" type="block" name="" id="nQfDzwbNITL3hgrU2a9h-29">
                    <mxCell style="rounded=0;whiteSpace=wrap;html=1;fontSize=11;points=[[0,0.5,0,0,0],[1,0.5,0,0,0]];metaEdit=1;snapToPoint=0;resizable=0;rotatable=0;allowArrows=0;container=1;connectable=0;collapsible=0;movable=1;" vertex="1" parent="1">
                        <mxGeometry x="384" y="252" width="70" height="40" as="geometry"/>
                    </mxCell>
                </object>
                <object label="&lt;p style=&quot;line-height: 100%;&quot;&gt;&lt;br&gt;&lt;/p&gt;" type="inport" name="in" id="nQfDzwbNITL3hgrU2a9h-30">
                    <mxCell style="whiteSpace=wrap;html=1;aspect=fixed;snapToPoint=1;resizable=0;metaEdit=1;points=[[0,0.5,0,0,0]];editable=1;movable=0;rotatable=1;deletable=1;locked=0;connectable=1;noLabel=0;overflow=visible;direction=east;" vertex="1" parent="nQfDzwbNITL3hgrU2a9h-29">
                        <mxGeometry x="-5" y="15" width="10" height="10" as="geometry"/>
                    </mxCell>
                </object>
                <object label="&lt;p style=&quot;line-height: 100%;&quot;&gt;&lt;br&gt;&lt;/p&gt;" type="outport" name="out" id="nQfDzwbNITL3hgrU2a9h-31">
                    <mxCell style="whiteSpace=wrap;html=1;aspect=fixed;snapToPoint=1;resizable=0;metaEdit=1;points=[[1,0.5,0,0,0]];editable=1;movable=0;rotatable=1;deletable=1;locked=0;connectable=1;noLabel=0;overflow=visible;fillColor=#000000;" vertex="1" parent="nQfDzwbNITL3hgrU2a9h-29">
                        <mxGeometry x="65" y="15" width="10" height="10" as="geometry"/>
                    </mxCell>
                </object>
                <mxCell id="nQfDzwbNITL3hgrU2a9h-32" style="edgeStyle=orthogonalEdgeStyle;html=1;exitX=1;exitY=0.5;exitDx=0;exitDy=0;exitPerimeter=0;entryX=0;entryY=0.5;entryDx=0;entryDy=0;entryPerimeter=0;" edge="1" parent="1" source="nQfDzwbNITL3hgrU2a9h-31" target="nQfDzwbNITL3hgrU2a9h-21">
                    <mxGeometry relative="1" as="geometry"/>
                </mxCell>
            </root>
        </mxGraphModel>
    </diagram>
    <diagram id="lIe479oIeEobi6QjRWt8" name="PIDControl">
        <mxGraphModel dx="1064" dy="331" grid="1" gridSize="2" guides="1" tooltips="1" connect="1" arrows="1" fold="1" page="0" pageScale="1" pageWidth="827" pageHeight="1169" math="0" shadow="0">
            <root>
                <mxCell id="0"/>
                <mxCell id="1" parent="0"/>
                <object label="%value%" block="Constant" value="SV" type="block" name="" placeholders="1" id="U5rKFNsNTDXOEKKOMWsq-1">
                    <mxCell style="whiteSpace=wrap;html=1;fontSize=11;points=[[1,0.5,0,0,0]];metaEdit=1;snapToPoint=0;resizable=0;rotatable=0;allowArrows=0;container=1;resizeWidth=0;connectable=0;collapsible=0;movable=1;" vertex="1" parent="1">
                        <mxGeometry x="-8" y="124" width="70" height="40" as="geometry"/>
                    </mxCell>
                </object>
                <object label="&lt;p style=&quot;line-height: 100%;&quot;&gt;&lt;br&gt;&lt;/p&gt;" type="outport" name="out" id="U5rKFNsNTDXOEKKOMWsq-2">
                    <mxCell style="whiteSpace=wrap;html=1;aspect=fixed;snapToPoint=1;resizable=0;metaEdit=1;points=[[1,0.5,0,0,0]];editable=1;movable=0;rotatable=1;deletable=1;locked=0;connectable=1;noLabel=0;overflow=visible;fillColor=#000000;" vertex="1" parent="U5rKFNsNTDXOEKKOMWsq-1">
                        <mxGeometry x="65.25" y="15" width="10" height="10" as="geometry"/>
                    </mxCell>
                </object>
                <object label="%name%" block="Inport" type="block" name="Nstar" placeholders="1" id="U5rKFNsNTDXOEKKOMWsq-3">
                    <mxCell style="ellipse;whiteSpace=wrap;html=1;fontSize=11;points=[[1,0.5,0,0,0]];metaEdit=1;snapToPoint=0;resizable=0;rotatable=0;allowArrows=0;container=1;collapsible=0;spacingTop=-5;movable=1;connectable=0;" vertex="1" parent="1">
                        <mxGeometry x="-2.0000000000001137" y="216" width="50" height="30" as="geometry"/>
                    </mxCell>
                </object>
                <object label="&lt;p style=&quot;line-height: 100%;&quot;&gt;&lt;br&gt;&lt;/p&gt;" type="outport" name="out" id="U5rKFNsNTDXOEKKOMWsq-4">
                    <mxCell style="whiteSpace=wrap;html=1;aspect=fixed;snapToPoint=1;resizable=0;metaEdit=1;points=[[1,0.5,0,0,0]];editable=1;movable=0;rotatable=1;deletable=1;locked=0;connectable=1;noLabel=0;overflow=visible;fillColor=#000000;" vertex="1" parent="U5rKFNsNTDXOEKKOMWsq-3">
                        <mxGeometry x="45" y="10" width="10" height="10" as="geometry"/>
                    </mxCell>
                </object>
                <object label="%signs%" block="Add" signs="[:+, :-]" type="block" name="" placeholders="1" id="U5rKFNsNTDXOEKKOMWsq-5">
                    <mxCell style="rounded=0;whiteSpace=wrap;html=1;fontSize=11;points=[[0,0.24,0,0,0],[0,0.76,0,0,0],[1,0.5,0,0,0]];metaEdit=1;snapToPoint=0;allowArrows=0;resizable=0;container=1;collapsible=0;movable=1;connectable=0;" vertex="1" parent="1">
                        <mxGeometry x="112" y="152" width="40" height="80" as="geometry"/>
                    </mxCell>
                </object>
                <object label="&lt;p style=&quot;line-height: 100%;&quot;&gt;&lt;br&gt;&lt;/p&gt;" type="outport" name="out" id="U5rKFNsNTDXOEKKOMWsq-6">
                    <mxCell style="whiteSpace=wrap;html=1;aspect=fixed;snapToPoint=1;resizable=0;metaEdit=1;points=[[1,0.5,0,0,0]];editable=1;movable=0;rotatable=1;deletable=1;locked=0;connectable=1;noLabel=0;overflow=visible;fillColor=#000000;" vertex="1" parent="U5rKFNsNTDXOEKKOMWsq-5">
                        <mxGeometry x="35" y="34.285714285714285" width="10" height="10" as="geometry"/>
                    </mxCell>
                </object>
                <object label="&lt;p style=&quot;line-height: 100%;&quot;&gt;&lt;br&gt;&lt;/p&gt;" type="inport" name="in1" id="U5rKFNsNTDXOEKKOMWsq-7">
                    <mxCell style="whiteSpace=wrap;html=1;aspect=fixed;snapToPoint=1;resizable=0;metaEdit=1;points=[[0,0.5,0,0,0]];editable=1;movable=0;rotatable=1;deletable=1;locked=0;connectable=1;noLabel=0;overflow=visible;direction=east;" vertex="1" parent="U5rKFNsNTDXOEKKOMWsq-5">
                        <mxGeometry x="-5" y="9" width="10" height="10" as="geometry"/>
                    </mxCell>
                </object>
                <object label="&lt;p style=&quot;line-height: 100%;&quot;&gt;&lt;br&gt;&lt;/p&gt;" type="inport" name="in2" id="U5rKFNsNTDXOEKKOMWsq-8">
                    <mxCell style="whiteSpace=wrap;html=1;aspect=fixed;snapToPoint=1;resizable=0;metaEdit=1;points=[[0,0.5,0,0,0]];editable=1;movable=0;rotatable=1;deletable=1;locked=0;connectable=1;noLabel=0;overflow=visible;direction=east;" vertex="1" parent="U5rKFNsNTDXOEKKOMWsq-5">
                        <mxGeometry x="-5" y="26" width="10" height="10" as="geometry"/>
                    </mxCell>
                </object>
                <object label="1/s" block="Integrator" initialcondition="0" type="block" name="" id="U5rKFNsNTDXOEKKOMWsq-11">
                    <mxCell style="whiteSpace=wrap;html=1;aspect=fixed;fontSize=11;points=[[0,0.5,0,0,0],[1,0.5,0,0,0]];metaEdit=1;snapToPoint=0;resizable=0;rotatable=0;allowArrows=0;container=1;collapsible=0;movable=1;connectable=0;" vertex="1" parent="1">
                        <mxGeometry x="208" y="170" width="40" height="40" as="geometry"/>
                    </mxCell>
                </object>
                <object label="&lt;p style=&quot;line-height: 100%;&quot;&gt;&lt;br&gt;&lt;/p&gt;" type="outport" name="out" id="U5rKFNsNTDXOEKKOMWsq-12">
                    <mxCell style="whiteSpace=wrap;html=1;aspect=fixed;snapToPoint=1;resizable=0;metaEdit=1;points=[[1,0.5,0,0,0]];editable=1;movable=0;rotatable=1;deletable=1;locked=0;connectable=1;noLabel=0;overflow=visible;fillColor=#000000;" vertex="1" parent="U5rKFNsNTDXOEKKOMWsq-11">
                        <mxGeometry x="35" y="15" width="10" height="10" as="geometry"/>
                    </mxCell>
                </object>
                <object label="&lt;p style=&quot;line-height: 100%;&quot;&gt;&lt;br&gt;&lt;/p&gt;" type="inport" name="in" id="U5rKFNsNTDXOEKKOMWsq-13">
                    <mxCell style="whiteSpace=wrap;html=1;aspect=fixed;snapToPoint=1;resizable=0;metaEdit=1;points=[[0,0.5,0,0,0]];editable=1;movable=0;rotatable=1;deletable=1;locked=0;connectable=1;noLabel=0;overflow=visible;direction=east;" vertex="1" parent="U5rKFNsNTDXOEKKOMWsq-11">
                        <mxGeometry x="-5" y="15" width="10" height="10" as="geometry"/>
                    </mxCell>
                </object>
                <object label="dx/dt" block="Derivative" initialcondition="0" type="block" name="" id="U5rKFNsNTDXOEKKOMWsq-14">
                    <mxCell style="whiteSpace=wrap;html=1;aspect=fixed;fontSize=11;points=[[0,0.5,0,0,0],[1,0.5,0,0,0]];metaEdit=1;snapToPoint=0;resizable=0;rotatable=0;allowArrows=0;container=1;collapsible=0;movable=1;connectable=0;" vertex="1" parent="1">
                        <mxGeometry x="210" y="240" width="40" height="40" as="geometry"/>
                    </mxCell>
                </object>
                <object label="&lt;p style=&quot;line-height: 100%;&quot;&gt;&lt;br&gt;&lt;/p&gt;" type="outport" name="out" id="U5rKFNsNTDXOEKKOMWsq-15">
                    <mxCell style="whiteSpace=wrap;html=1;aspect=fixed;snapToPoint=1;resizable=0;metaEdit=1;points=[[1,0.5,0,0,0]];editable=1;movable=0;rotatable=1;deletable=1;locked=0;connectable=1;noLabel=0;overflow=visible;fillColor=#000000;" vertex="1" parent="U5rKFNsNTDXOEKKOMWsq-14">
                        <mxGeometry x="35" y="15" width="10" height="10" as="geometry"/>
                    </mxCell>
                </object>
                <object label="&lt;p style=&quot;line-height: 100%;&quot;&gt;&lt;br&gt;&lt;/p&gt;" type="inport" name="in" id="U5rKFNsNTDXOEKKOMWsq-16">
                    <mxCell style="whiteSpace=wrap;html=1;aspect=fixed;snapToPoint=1;resizable=0;metaEdit=1;points=[[0,0.5,0,0,0]];editable=1;movable=0;rotatable=1;deletable=1;locked=0;connectable=1;noLabel=0;overflow=visible;direction=east;" vertex="1" parent="U5rKFNsNTDXOEKKOMWsq-14">
                        <mxGeometry x="-5" y="15" width="10" height="10" as="geometry"/>
                    </mxCell>
                </object>
                <object label="%K%" block="Gain" K="K_P" type="block" name="" placeholders="1" id="U5rKFNsNTDXOEKKOMWsq-17">
                    <mxCell style="triangle;html=1;points=[[0,0.5,0,0,0],[1,0.5,0,0,0]];whiteSpace=wrap;fontSize=11;align=center;spacingLeft=-7;metaEdit=1;snapToPoint=0;allowArrows=0;resizable=0;rotatable=0;container=1;collapsible=0;movable=1;connectable=0;" vertex="1" parent="1">
                        <mxGeometry x="290" y="74" width="50" height="50" as="geometry"/>
                    </mxCell>
                </object>
                <object label="&lt;p style=&quot;line-height: 100%;&quot;&gt;&lt;br&gt;&lt;/p&gt;" type="inport" name="in" id="U5rKFNsNTDXOEKKOMWsq-18">
                    <mxCell style="whiteSpace=wrap;html=1;aspect=fixed;snapToPoint=1;resizable=0;metaEdit=1;points=[[0,0.5,0,0,0]];editable=1;movable=0;rotatable=1;deletable=1;locked=0;connectable=1;noLabel=0;overflow=visible;direction=east;" vertex="1" parent="U5rKFNsNTDXOEKKOMWsq-17">
                        <mxGeometry x="-5" y="20" width="10" height="10" as="geometry"/>
                    </mxCell>
                </object>
                <object label="&lt;p style=&quot;line-height: 100%;&quot;&gt;&lt;br&gt;&lt;/p&gt;" type="outport" name="out" id="U5rKFNsNTDXOEKKOMWsq-19">
                    <mxCell style="whiteSpace=wrap;html=1;aspect=fixed;snapToPoint=1;resizable=0;metaEdit=1;points=[[1,0.5,0,0,0]];editable=1;movable=0;rotatable=1;deletable=1;locked=0;connectable=1;noLabel=0;overflow=visible;fillColor=#000000;" vertex="1" parent="U5rKFNsNTDXOEKKOMWsq-17">
                        <mxGeometry x="45" y="20" width="10" height="10" as="geometry"/>
                    </mxCell>
                </object>
                <object label="%K%" block="Gain" K="K_I" type="block" name="" placeholders="1" id="U5rKFNsNTDXOEKKOMWsq-20">
                    <mxCell style="triangle;html=1;points=[[0,0.5,0,0,0],[1,0.5,0,0,0]];whiteSpace=wrap;fontSize=11;align=center;spacingLeft=-7;metaEdit=1;snapToPoint=0;allowArrows=0;resizable=0;rotatable=0;container=1;collapsible=0;movable=1;connectable=0;" vertex="1" parent="1">
                        <mxGeometry x="294" y="162" width="50" height="50" as="geometry"/>
                    </mxCell>
                </object>
                <object label="&lt;p style=&quot;line-height: 100%;&quot;&gt;&lt;br&gt;&lt;/p&gt;" type="inport" name="in" id="U5rKFNsNTDXOEKKOMWsq-21">
                    <mxCell style="whiteSpace=wrap;html=1;aspect=fixed;snapToPoint=1;resizable=0;metaEdit=1;points=[[0,0.5,0,0,0]];editable=1;movable=0;rotatable=1;deletable=1;locked=0;connectable=1;noLabel=0;overflow=visible;direction=east;" vertex="1" parent="U5rKFNsNTDXOEKKOMWsq-20">
                        <mxGeometry x="-5" y="20" width="10" height="10" as="geometry"/>
                    </mxCell>
                </object>
                <object label="&lt;p style=&quot;line-height: 100%;&quot;&gt;&lt;br&gt;&lt;/p&gt;" type="outport" name="out" id="U5rKFNsNTDXOEKKOMWsq-22">
                    <mxCell style="whiteSpace=wrap;html=1;aspect=fixed;snapToPoint=1;resizable=0;metaEdit=1;points=[[1,0.5,0,0,0]];editable=1;movable=0;rotatable=1;deletable=1;locked=0;connectable=1;noLabel=0;overflow=visible;fillColor=#000000;" vertex="1" parent="U5rKFNsNTDXOEKKOMWsq-20">
                        <mxGeometry x="45" y="20" width="10" height="10" as="geometry"/>
                    </mxCell>
                </object>
                <object label="%K%" block="Gain" K="K_D" type="block" name="" placeholders="1" id="U5rKFNsNTDXOEKKOMWsq-23">
                    <mxCell style="triangle;html=1;points=[[0,0.5,0,0,0],[1,0.5,0,0,0]];whiteSpace=wrap;fontSize=11;align=center;spacingLeft=-7;metaEdit=1;snapToPoint=0;allowArrows=0;resizable=0;rotatable=0;container=1;collapsible=0;movable=1;connectable=0;" vertex="1" parent="1">
                        <mxGeometry x="300" y="238" width="50" height="50" as="geometry"/>
                    </mxCell>
                </object>
                <object label="&lt;p style=&quot;line-height: 100%;&quot;&gt;&lt;br&gt;&lt;/p&gt;" type="inport" name="in" id="U5rKFNsNTDXOEKKOMWsq-24">
                    <mxCell style="whiteSpace=wrap;html=1;aspect=fixed;snapToPoint=1;resizable=0;metaEdit=1;points=[[0,0.5,0,0,0]];editable=1;movable=0;rotatable=1;deletable=1;locked=0;connectable=1;noLabel=0;overflow=visible;direction=east;" vertex="1" parent="U5rKFNsNTDXOEKKOMWsq-23">
                        <mxGeometry x="-5" y="20" width="10" height="10" as="geometry"/>
                    </mxCell>
                </object>
                <object label="&lt;p style=&quot;line-height: 100%;&quot;&gt;&lt;br&gt;&lt;/p&gt;" type="outport" name="out" id="U5rKFNsNTDXOEKKOMWsq-25">
                    <mxCell style="whiteSpace=wrap;html=1;aspect=fixed;snapToPoint=1;resizable=0;metaEdit=1;points=[[1,0.5,0,0,0]];editable=1;movable=0;rotatable=1;deletable=1;locked=0;connectable=1;noLabel=0;overflow=visible;fillColor=#000000;" vertex="1" parent="U5rKFNsNTDXOEKKOMWsq-23">
                        <mxGeometry x="45" y="20" width="10" height="10" as="geometry"/>
                    </mxCell>
                </object>
                <object label="Saturation" block="Saturation" upperlimit="u_max" lowerlimit="u_min" type="block" name="" id="U5rKFNsNTDXOEKKOMWsq-32">
                    <mxCell style="rounded=0;whiteSpace=wrap;html=1;fontSize=11;points=[[0,0.5,0,0,0],[1,0.5,0,0,0]];metaEdit=1;snapToPoint=0;resizable=0;rotatable=0;allowArrows=0;container=1;connectable=0;collapsible=0;movable=1;" vertex="1" parent="1">
                        <mxGeometry x="502" y="158" width="70" height="40" as="geometry"/>
                    </mxCell>
                </object>
                <object label="&lt;p style=&quot;line-height: 100%;&quot;&gt;&lt;br&gt;&lt;/p&gt;" type="inport" name="in" id="U5rKFNsNTDXOEKKOMWsq-33">
                    <mxCell style="whiteSpace=wrap;html=1;aspect=fixed;snapToPoint=1;resizable=0;metaEdit=1;points=[[0,0.5,0,0,0]];editable=1;movable=0;rotatable=1;deletable=1;locked=0;connectable=1;noLabel=0;overflow=visible;direction=east;" vertex="1" parent="U5rKFNsNTDXOEKKOMWsq-32">
                        <mxGeometry x="-5" y="15" width="10" height="10" as="geometry"/>
                    </mxCell>
                </object>
                <object label="&lt;p style=&quot;line-height: 100%;&quot;&gt;&lt;br&gt;&lt;/p&gt;" type="outport" name="out" id="U5rKFNsNTDXOEKKOMWsq-34">
                    <mxCell style="whiteSpace=wrap;html=1;aspect=fixed;snapToPoint=1;resizable=0;metaEdit=1;points=[[1,0.5,0,0,0]];editable=1;movable=0;rotatable=1;deletable=1;locked=0;connectable=1;noLabel=0;overflow=visible;fillColor=#000000;" vertex="1" parent="U5rKFNsNTDXOEKKOMWsq-32">
                        <mxGeometry x="65" y="15" width="10" height="10" as="geometry"/>
                    </mxCell>
                </object>
                <object label="%name%" block="Outport" type="block" name="u" placeholders="1" id="U5rKFNsNTDXOEKKOMWsq-35">
                    <mxCell style="ellipse;whiteSpace=wrap;html=1;fontSize=11;points=[[0.02,0.5,0,0,0]];metaEdit=1;snapToPoint=0;resizable=0;rotatable=0;allowArrows=0;container=1;collapsible=0;spacingTop=-4;movable=1;connectable=0;" vertex="1" parent="1">
                        <mxGeometry x="622" y="162" width="50" height="30" as="geometry"/>
                    </mxCell>
                </object>
                <object label="&lt;p style=&quot;line-height: 100%;&quot;&gt;&lt;br&gt;&lt;/p&gt;" type="inport" name="in" id="U5rKFNsNTDXOEKKOMWsq-36">
                    <mxCell style="whiteSpace=wrap;html=1;aspect=fixed;snapToPoint=1;resizable=0;metaEdit=1;points=[[0,0.5,0,0,0]];editable=1;movable=0;rotatable=1;deletable=1;locked=0;connectable=1;noLabel=0;overflow=visible;direction=east;" vertex="1" parent="U5rKFNsNTDXOEKKOMWsq-35">
                        <mxGeometry x="-4" y="10" width="10" height="10" as="geometry"/>
                    </mxCell>
                </object>
                <mxCell id="U5rKFNsNTDXOEKKOMWsq-37" style="edgeStyle=orthogonalEdgeStyle;html=1;exitX=1;exitY=0.5;exitDx=0;exitDy=0;exitPerimeter=0;entryX=0;entryY=0.5;entryDx=0;entryDy=0;entryPerimeter=0;" edge="1" parent="1" source="U5rKFNsNTDXOEKKOMWsq-4" target="U5rKFNsNTDXOEKKOMWsq-8">
                    <mxGeometry relative="1" as="geometry"/>
                </mxCell>
                <mxCell id="U5rKFNsNTDXOEKKOMWsq-38" style="edgeStyle=orthogonalEdgeStyle;html=1;exitX=1;exitY=0.5;exitDx=0;exitDy=0;exitPerimeter=0;entryX=0;entryY=0.5;entryDx=0;entryDy=0;entryPerimeter=0;" edge="1" parent="1" source="U5rKFNsNTDXOEKKOMWsq-2" target="U5rKFNsNTDXOEKKOMWsq-7">
                    <mxGeometry relative="1" as="geometry"/>
                </mxCell>
                <mxCell id="U5rKFNsNTDXOEKKOMWsq-39" style="edgeStyle=orthogonalEdgeStyle;html=1;exitX=1;exitY=0.5;exitDx=0;exitDy=0;exitPerimeter=0;entryX=0;entryY=0.5;entryDx=0;entryDy=0;entryPerimeter=0;" edge="1" parent="1" source="U5rKFNsNTDXOEKKOMWsq-6" target="U5rKFNsNTDXOEKKOMWsq-13">
                    <mxGeometry relative="1" as="geometry"/>
                </mxCell>
                <mxCell id="U5rKFNsNTDXOEKKOMWsq-40" style="edgeStyle=orthogonalEdgeStyle;html=1;exitX=1;exitY=0.5;exitDx=0;exitDy=0;exitPerimeter=0;entryX=0;entryY=0.5;entryDx=0;entryDy=0;entryPerimeter=0;" edge="1" parent="1" source="U5rKFNsNTDXOEKKOMWsq-6" target="U5rKFNsNTDXOEKKOMWsq-16">
                    <mxGeometry relative="1" as="geometry"/>
                </mxCell>
                <mxCell id="U5rKFNsNTDXOEKKOMWsq-41" style="edgeStyle=orthogonalEdgeStyle;html=1;exitX=1;exitY=0.5;exitDx=0;exitDy=0;exitPerimeter=0;entryX=0;entryY=0.5;entryDx=0;entryDy=0;entryPerimeter=0;" edge="1" parent="1" source="U5rKFNsNTDXOEKKOMWsq-6" target="U5rKFNsNTDXOEKKOMWsq-18">
                    <mxGeometry relative="1" as="geometry"/>
                </mxCell>
                <mxCell id="U5rKFNsNTDXOEKKOMWsq-42" style="edgeStyle=orthogonalEdgeStyle;html=1;exitX=1;exitY=0.5;exitDx=0;exitDy=0;exitPerimeter=0;entryX=0;entryY=0.5;entryDx=0;entryDy=0;entryPerimeter=0;" edge="1" parent="1" source="U5rKFNsNTDXOEKKOMWsq-12" target="U5rKFNsNTDXOEKKOMWsq-21">
                    <mxGeometry relative="1" as="geometry"/>
                </mxCell>
                <mxCell id="U5rKFNsNTDXOEKKOMWsq-43" style="edgeStyle=orthogonalEdgeStyle;html=1;exitX=1;exitY=0.5;exitDx=0;exitDy=0;exitPerimeter=0;entryX=0;entryY=0.5;entryDx=0;entryDy=0;entryPerimeter=0;" edge="1" parent="1" source="U5rKFNsNTDXOEKKOMWsq-15" target="U5rKFNsNTDXOEKKOMWsq-24">
                    <mxGeometry relative="1" as="geometry"/>
                </mxCell>
                <object label="%signs%" block="Add" signs="[:+, :+, :+]" type="block" name="" placeholders="1" id="U5rKFNsNTDXOEKKOMWsq-44">
                    <mxCell style="rounded=0;whiteSpace=wrap;html=1;fontSize=11;points=[[0,0.24,0,0,0],[0,0.76,0,0,0],[1,0.5,0,0,0]];metaEdit=1;snapToPoint=0;allowArrows=0;resizable=0;container=1;collapsible=0;movable=1;connectable=0;" vertex="1" parent="1">
                        <mxGeometry x="404" y="128" width="40" height="80" as="geometry"/>
                    </mxCell>
                </object>
                <object label="&lt;p style=&quot;line-height: 100%;&quot;&gt;&lt;br&gt;&lt;/p&gt;" type="outport" name="out" id="U5rKFNsNTDXOEKKOMWsq-45">
                    <mxCell style="whiteSpace=wrap;html=1;aspect=fixed;snapToPoint=1;resizable=0;metaEdit=1;points=[[1,0.5,0,0,0]];editable=1;movable=0;rotatable=1;deletable=1;locked=0;connectable=1;noLabel=0;overflow=visible;fillColor=#000000;" vertex="1" parent="U5rKFNsNTDXOEKKOMWsq-44">
                        <mxGeometry x="35" y="34.285714285714285" width="10" height="10" as="geometry"/>
                    </mxCell>
                </object>
                <object label="&lt;p style=&quot;line-height: 100%;&quot;&gt;&lt;br&gt;&lt;/p&gt;" type="inport" name="in1" id="U5rKFNsNTDXOEKKOMWsq-46">
                    <mxCell style="whiteSpace=wrap;html=1;aspect=fixed;snapToPoint=1;resizable=0;metaEdit=1;points=[[0,0.5,0,0,0]];editable=1;movable=0;rotatable=1;deletable=1;locked=0;connectable=1;noLabel=0;overflow=visible;direction=east;" vertex="1" parent="U5rKFNsNTDXOEKKOMWsq-44">
                        <mxGeometry x="-5" y="9" width="10" height="10" as="geometry"/>
                    </mxCell>
                </object>
                <object label="&lt;p style=&quot;line-height: 100%;&quot;&gt;&lt;br&gt;&lt;/p&gt;" type="inport" name="in2" id="U5rKFNsNTDXOEKKOMWsq-47">
                    <mxCell style="whiteSpace=wrap;html=1;aspect=fixed;snapToPoint=1;resizable=0;metaEdit=1;points=[[0,0.5,0,0,0]];editable=1;movable=0;rotatable=1;deletable=1;locked=0;connectable=1;noLabel=0;overflow=visible;direction=east;" vertex="1" parent="U5rKFNsNTDXOEKKOMWsq-44">
                        <mxGeometry x="-5" y="26" width="10" height="10" as="geometry"/>
                    </mxCell>
                </object>
                <object label="&lt;p style=&quot;line-height: 100%;&quot;&gt;&lt;br&gt;&lt;/p&gt;" type="inport" name="in3" id="U5rKFNsNTDXOEKKOMWsq-48">
                    <mxCell style="whiteSpace=wrap;html=1;aspect=fixed;snapToPoint=1;resizable=0;metaEdit=1;points=[[0,0.5,0,0,0]];editable=1;movable=0;rotatable=1;deletable=1;locked=0;connectable=1;noLabel=0;overflow=visible;direction=east;" vertex="1" parent="U5rKFNsNTDXOEKKOMWsq-44">
                        <mxGeometry x="-5" y="43" width="10" height="10" as="geometry"/>
                    </mxCell>
                </object>
                <mxCell id="U5rKFNsNTDXOEKKOMWsq-50" style="edgeStyle=orthogonalEdgeStyle;html=1;exitX=1;exitY=0.5;exitDx=0;exitDy=0;exitPerimeter=0;entryX=0;entryY=0.5;entryDx=0;entryDy=0;entryPerimeter=0;" edge="1" parent="1" source="U5rKFNsNTDXOEKKOMWsq-19" target="U5rKFNsNTDXOEKKOMWsq-46">
                    <mxGeometry relative="1" as="geometry"/>
                </mxCell>
                <mxCell id="U5rKFNsNTDXOEKKOMWsq-51" style="edgeStyle=orthogonalEdgeStyle;html=1;exitX=1;exitY=0.5;exitDx=0;exitDy=0;exitPerimeter=0;entryX=0;entryY=0.5;entryDx=0;entryDy=0;entryPerimeter=0;" edge="1" parent="1" source="U5rKFNsNTDXOEKKOMWsq-22" target="U5rKFNsNTDXOEKKOMWsq-47">
                    <mxGeometry relative="1" as="geometry"/>
                </mxCell>
                <mxCell id="U5rKFNsNTDXOEKKOMWsq-52" style="edgeStyle=orthogonalEdgeStyle;html=1;exitX=1;exitY=0.5;exitDx=0;exitDy=0;exitPerimeter=0;entryX=0;entryY=0.5;entryDx=0;entryDy=0;entryPerimeter=0;" edge="1" parent="1" source="U5rKFNsNTDXOEKKOMWsq-25" target="U5rKFNsNTDXOEKKOMWsq-48">
                    <mxGeometry relative="1" as="geometry"/>
                </mxCell>
                <mxCell id="U5rKFNsNTDXOEKKOMWsq-53" style="edgeStyle=orthogonalEdgeStyle;html=1;exitX=1;exitY=0.5;exitDx=0;exitDy=0;exitPerimeter=0;entryX=0;entryY=0.5;entryDx=0;entryDy=0;entryPerimeter=0;" edge="1" parent="1" source="U5rKFNsNTDXOEKKOMWsq-45" target="U5rKFNsNTDXOEKKOMWsq-33">
                    <mxGeometry relative="1" as="geometry"/>
                </mxCell>
                <mxCell id="U5rKFNsNTDXOEKKOMWsq-54" style="edgeStyle=orthogonalEdgeStyle;html=1;exitX=1;exitY=0.5;exitDx=0;exitDy=0;exitPerimeter=0;entryX=0;entryY=0.5;entryDx=0;entryDy=0;entryPerimeter=0;" edge="1" parent="1" source="U5rKFNsNTDXOEKKOMWsq-34" target="U5rKFNsNTDXOEKKOMWsq-36">
                    <mxGeometry relative="1" as="geometry"/>
                </mxCell>
            </root>
        </mxGraphModel>
    </diagram>
    <diagram id="0lC6mzCY6IyCOWMXLvUd" name="Controller">
        <mxGraphModel dx="1064" dy="331" grid="1" gridSize="2" guides="1" tooltips="1" connect="1" arrows="1" fold="1" page="0" pageScale="1" pageWidth="827" pageHeight="1169" math="0" shadow="0">
            <root>
                <mxCell id="0"/>
                <mxCell id="1" parent="0"/>
                <object label="%name%" block="Inport" type="block" name="d_N" placeholders="1" id="53Wxo-phatnWuWdNYizw-1">
                    <mxCell style="ellipse;whiteSpace=wrap;html=1;fontSize=11;points=[[1,0.5,0,0,0]];metaEdit=1;snapToPoint=0;resizable=0;rotatable=0;allowArrows=0;container=1;collapsible=0;spacingTop=-5;movable=1;connectable=0;" vertex="1" parent="1">
                        <mxGeometry x="-80.00000000000011" y="94" width="50" height="30" as="geometry"/>
                    </mxCell>
                </object>
                <object label="&lt;p style=&quot;line-height: 100%;&quot;&gt;&lt;br&gt;&lt;/p&gt;" type="outport" name="out" id="53Wxo-phatnWuWdNYizw-2">
                    <mxCell style="whiteSpace=wrap;html=1;aspect=fixed;snapToPoint=1;resizable=0;metaEdit=1;points=[[1,0.5,0,0,0]];editable=1;movable=0;rotatable=1;deletable=1;locked=0;connectable=1;noLabel=0;overflow=visible;fillColor=#000000;" vertex="1" parent="53Wxo-phatnWuWdNYizw-1">
                        <mxGeometry x="45" y="10" width="10" height="10" as="geometry"/>
                    </mxCell>
                </object>
                <object label="%name%" block="Inport" type="block" name="d_i" placeholders="1" id="53Wxo-phatnWuWdNYizw-3">
                    <mxCell style="ellipse;whiteSpace=wrap;html=1;fontSize=11;points=[[1,0.5,0,0,0]];metaEdit=1;snapToPoint=0;resizable=0;rotatable=0;allowArrows=0;container=1;collapsible=0;spacingTop=-5;movable=1;connectable=0;" vertex="1" parent="1">
                        <mxGeometry x="-80.00000000000011" y="184" width="50" height="30" as="geometry"/>
                    </mxCell>
                </object>
                <object label="&lt;p style=&quot;line-height: 100%;&quot;&gt;&lt;br&gt;&lt;/p&gt;" type="outport" name="out" id="53Wxo-phatnWuWdNYizw-4">
                    <mxCell style="whiteSpace=wrap;html=1;aspect=fixed;snapToPoint=1;resizable=0;metaEdit=1;points=[[1,0.5,0,0,0]];editable=1;movable=0;rotatable=1;deletable=1;locked=0;connectable=1;noLabel=0;overflow=visible;fillColor=#000000;" vertex="1" parent="53Wxo-phatnWuWdNYizw-3">
                        <mxGeometry x="45" y="10" width="10" height="10" as="geometry"/>
                    </mxCell>
                </object>
                <object label="%block%" block="Decoder" type="block" name="" placeholders="1" id="53Wxo-phatnWuWdNYizw-5">
                    <mxCell style="rounded=0;whiteSpace=wrap;html=1;fontSize=11;points=[[0,0.5,0,0,0],[1,0.5,0,0,0]];metaEdit=1;snapToPoint=0;resizable=1;rotatable=0;allowArrows=0;container=1;resizeHeight=0;connectable=0;collapsible=0;movable=1;" vertex="1" parent="1">
                        <mxGeometry x="42" y="122" width="92.00000000000011" height="60" as="geometry"/>
                    </mxCell>
                </object>
                <object label="&lt;p style=&quot;line-height: 100%;&quot;&gt;&lt;br&gt;&lt;/p&gt;" type="inport" name="d_N" id="53Wxo-phatnWuWdNYizw-8">
                    <mxCell style="whiteSpace=wrap;html=1;aspect=fixed;snapToPoint=1;resizable=0;metaEdit=1;points=[[0,0.5,0,0,0]];editable=1;movable=1;rotatable=1;deletable=1;locked=0;connectable=1;noLabel=0;overflow=visible;direction=east;" vertex="1" parent="53Wxo-phatnWuWdNYizw-5">
                        <mxGeometry x="-6.000000000000114" y="10.000000000000057" width="10" height="10" as="geometry"/>
                    </mxCell>
                </object>
                <object label="&lt;p style=&quot;line-height: 100%;&quot;&gt;&lt;br&gt;&lt;/p&gt;" type="inport" name="d_i" id="53Wxo-phatnWuWdNYizw-9">
                    <mxCell style="whiteSpace=wrap;html=1;aspect=fixed;snapToPoint=1;resizable=0;metaEdit=1;points=[[0,0.5,0,0,0]];editable=1;movable=1;rotatable=1;deletable=1;locked=0;connectable=1;noLabel=0;overflow=visible;direction=east;" vertex="1" parent="53Wxo-phatnWuWdNYizw-5">
                        <mxGeometry x="-5.000000000000114" y="34.00000000000006" width="10" height="10" as="geometry"/>
                    </mxCell>
                </object>
                <object label="&lt;p style=&quot;line-height: 100%;&quot;&gt;&lt;br&gt;&lt;/p&gt;" type="outport" name="Nstar" id="53Wxo-phatnWuWdNYizw-10">
                    <mxCell style="whiteSpace=wrap;html=1;aspect=fixed;snapToPoint=1;resizable=0;metaEdit=1;points=[[1,0.5,0,0,0]];editable=1;movable=1;rotatable=1;deletable=1;locked=0;connectable=1;noLabel=0;overflow=visible;fillColor=#000000;" vertex="1" parent="53Wxo-phatnWuWdNYizw-5">
                        <mxGeometry x="84.00000000000011" y="10.000000000000057" width="10" height="10" as="geometry"/>
                    </mxCell>
                </object>
                <object label="&lt;p style=&quot;line-height: 100%;&quot;&gt;&lt;br&gt;&lt;/p&gt;" type="outport" name="istar" id="53Wxo-phatnWuWdNYizw-11">
                    <mxCell style="whiteSpace=wrap;html=1;aspect=fixed;snapToPoint=1;resizable=0;metaEdit=1;points=[[1,0.5,0,0,0]];editable=1;movable=1;rotatable=1;deletable=1;locked=0;connectable=1;noLabel=0;overflow=visible;fillColor=#000000;" vertex="1" parent="53Wxo-phatnWuWdNYizw-5">
                        <mxGeometry x="87.00000000000011" y="40.00000000000006" width="10" height="10" as="geometry"/>
                    </mxCell>
                </object>
                <object label="%block%" block="PIDControl" type="block" name="" placeholders="1" id="53Wxo-phatnWuWdNYizw-13">
                    <mxCell style="rounded=0;whiteSpace=wrap;html=1;fontSize=11;points=[[0,0.5,0,0,0],[1,0.5,0,0,0]];metaEdit=1;snapToPoint=0;resizable=1;rotatable=0;allowArrows=0;container=1;resizeHeight=0;connectable=0;collapsible=0;movable=1;" vertex="1" parent="1">
                        <mxGeometry x="212" y="192" width="90.00000000000011" height="60" as="geometry"/>
                    </mxCell>
                </object>
                <object label="&lt;p style=&quot;line-height: 100%;&quot;&gt;&lt;br&gt;&lt;/p&gt;" type="inport" name="Nstar" id="53Wxo-phatnWuWdNYizw-16">
                    <mxCell style="whiteSpace=wrap;html=1;aspect=fixed;snapToPoint=1;resizable=0;metaEdit=1;points=[[0,0.5,0,0,0]];editable=1;movable=1;rotatable=1;deletable=1;locked=0;connectable=1;noLabel=0;overflow=visible;direction=east;" vertex="1" parent="53Wxo-phatnWuWdNYizw-13">
                        <mxGeometry x="-6.000000000000114" y="24.000000000000057" width="10" height="10" as="geometry"/>
                    </mxCell>
                </object>
                <object label="&lt;p style=&quot;line-height: 100%;&quot;&gt;&lt;br&gt;&lt;/p&gt;" type="outport" name="u" id="53Wxo-phatnWuWdNYizw-17">
                    <mxCell style="whiteSpace=wrap;html=1;aspect=fixed;snapToPoint=1;resizable=0;metaEdit=1;points=[[1,0.5,0,0,0]];editable=1;movable=1;rotatable=1;deletable=1;locked=0;connectable=1;noLabel=0;overflow=visible;fillColor=#000000;" vertex="1" parent="53Wxo-phatnWuWdNYizw-13">
                        <mxGeometry x="85.00000000000011" y="24.000000000000057" width="10" height="10" as="geometry"/>
                    </mxCell>
                </object>
                <object label="%block%" block="Encoder" type="block" name="" placeholders="1" id="53Wxo-phatnWuWdNYizw-18">
                    <mxCell style="rounded=0;whiteSpace=wrap;html=1;fontSize=11;points=[[0,0.5,0,0,0],[1,0.5,0,0,0]];metaEdit=1;snapToPoint=0;resizable=1;rotatable=0;allowArrows=0;container=1;resizeHeight=0;connectable=0;collapsible=0;movable=1;" vertex="1" parent="1">
                        <mxGeometry x="346" y="132" width="90.00000000000011" height="60" as="geometry"/>
                    </mxCell>
                </object>
                <object label="&lt;p style=&quot;line-height: 100%;&quot;&gt;&lt;br&gt;&lt;/p&gt;" type="inport" name="u" id="53Wxo-phatnWuWdNYizw-21">
                    <mxCell style="whiteSpace=wrap;html=1;aspect=fixed;snapToPoint=1;resizable=0;metaEdit=1;points=[[0,0.5,0,0,0]];editable=1;movable=1;rotatable=1;deletable=1;locked=0;connectable=1;noLabel=0;overflow=visible;direction=east;" vertex="1" parent="53Wxo-phatnWuWdNYizw-18">
                        <mxGeometry x="-5.000000000000114" y="25.000000000000057" width="10" height="10" as="geometry"/>
                    </mxCell>
                </object>
                <object label="&lt;p style=&quot;line-height: 100%;&quot;&gt;&lt;br&gt;&lt;/p&gt;" type="outport" name="d_P" id="53Wxo-phatnWuWdNYizw-22">
                    <mxCell style="whiteSpace=wrap;html=1;aspect=fixed;snapToPoint=1;resizable=0;metaEdit=1;points=[[1,0.5,0,0,0]];editable=1;movable=1;rotatable=1;deletable=1;locked=0;connectable=1;noLabel=0;overflow=visible;fillColor=#000000;" vertex="1" parent="53Wxo-phatnWuWdNYizw-18">
                        <mxGeometry x="85.00000000000011" y="25.000000000000057" width="10" height="10" as="geometry"/>
                    </mxCell>
                </object>
                <object label="%name%" block="Outport" type="block" name="d_P" placeholders="1" id="53Wxo-phatnWuWdNYizw-24">
                    <mxCell style="ellipse;whiteSpace=wrap;html=1;fontSize=11;points=[[0.02,0.5,0,0,0]];metaEdit=1;snapToPoint=0;resizable=0;rotatable=0;allowArrows=0;container=1;collapsible=0;spacingTop=-4;movable=1;connectable=0;" vertex="1" parent="1">
                        <mxGeometry x="470" y="146" width="50" height="30" as="geometry"/>
                    </mxCell>
                </object>
                <object label="&lt;p style=&quot;line-height: 100%;&quot;&gt;&lt;br&gt;&lt;/p&gt;" type="inport" name="in" id="53Wxo-phatnWuWdNYizw-25">
                    <mxCell style="whiteSpace=wrap;html=1;aspect=fixed;snapToPoint=1;resizable=0;metaEdit=1;points=[[0,0.5,0,0,0]];editable=1;movable=0;rotatable=1;deletable=1;locked=0;connectable=1;noLabel=0;overflow=visible;direction=east;" vertex="1" parent="53Wxo-phatnWuWdNYizw-24">
                        <mxGeometry x="-4" y="10" width="10" height="10" as="geometry"/>
                    </mxCell>
                </object>
                <mxCell id="53Wxo-phatnWuWdNYizw-26" style="edgeStyle=orthogonalEdgeStyle;html=1;exitX=1;exitY=0.5;exitDx=0;exitDy=0;exitPerimeter=0;entryX=0;entryY=0.5;entryDx=0;entryDy=0;entryPerimeter=0;" edge="1" parent="1" source="53Wxo-phatnWuWdNYizw-22" target="53Wxo-phatnWuWdNYizw-25">
                    <mxGeometry relative="1" as="geometry"/>
                </mxCell>
                <mxCell id="53Wxo-phatnWuWdNYizw-27" style="edgeStyle=orthogonalEdgeStyle;html=1;exitX=1;exitY=0.5;exitDx=0;exitDy=0;exitPerimeter=0;entryX=0;entryY=0.5;entryDx=0;entryDy=0;entryPerimeter=0;" edge="1" parent="1" source="53Wxo-phatnWuWdNYizw-17" target="53Wxo-phatnWuWdNYizw-21">
                    <mxGeometry relative="1" as="geometry"/>
                </mxCell>
                <mxCell id="53Wxo-phatnWuWdNYizw-28" style="edgeStyle=orthogonalEdgeStyle;html=1;exitX=1;exitY=0.5;exitDx=0;exitDy=0;exitPerimeter=0;entryX=0;entryY=0.5;entryDx=0;entryDy=0;entryPerimeter=0;" edge="1" parent="1" source="53Wxo-phatnWuWdNYizw-10" target="53Wxo-phatnWuWdNYizw-16">
                    <mxGeometry relative="1" as="geometry"/>
                </mxCell>
                <mxCell id="53Wxo-phatnWuWdNYizw-29" style="edgeStyle=orthogonalEdgeStyle;html=1;exitX=1;exitY=0.5;exitDx=0;exitDy=0;exitPerimeter=0;entryX=0;entryY=0.5;entryDx=0;entryDy=0;entryPerimeter=0;" edge="1" parent="1" source="53Wxo-phatnWuWdNYizw-4" target="53Wxo-phatnWuWdNYizw-9">
                    <mxGeometry relative="1" as="geometry"/>
                </mxCell>
                <mxCell id="53Wxo-phatnWuWdNYizw-30" style="edgeStyle=orthogonalEdgeStyle;html=1;exitX=1;exitY=0.5;exitDx=0;exitDy=0;exitPerimeter=0;entryX=0;entryY=0.5;entryDx=0;entryDy=0;entryPerimeter=0;" edge="1" parent="1" source="53Wxo-phatnWuWdNYizw-2" target="53Wxo-phatnWuWdNYizw-8">
                    <mxGeometry relative="1" as="geometry"/>
                </mxCell>
                <object label="%tag%" placeholders="1" block="Goto" name="" tag=":soft_i" type="block" id="53Wxo-phatnWuWdNYizw-31">
                    <mxCell style="rhombus;whiteSpace=wrap;html=1;connectable=0;allowArrows=0;container=1;collapsible=0;resizable=0;fontSize=11;metaEdit=1;" vertex="1" parent="1">
                        <mxGeometry x="170" y="266" width="40" height="40" as="geometry"/>
                    </mxCell>
                </object>
                <object label="&lt;p style=&quot;line-height: 100%;&quot;&gt;&lt;br&gt;&lt;/p&gt;" type="inport" name="in" id="53Wxo-phatnWuWdNYizw-32">
                    <mxCell style="whiteSpace=wrap;html=1;aspect=fixed;snapToPoint=1;resizable=0;metaEdit=1;points=[[0,0.5,0,0,0]];editable=1;movable=0;rotatable=1;deletable=1;locked=0;connectable=1;noLabel=0;overflow=visible;direction=east;" vertex="1" parent="53Wxo-phatnWuWdNYizw-31">
                        <mxGeometry x="-4" y="15" width="10" height="10" as="geometry"/>
                    </mxCell>
                </object>
                <mxCell id="53Wxo-phatnWuWdNYizw-33" style="edgeStyle=orthogonalEdgeStyle;html=1;exitX=1;exitY=0.5;exitDx=0;exitDy=0;exitPerimeter=0;entryX=0;entryY=0.5;entryDx=0;entryDy=0;entryPerimeter=0;" edge="1" parent="1" source="53Wxo-phatnWuWdNYizw-11" target="53Wxo-phatnWuWdNYizw-32">
                    <mxGeometry relative="1" as="geometry"/>
                </mxCell>
            </root>
        </mxGraphModel>
    </diagram>
</mxfile>